<svg width="539" height="382" viewBox="0 0 539 382" fill="none" xmlns="http://www.w3.org/2000/svg">
<path d="M71.0303 348.303L20.6188 173.449C20.1817 168.289 21.8062 163.166 25.1363 159.202L140.06 37.9226C145.058 31.8281 153.326 28.4991 161.824 29.1649L430.558 53.7545C439.347 54.443 446.889 59.2625 450.458 66.1741C453.036 71.1639 455.58 76.1726 458.397 81.0678L527.113 201.307C528.171 204.899 528.145 208.725 527.03 212.3L470.868 348.999L71.0303 348.303Z" fill="#F4F4F4"/>
<path d="M493.184 349.556H49.6223C49.5384 349.571 49.4518 349.571 49.3687 349.548C49.2855 349.529 49.208 349.491 49.1418 349.435C49.0757 349.382 49.0224 349.314 48.9857 349.234C48.949 349.159 48.9301 349.075 48.9301 348.988C48.9301 348.901 48.949 348.818 48.9857 348.739C49.0224 348.663 49.0757 348.595 49.1418 348.542C49.208 348.485 49.2855 348.447 49.3687 348.425C49.4518 348.406 49.5384 348.402 49.6223 348.421H493.184C493.267 348.402 493.354 348.406 493.437 348.425C493.52 348.447 493.596 348.485 493.664 348.542C493.732 348.595 493.785 348.663 493.819 348.739C493.857 348.818 493.876 348.901 493.876 348.988C493.876 349.075 493.857 349.159 493.819 349.234C493.785 349.314 493.732 349.382 493.664 349.435C493.596 349.491 493.52 349.529 493.437 349.548C493.354 349.571 493.267 349.571 493.184 349.556Z" fill="#B2B6BB"/>
<path d="M282.521 154.893H269.29V176.456H282.521V154.893Z" fill="#3F4249"/>
<path opacity="0.3" d="M282.522 154.893H281.387V176.456H282.522V154.893Z" fill="black"/>
<path d="M273.354 161.324H277.229V170.025H273.07V161.608C273.07 161.533 273.1 161.461 273.154 161.408C273.206 161.354 273.279 161.324 273.354 161.324Z" fill="#FFBB00"/>
<path opacity="0.2" d="M277.228 170.025H275.716C275.673 170.026 275.631 170.016 275.592 169.997C275.553 169.978 275.519 169.951 275.493 169.917C275.467 169.883 275.449 169.843 275.44 169.801C275.432 169.759 275.433 169.715 275.444 169.673L276.472 165.546V161.608C276.473 161.533 276.503 161.462 276.556 161.409C276.609 161.355 276.681 161.325 276.756 161.324H277.228V170.025Z" fill="black"/>
<path d="M276.472 165.32H273.07L272.019 169.674C272.009 169.715 272.009 169.759 272.019 169.801C272.028 169.843 272.046 169.882 272.073 169.916C272.099 169.949 272.133 169.976 272.171 169.996C272.21 170.015 272.252 170.025 272.295 170.026H275.319L276.472 165.32Z" fill="#FFBB00"/>
<path opacity="0.2" d="M273.07 165.32H276.473" stroke="black" stroke-miterlimit="10"/>
<path d="M260.871 101.931H136.598V348.583H260.871V101.931Z" fill="#61656D"/>
<path d="M251.375 108.54H144.443V348.583H251.375V108.54Z" fill="#868A91"/>
<path d="M154.4 214.722H154.301C152.276 214.722 150.634 216.365 150.634 218.391V241.626C150.634 243.653 152.276 245.296 154.301 245.296H154.4C156.425 245.296 158.067 243.653 158.067 241.626V218.391C158.067 216.365 156.425 214.722 154.4 214.722Z" fill="#3F4249"/>
<path opacity="0.2" d="M154.4 214.722H154.301C152.276 214.722 150.634 216.365 150.634 218.391V241.626C150.634 243.653 152.276 245.296 154.301 245.296H154.4C156.425 245.296 158.067 243.653 158.067 241.626V218.391C158.067 216.365 156.425 214.722 154.4 214.722Z" fill="black"/>
<path d="M170.452 226.702H155.591C154.679 226.702 153.939 227.443 153.939 228.356C153.939 229.269 154.679 230.009 155.591 230.009H170.452C171.365 230.009 172.104 229.269 172.104 228.356C172.104 227.443 171.365 226.702 170.452 226.702Z" fill="#3F4249"/>
<path opacity="0.2" d="M170.452 226.702H155.591C154.679 226.702 153.939 227.443 153.939 228.356C153.939 229.269 154.679 230.009 155.591 230.009H170.452C171.365 230.009 172.104 229.269 172.104 228.356C172.104 227.443 171.365 226.702 170.452 226.702Z" fill="black"/>
<path d="M153.988 214.722H153.889C151.864 214.722 150.222 216.365 150.222 218.391V241.626C150.222 243.653 151.864 245.296 153.889 245.296H153.988C156.013 245.296 157.655 243.653 157.655 241.626V218.391C157.655 216.365 156.013 214.722 153.988 214.722Z" fill="#3F4249"/>
<path d="M170.04 226.702H155.179C154.267 226.702 153.527 227.443 153.527 228.356C153.527 229.269 154.267 230.009 155.179 230.009H170.04C170.953 230.009 171.692 229.269 171.692 228.356C171.692 227.443 170.953 226.702 170.04 226.702Z" fill="#3F4249"/>
<path opacity="0.2" d="M170.452 226.91H155.179C154.989 226.91 154.801 226.947 154.625 227.019C154.45 227.091 154.29 227.198 154.155 227.332C154.021 227.466 153.914 227.626 153.841 227.801C153.768 227.977 153.731 228.165 153.731 228.355C153.731 228.545 153.768 228.733 153.841 228.909C153.914 229.085 154.021 229.244 154.155 229.378C154.29 229.513 154.45 229.619 154.625 229.691C154.801 229.764 154.989 229.801 155.179 229.8H170.452" stroke="black" stroke-width="0.98" stroke-miterlimit="10"/>
<path d="M154.994 236.527C154.99 236.324 154.932 236.126 154.826 235.953C154.72 235.78 154.569 235.639 154.39 235.544C154.211 235.449 154.01 235.404 153.807 235.413C153.605 235.423 153.408 235.486 153.239 235.597C153.069 235.709 152.932 235.863 152.843 236.045C152.753 236.227 152.714 236.43 152.729 236.632C152.744 236.834 152.813 237.029 152.928 237.195C153.044 237.362 153.202 237.494 153.387 237.579V239.05C153.387 239.173 153.435 239.29 153.522 239.377C153.608 239.463 153.726 239.512 153.848 239.512C153.908 239.512 153.968 239.5 154.024 239.477C154.08 239.453 154.13 239.419 154.173 239.377C154.215 239.333 154.249 239.283 154.272 239.227C154.295 239.171 154.306 239.111 154.306 239.05V237.579C154.511 237.491 154.686 237.344 154.808 237.157C154.931 236.97 154.995 236.751 154.994 236.527Z" fill="#B2B6BB"/>
<path opacity="0.2" d="M153.804 239.05V237.579C153.573 237.487 153.379 237.322 153.25 237.11C153.122 236.898 153.067 236.649 153.093 236.402C153.12 236.155 153.227 235.923 153.398 235.743C153.569 235.563 153.794 235.443 154.039 235.403C153.908 235.379 153.773 235.379 153.642 235.403C153.394 235.439 153.165 235.556 152.991 235.735C152.816 235.915 152.706 236.147 152.677 236.396C152.648 236.644 152.702 236.895 152.831 237.11C152.959 237.325 153.155 237.491 153.388 237.582V239.054C153.388 239.176 153.437 239.294 153.523 239.38C153.61 239.467 153.727 239.515 153.85 239.515C153.922 239.515 153.992 239.495 154.054 239.459C153.978 239.421 153.914 239.363 153.87 239.29C153.826 239.218 153.803 239.135 153.804 239.05Z" fill="black"/>
<path d="M235.172 218.338H203.174V125.998H235.172V218.338ZM203.794 217.717H234.555V126.615H203.791L203.794 217.717Z" fill="#61656D"/>
<path d="M230.216 213.586H208.127V130.738H230.216V213.586ZM208.747 212.965H229.596V131.366H208.747V212.965Z" fill="#61656D"/>
<path d="M234.643 126.068L229.69 130.819L230.119 131.267L235.073 126.516L234.643 126.068Z" fill="#61656D"/>
<path d="M203.698 126.077L203.269 126.525L208.223 131.276L208.652 130.828L203.698 126.077Z" fill="#61656D"/>
<path d="M230.121 212.838L229.692 213.286L234.646 218.037L235.075 217.589L230.121 212.838Z" fill="#61656D"/>
<path d="M208.217 212.861L203.266 217.614L203.695 218.062L208.647 213.309L208.217 212.861Z" fill="#61656D"/>
<path d="M235.172 331.559H203.174V239.201H235.172V331.559ZM203.794 330.939H234.555V239.821H203.791L203.794 330.939Z" fill="#61656D"/>
<path d="M230.216 326.789H208.127V243.941H230.216V326.789ZM208.747 326.169H229.596V244.573H208.747V326.169Z" fill="#61656D"/>
<path d="M234.648 239.266L229.695 244.017L230.124 244.465L235.077 239.714L234.648 239.266Z" fill="#61656D"/>
<path d="M203.698 239.277L203.269 239.725L208.223 244.476L208.652 244.028L203.698 239.277Z" fill="#61656D"/>
<path d="M230.122 326.042L229.693 326.49L234.647 331.24L235.076 330.792L230.122 326.042Z" fill="#61656D"/>
<path d="M208.217 326.068L203.266 330.821L203.695 331.269L208.647 326.516L208.217 326.068Z" fill="#61656D"/>
<path d="M194.295 217.922H162.305V125.583H194.302L194.295 217.922ZM162.917 217.305H193.682V126.203H162.917V217.305Z" fill="#61656D"/>
<path d="M189.342 213.174H167.253V130.326H189.342V213.174ZM167.873 212.554H188.722V130.954H167.873V212.554Z" fill="#61656D"/>
<path d="M193.771 125.655L188.818 130.406L189.247 130.854L194.2 126.103L193.771 125.655Z" fill="#61656D"/>
<path d="M162.825 125.664L162.396 126.112L167.351 130.863L167.779 130.415L162.825 125.664Z" fill="#61656D"/>
<path d="M189.244 212.426L188.815 212.875L193.769 217.625L194.198 217.177L189.244 212.426Z" fill="#61656D"/>
<path d="M167.345 212.446L162.393 217.199L162.823 217.647L167.774 212.894L167.345 212.446Z" fill="#61656D"/>
<path d="M194.295 331.128H162.305V238.789H194.302L194.295 331.128ZM162.917 330.508H193.682V239.409H162.917V330.508Z" fill="#61656D"/>
<path d="M189.342 326.377H167.253V243.529H189.342V326.377ZM167.873 325.756H188.722V244.172H167.873V325.756Z" fill="#61656D"/>
<path d="M193.777 238.855L188.824 243.606L189.253 244.054L194.206 239.303L193.777 238.855Z" fill="#61656D"/>
<path d="M162.827 238.868L162.398 239.316L167.352 244.066L167.781 243.618L162.827 238.868Z" fill="#61656D"/>
<path d="M189.247 325.629L188.818 326.077L193.772 330.828L194.201 330.38L189.247 325.629Z" fill="#61656D"/>
<path d="M167.339 325.653L162.388 330.406L162.817 330.854L167.768 326.101L167.339 325.653Z" fill="#61656D"/>
<path opacity="0.2" d="M260.871 101.931H259.219V348.583H260.871V101.931Z" fill="black"/>
<path d="M146.095 108.54H144.443V348.583H146.095V108.54Z" fill="#61656D"/>
<path opacity="0.2" d="M146.095 108.54H144.443V348.583H146.095V108.54Z" fill="black"/>
<path d="M414.14 102.574H320.844V230.931H414.14V102.574Z" fill="#868A91"/>
<path d="M409.573 106.471H324.583V228.734H409.573V106.471Z" fill="#B2B6BB"/>
<path d="M406.303 109.875H328.623V223.68H406.303V109.875Z" fill="#F4F4F4"/>
<path d="M406.458 181.776L378.101 223.593L395.763 223.744L406.518 207.477L406.458 181.776Z" fill="white"/>
<path d="M328.623 148.644L353.457 110.072H375.663L328.623 180.168V148.644Z" fill="white"/>
<path d="M403.517 109.875L328.415 220.415V223.68L350.122 223.744L406.458 137.745L406.299 109.875H403.517Z" fill="white"/>
<path d="M368.68 108.741H364.62V226.661H368.68V108.741Z" fill="#B2B6BB"/>
<path opacity="0.2" d="M368.681 110.068H367.573V224.315H368.681V110.068Z" fill="black"/>
<path opacity="0.2" d="M414.046 102.668H412.937V227.148H414.046V102.668Z" fill="black"/>
<path d="M325.478 106.451H324.37V227.148H325.478V106.451Z" fill="#868A91"/>
<path opacity="0.2" d="M325.478 106.451H324.37V227.148H325.478V106.451Z" fill="black"/>
<path d="M329.259 109.856H328.15V223.744H329.259V109.856Z" fill="#B2B6BB"/>
<path opacity="0.2" d="M329.259 109.856H328.15V223.744H329.259V109.856Z" fill="black"/>
<path d="M407.274 145.905H325.822V148.443H407.274V145.905Z" fill="#B2B6BB"/>
<path d="M407.274 185.248H325.822V187.787H407.274V185.248Z" fill="#B2B6BB"/>
<path d="M418.994 227.149H318.435V232.445H418.994V227.149Z" fill="#868A91"/>
<path opacity="0.2" d="M418.994 227.149H417.103V232.445H418.994V227.149Z" fill="black"/>
<path d="M81.922 300.342C79.7059 298.952 77.201 298.088 74.5998 297.815C73.4014 297.69 72.0934 297.725 71.1294 298.455C71.0186 298.518 70.9271 298.61 70.8643 298.721C70.802 298.833 70.7706 298.959 70.774 299.086C70.8273 299.268 70.9475 299.424 71.1101 299.521C74.0966 301.791 78.6145 302.09 81.9413 300.342" fill="#FFBB00"/>
<path d="M81.7326 300.134C80.0326 298.89 78.4459 297.498 76.992 295.973C75.5857 294.403 74.4402 292.538 74.0206 290.472C73.8921 289.844 73.8543 289.129 74.255 288.634C78.0354 291.584 81.003 295.405 81.7326 300.145" fill="#FFBB00"/>
<path d="M81.8804 300.312C81.5969 298.246 81.5024 296.12 81.9711 294.085C82.4399 292.05 83.5476 290.105 85.2828 288.948C85.9368 290.461 85.6608 292.235 85.1958 293.828C84.4825 296.299 83.3729 298.639 81.9107 300.754" fill="#FFBB00"/>
<path d="M85.5856 306.97C83.3362 307.243 81.378 308.43 79.6995 309.951C78.0131 311.488 76.8385 313.506 76.335 315.732C78.5389 315.595 80.4102 314.041 81.7674 312.297C83.1245 310.553 84.0659 308.635 85.5478 307" fill="#FFBB00"/>
<path d="M86.39 308.018C85.5047 305.769 85.1939 303.335 85.4865 300.935C85.7791 298.536 86.6653 296.248 88.0648 294.278C89.3463 298.817 88.8775 303.985 86.39 308.018Z" fill="#FFBB00"/>
<path d="M91.283 313.848C89.2284 313.72 87.1817 314.2 85.3977 315.228C83.6137 316.256 82.1715 317.786 81.2498 319.628C81.1251 319.878 81.0155 320.196 81.1818 320.415C81.2691 320.499 81.375 320.56 81.4907 320.594C81.6063 320.628 81.7288 320.634 81.8471 320.612C83.8243 320.483 85.5784 319.295 87.0225 317.937C88.4666 316.579 89.7293 315.017 91.3284 313.844" fill="#FFBB00"/>
<path d="M91.128 313.53C90.0755 310.136 90.0113 306.511 90.9428 303.081C91.3208 301.738 91.9257 300.32 93.1694 299.677C93.2189 299.643 93.2749 299.621 93.3335 299.61C93.3921 299.6 93.4522 299.602 93.5096 299.616C93.611 299.668 93.6885 299.758 93.7251 299.866C94.1429 300.806 94.3232 301.835 94.2506 302.862C94.1773 303.882 94.0204 304.894 93.7818 305.888C93.4038 307.746 93.1808 309.74 92.1676 311.336C91.9279 311.722 91.7121 312.122 91.5212 312.535C91.3284 312.94 91.3246 313.084 91.1431 313.405" fill="#FFBB00"/>
<path d="M104.087 315.464C103.127 311.809 104.144 307.379 106.446 304.387C106.616 304.164 106.824 303.929 107.115 303.956C107.538 303.993 107.648 304.557 107.629 304.985C107.454 308.741 106.226 312.372 104.087 315.464Z" fill="#FFBB00"/>
<path d="M105.25 316.261C109.685 317.415 114.773 316.292 118.463 313.572C116.252 312.46 113.724 312.149 111.31 312.694C108.921 313.239 106.736 314.313 105.262 316.261" fill="#FFBB00"/>
<path d="M106.234 313.829C108.718 309.777 113.481 307.129 118.225 306.891C117.681 308.82 116.093 310.322 114.305 311.23C112.517 312.138 110.525 312.531 108.548 312.913C107.792 313.061 106.733 313.227 106.234 313.829Z" fill="#FFBB00"/>
<path d="M104.329 302.026C105.002 299.718 105.679 297.392 105.864 294.997C106.049 292.602 105.705 290.102 104.465 288.048C102.144 292.538 101.91 297.789 104.261 302.268" fill="#FFBB00"/>
<g opacity="0.4">
<path opacity="0.4" d="M104.329 302.026C105.002 299.718 105.679 297.392 105.864 294.997C106.049 292.602 105.705 290.102 104.465 288.048C102.144 292.538 101.91 297.789 104.261 302.268" fill="white"/>
</g>
<path d="M112.139 298.073C114.854 293.155 120.392 289.198 125.991 288.646C123.832 294.029 117.939 298.19 112.139 298.073Z" fill="#FFBB00"/>
<g opacity="0.2">
<path opacity="0.2" d="M112.139 298.073C114.854 293.155 120.392 289.198 125.991 288.646C123.832 294.029 117.939 298.19 112.139 298.073Z" fill="black"/>
</g>
<path d="M110.434 299.026C114.479 299.642 117.926 302.23 121.711 303.796C122.503 304.178 123.381 304.347 124.259 304.284C125.128 304.17 125.982 303.588 126.179 302.733C126.237 302.374 126.207 302.005 126.09 301.66C125.973 301.316 125.774 301.004 125.51 300.754C124.975 300.256 124.344 299.87 123.658 299.62C119.537 297.906 115.121 297.86 110.782 298.905" fill="#FFBB00"/>
<path d="M108.09 301.882C109.009 302.143 109.323 302.639 110.045 303.236C112.519 305.341 115.445 306.846 118.596 307.632C118.925 307.716 119.352 307.746 119.515 307.451C119.677 307.156 119.477 306.879 119.292 306.652C117.98 305.003 116.105 303.88 114.131 303.142C112.158 302.404 110.445 301.523 108.083 301.712" fill="#FFBB00"/>
<path d="M105.449 284.726C107.108 286.257 109.069 287.424 111.205 288.152C113.342 288.88 115.608 289.152 117.856 288.952C118.063 288.955 118.265 288.882 118.423 288.747C118.733 288.407 118.359 287.885 117.996 287.612C114.348 284.764 109.928 283.583 105.449 284.737" fill="#FFBB00"/>
<path d="M108.582 283.58C110.778 281.963 113.325 280.887 116.016 280.443C118.706 279.999 121.463 280.197 124.063 281.023C122.116 282.948 119.409 283.981 116.687 284.265C113.966 284.512 111.223 284.28 108.582 283.58Z" fill="#FFBB00"/>
<path d="M107.338 275.696C106.96 272.053 107.213 269.178 106.96 265.516C106.937 265.224 106.877 264.872 106.582 264.759C106.204 264.611 105.886 265.081 105.762 265.47C105.231 267.167 105.095 268.962 105.364 270.719C105.633 272.476 106.299 274.148 107.311 275.609" fill="#FFBB00"/>
<path d="M107.073 276.101C109.541 274.588 111.394 272.579 113.121 270.233C114.312 268.603 115.318 266.647 115.045 264.646C113.371 264.612 111.783 265.535 110.694 266.81C109.605 268.085 108.959 269.67 108.479 271.274C107.999 272.878 107.655 274.523 107.088 276.101" fill="#FFBB00"/>
<g opacity="0.2">
<path opacity="0.2" d="M107.073 276.101C109.541 274.588 111.394 272.579 113.121 270.233C114.312 268.603 115.318 266.647 115.045 264.646C113.371 264.612 111.783 265.535 110.694 266.81C109.605 268.085 108.959 269.67 108.479 271.274C107.999 272.878 107.655 274.523 107.088 276.101" fill="black"/>
</g>
<path d="M113.001 274.437C118.43 272.424 123.456 269.458 127.843 265.679C126.07 264.964 124.04 265.392 122.267 266.11C118.218 267.745 114.91 270.506 112.922 274.399" fill="#FFBB00"/>
<path d="M108.74 278.091C111.481 278.393 114.263 278.586 116.981 278.132C119.699 277.678 122.179 276.619 124.674 275.575C124.89 275.518 125.077 275.383 125.2 275.197C125.239 275.081 125.242 274.956 125.208 274.838C125.174 274.72 125.105 274.616 125.011 274.539C124.82 274.386 124.596 274.28 124.357 274.228C121.643 273.472 118.713 273.827 116.04 274.728C113.496 275.599 111.05 276.732 108.74 278.11" fill="#FFBB00"/>
<path d="M93.0968 284.851C91.2255 281.068 91.3465 276.668 92.9645 272.779C94.0986 274.512 94.2385 276.717 94.0306 278.779C93.8227 280.841 93.1951 282.967 93.1535 285.04" fill="#FFBB00"/>
<path d="M85.6279 281.083C83.2879 281.052 80.9674 281.51 78.8145 282.428C76.662 283.346 74.7245 284.703 73.1262 286.413C75.4549 286.792 77.8516 286.179 79.9724 285.142C82.0932 284.106 83.9721 282.657 85.8396 281.212" fill="#FFBB00"/>
<g opacity="0.2">
<path opacity="0.2" d="M85.6279 281.083C83.2879 281.052 80.9674 281.51 78.8145 282.428C76.662 283.346 74.7245 284.703 73.1262 286.413C75.4549 286.792 77.8516 286.179 79.9724 285.142C82.0932 284.106 83.9721 282.657 85.8396 281.212" fill="black"/>
</g>
<path d="M80.6072 279.403C78.3389 279.218 76.1274 278.934 73.9348 279.608C71.7421 280.281 69.7385 281.809 68.8464 283.924C70.9785 284.166 73.1447 283.629 75.1029 282.744C77.0336 281.797 78.8757 280.679 80.6072 279.403Z" fill="#FFBB00"/>
<path d="M88.0421 279.479C85.9855 278.132 83.8836 276.763 81.4869 276.203C79.0901 275.643 76.3229 276.059 74.6557 277.86C76.5913 278.995 78.9389 279.131 81.1844 279.131C83.43 279.131 86.1821 279.105 88.2991 279.854" fill="#FFBB00"/>
<path d="M88.0534 279.588C84.5414 276.138 83.2107 269.938 84.6246 265.213C87.3986 269.462 88.6106 274.544 88.0534 279.588Z" fill="#FFBB00"/>
<path d="M97.7089 269.81C98.3705 268.27 98.843 266.655 99.4328 265.085C99.9741 263.494 100.806 262.017 101.886 260.73C103.02 259.482 104.563 258.555 106.234 258.461C105.693 260.835 104.663 263.071 103.21 265.025C101.757 266.979 99.9133 268.609 97.7959 269.81" fill="#FFBB00"/>
<g opacity="0.2">
<path opacity="0.2" d="M97.7089 269.81C98.3705 268.27 98.843 266.655 99.4328 265.085C99.9741 263.494 100.806 262.017 101.886 260.73C103.02 259.482 104.563 258.555 106.234 258.461C105.693 260.835 104.663 263.071 103.21 265.025C101.757 266.979 99.9133 268.609 97.7959 269.81" fill="black"/>
</g>
<path d="M95.9628 271.849C94.8664 270.336 93.6 268.289 92.1143 267.162C90.6286 266.034 88.6931 265.353 86.8785 265.789C87.8179 267.433 89.1267 268.835 90.7016 269.886C92.2761 270.936 94.0737 271.606 95.9514 271.841" fill="#FFBB00"/>
<path d="M96.3109 269.939C95.5927 268.111 94.8706 266.265 94.5795 264.325C94.2884 262.384 94.4661 260.307 95.4566 258.616C97.3846 262.263 98.0045 266.182 96.4092 269.965" fill="#FFBB00"/>
<path d="M97.7282 258.616C98.8207 254.999 102.125 252.34 105.697 251.118C106.139 250.935 106.62 250.863 107.096 250.91C107.333 250.936 107.557 251.031 107.74 251.184C107.922 251.337 108.056 251.54 108.124 251.769C108.257 252.381 107.746 252.934 107.27 253.342C104.478 255.727 101.232 257.521 97.7282 258.616Z" fill="#FFBB00"/>
<path d="M97.7656 255.657C97.9055 253.327 98.0491 250.963 98.809 248.757C99.5689 246.552 101.024 244.475 103.149 243.51C103.527 245.863 102.472 248.205 101.221 250.233C99.9696 252.26 98.4612 254.167 97.7089 256.429" fill="#FFBB00"/>
<path d="M97.71 257.261C96.8065 254.613 96.7158 251.284 95.1394 248.988C94.0355 247.384 92.2701 246.29 91.3212 244.592C90.6936 246.177 90.8864 247.997 91.5442 249.582C92.2633 251.13 93.25 252.538 94.4589 253.743C95.6271 254.991 96.6251 255.929 97.71 257.246" fill="#FFBB00"/>
<path d="M97.7287 334.84C97.6568 334.84 97.5963 317.268 97.5925 295.595C97.5887 273.922 97.6417 256.346 97.7097 256.346C97.7778 256.346 97.8421 273.914 97.8459 295.595C97.8497 317.275 97.7968 334.84 97.7287 334.84Z" fill="#61656D"/>
<path d="M113.072 282.199C112.861 282.304 112.639 282.388 112.411 282.449L110.596 283.061C109.061 283.583 106.96 284.34 104.676 285.278C102.393 286.216 100.28 287.038 99.0661 288.089C98.5776 288.491 98.189 289.001 97.9319 289.58C97.7543 289.996 97.724 290.246 97.7013 290.242C97.6896 290.18 97.6896 290.117 97.7013 290.056C97.7271 289.882 97.7698 289.711 97.8299 289.546C98.0586 288.932 98.437 288.386 98.93 287.957C99.6626 287.335 100.483 286.825 101.365 286.444C102.336 285.986 103.417 285.513 104.563 285.04C106.854 284.102 108.974 283.371 110.524 282.891C111.299 282.649 111.931 282.471 112.369 282.354C112.598 282.28 112.834 282.228 113.072 282.199Z" fill="#61656D"/>
<path d="M118.105 269.836C118.05 269.908 117.988 269.974 117.919 270.033L117.356 270.563L115.25 272.477L108.245 278.715C105.512 281.147 103.149 283.474 101.512 285.225C100.692 286.099 100.049 286.826 99.6222 287.333L99.1156 287.911C98.9946 288.044 98.9304 288.112 98.9228 288.104C98.9663 288.026 99.0169 287.951 99.074 287.881C99.1799 287.741 99.3349 287.529 99.5466 287.268C99.9662 286.742 100.59 285.997 101.395 285.104C103.511 282.796 105.746 280.601 108.09 278.526C110.835 276.097 113.33 273.914 115.144 272.341L117.299 270.491L117.897 269.995C117.958 269.933 118.028 269.879 118.105 269.836Z" fill="#61656D"/>
<path d="M105.301 281.189C105.229 281.159 105.8 279.839 106.367 278.163C106.934 276.487 107.214 275.087 107.286 275.098C107.358 275.11 107.191 276.555 106.609 278.242C106.365 278.962 106.081 279.668 105.759 280.357C105.647 280.655 105.492 280.935 105.301 281.189Z" fill="#61656D"/>
<path d="M97.7437 291.839C97.5883 291.689 97.4477 291.524 97.3241 291.347C97.0368 290.969 96.6738 290.518 96.2429 289.962C95.3356 288.793 94.0843 287.174 92.6817 285.423C91.2792 283.671 89.9825 282.063 89.0488 280.913C88.6065 280.365 88.2398 279.907 87.9449 279.548C87.8001 279.388 87.6735 279.213 87.5669 279.026C87.7328 279.163 87.8848 279.316 88.0205 279.483C88.3041 279.786 88.701 280.24 89.1849 280.796C90.1564 281.931 91.472 283.49 92.8783 285.264C94.2846 287.038 95.5246 288.669 96.3865 289.875C96.8213 290.477 97.1691 290.965 97.4035 291.309C97.5339 291.474 97.6477 291.651 97.7437 291.839Z" fill="#61656D"/>
<path d="M94.3784 287.503C94.3368 287.548 93.4371 286.481 92.9683 284.855C92.7052 283.998 92.5963 283.101 92.647 282.207H92.7604C92.7112 282.407 92.6734 282.517 92.6545 282.513C92.6356 282.509 92.6318 282.396 92.6545 282.188H92.7642C92.8205 283.065 92.9713 283.934 93.214 284.779C93.6677 286.36 94.4464 287.461 94.3784 287.503Z" fill="#FFBB00"/>
<path d="M90.0347 282.037C89.7312 281.805 89.3996 281.611 89.048 281.461C88.1634 281.199 87.2334 281.125 86.3186 281.246C85.3905 281.317 84.47 281.465 83.5665 281.688C83.196 281.808 82.8168 281.899 82.4323 281.961C82.7703 281.761 83.1359 281.612 83.5173 281.518C84.4216 281.237 85.355 281.06 86.2997 280.992C87.2489 280.866 88.2152 280.969 89.1161 281.295C89.4986 281.429 89.823 281.691 90.0347 282.037Z" fill="#61656D"/>
<path d="M89.0023 280.709C88.9834 280.75 88.4315 280.482 87.4901 280.16C85.048 279.322 82.4323 279.123 79.8915 279.581C78.9162 279.755 78.3302 279.937 78.3151 279.895C78.4406 279.821 78.5752 279.763 78.7158 279.725C79.0871 279.595 79.4659 279.487 79.85 279.404C82.4176 278.84 85.0941 279.044 87.5468 279.99C87.9154 280.132 88.2753 280.296 88.6243 280.481C88.8813 280.614 89.0136 280.694 89.0023 280.709Z" fill="#61656D"/>
<path d="M97.7085 275.106C97.6405 275.125 97.149 273.412 96.6084 271.286C96.0678 269.159 95.686 267.416 95.7541 267.4C95.8221 267.385 96.3174 269.091 96.8542 271.221C97.391 273.351 97.7766 275.087 97.7085 275.106Z" fill="#61656D"/>
<path d="M97.7811 275.106C97.7055 275.128 97.4031 273.971 96.5601 272.836C95.717 271.701 94.7303 271.043 94.7682 270.982C95.0233 271.047 95.2604 271.17 95.46 271.342C95.9692 271.715 96.4115 272.171 96.768 272.692C97.6261 273.888 97.8416 275.102 97.7811 275.106Z" fill="#61656D"/>
<path d="M97.7278 325.473C97.6976 325.473 97.6484 325.049 97.4481 324.304C97.1589 323.253 96.7665 322.232 96.2761 321.259C95.0626 318.781 92.8738 315.633 90.0498 312.482C88.6586 310.893 87.3128 309.395 86.1674 307.942C85.141 306.682 84.2122 305.345 83.3888 303.944C82.8387 302.994 82.3707 302 81.99 300.97C81.8577 300.592 81.7632 300.316 81.7141 300.119C81.6766 300.022 81.6524 299.92 81.6422 299.817C81.6649 299.817 81.7897 300.218 82.0808 300.932C82.4947 301.941 82.9839 302.917 83.5438 303.853C84.3834 305.235 85.3209 306.554 86.3488 307.802C87.483 309.225 88.8477 310.715 90.2426 312.308C93.0552 315.467 95.2554 318.652 96.4387 321.175C96.9192 322.164 97.2904 323.201 97.5464 324.27C97.6257 324.648 97.6825 324.947 97.7014 325.151C97.7218 325.257 97.7305 325.365 97.7278 325.473Z" fill="#61656D"/>
<path d="M111.595 309.797C111.363 309.949 111.12 310.086 110.869 310.205C110.21 310.575 109.579 310.992 108.979 311.453C108.096 312.145 107.268 312.903 106.503 313.723C105.633 314.643 104.741 315.709 103.826 316.852C102 319.144 100.292 321.176 99.2672 322.795C98.7493 323.597 98.3712 324.274 98.1331 324.751C98.0155 325.004 97.8817 325.249 97.7324 325.485C97.7441 325.412 97.7671 325.342 97.8004 325.277C97.8533 325.144 97.9251 324.951 98.0423 324.705C98.3629 324.016 98.7239 323.346 99.1235 322.7C100.118 321.04 101.811 318.982 103.634 316.693C104.552 315.558 105.456 314.48 106.34 313.561C107.122 312.743 107.972 311.994 108.881 311.321C109.494 310.868 110.146 310.469 110.828 310.129C111.066 310.008 111.262 309.933 111.395 309.88C111.457 309.842 111.525 309.814 111.595 309.797Z" fill="#61656D"/>
<path d="M111.867 314.88C111.36 314.994 110.846 315.069 110.328 315.103C109.096 315.234 107.877 315.474 106.688 315.822C105.512 316.206 104.409 316.785 103.425 317.536C102.669 318.118 102.318 318.599 102.291 318.572C102.344 318.441 102.421 318.32 102.518 318.217C102.758 317.918 103.026 317.643 103.319 317.396C104.292 316.586 105.411 315.969 106.616 315.58C107.822 315.223 109.065 315.003 110.321 314.926C110.834 314.866 111.351 314.851 111.867 314.88Z" fill="#61656D"/>
<path d="M102.73 318.013C102.651 317.968 103.342 316.908 103.864 315.486C104.386 314.063 104.488 312.789 104.579 312.804C104.615 313.078 104.605 313.357 104.552 313.628C104.476 314.291 104.326 314.943 104.106 315.573C103.872 316.196 103.573 316.794 103.214 317.355C103.089 317.599 102.926 317.821 102.73 318.013Z" fill="#61656D"/>
<path d="M116.086 296.147C116.01 296.2 115.927 296.243 115.84 296.276L115.118 296.605C114.801 296.741 114.419 296.915 113.984 297.142C113.55 297.369 113.047 297.596 112.517 297.899L111.678 298.376C111.391 298.542 111.1 298.754 110.797 298.932C110.177 299.31 109.557 299.768 108.907 300.241C106.076 302.348 103.608 304.904 101.6 307.807C101.15 308.484 100.711 309.119 100.356 309.751C100.174 310.061 99.9779 310.356 99.8305 310.652L99.3768 311.51C99.0782 312.047 98.8627 312.562 98.6548 313.023C98.4468 313.485 98.2767 313.856 98.1595 314.158C98.0423 314.461 97.9365 314.699 97.8571 314.892C97.8246 314.98 97.783 315.063 97.7324 315.142C97.7482 315.051 97.7736 314.962 97.808 314.877L98.065 314.121C98.1784 313.791 98.3221 313.398 98.5262 312.948C98.7304 312.498 98.927 311.976 99.2143 311.435L99.6528 310.568C99.804 310.266 99.9892 309.967 100.167 309.649C100.515 309.01 100.953 308.367 101.399 307.682C103.404 304.742 105.893 302.165 108.76 300.059C109.429 299.59 110.056 299.132 110.684 298.762C110.994 298.572 111.285 298.383 111.58 298.213L112.431 297.748C112.967 297.441 113.481 297.218 113.924 296.991C114.366 296.764 114.755 296.613 115.081 296.492L115.837 296.208C115.917 296.178 116.001 296.157 116.086 296.147Z" fill="#61656D"/>
<path d="M105.112 303.505C105.212 303.149 105.422 302.834 105.713 302.605C106.39 302.018 107.251 301.687 108.147 301.67C109.024 301.667 109.893 301.838 110.703 302.173C111.048 302.28 111.374 302.438 111.671 302.643C111.321 302.574 110.978 302.474 110.646 302.344C109.845 302.067 109.003 301.926 108.155 301.928C107.313 301.946 106.499 302.231 105.83 302.741C105.57 302.975 105.33 303.231 105.112 303.505Z" fill="#FFBB00"/>
<g opacity="0.2">
<path opacity="0.2" d="M81.922 300.342C79.7059 298.952 77.201 298.088 74.5998 297.815C73.4014 297.69 72.0934 297.725 71.1294 298.455C71.0186 298.518 70.9271 298.61 70.8643 298.721C70.802 298.833 70.7706 298.959 70.774 299.086C70.8273 299.268 70.9475 299.424 71.1101 299.521C74.0966 301.791 78.6145 302.09 81.9413 300.342" fill="black"/>
</g>
<g opacity="0.4">
<path opacity="0.4" d="M81.8804 300.312C81.5969 298.246 81.5024 296.12 81.9711 294.085C82.4399 292.05 83.5476 290.105 85.2828 288.948C85.9368 290.461 85.6608 292.235 85.1958 293.828C84.4825 296.299 83.3729 298.639 81.9107 300.754" fill="white"/>
</g>
<g opacity="0.2">
<path opacity="0.2" d="M86.39 308.018C85.5047 305.769 85.1939 303.335 85.4865 300.935C85.7791 298.536 86.6653 296.248 88.0648 294.278C89.3463 298.817 88.8775 303.985 86.39 308.018Z" fill="black"/>
</g>
<g opacity="0.2">
<path opacity="0.2" d="M91.283 313.848C89.2284 313.72 87.1817 314.2 85.3977 315.228C83.6137 316.256 82.1715 317.786 81.2498 319.628C81.1251 319.878 81.0155 320.196 81.1818 320.415C81.2691 320.499 81.375 320.56 81.4907 320.594C81.6063 320.628 81.7288 320.634 81.8471 320.612C83.8243 320.483 85.5784 319.295 87.0225 317.937C88.4666 316.579 89.7293 315.017 91.3284 313.844" fill="black"/>
</g>
<g opacity="0.4">
<path opacity="0.4" d="M105.25 316.261C109.685 317.415 114.773 316.292 118.463 313.572C116.252 312.46 113.724 312.149 111.31 312.694C108.921 313.239 106.736 314.313 105.262 316.261" fill="white"/>
</g>
<g opacity="0.2">
<path opacity="0.2" d="M106.234 313.829C108.718 309.777 113.481 307.129 118.225 306.891C117.681 308.82 116.093 310.322 114.305 311.23C112.517 312.138 110.525 312.531 108.548 312.913C107.792 313.061 106.733 313.227 106.234 313.829Z" fill="black"/>
</g>
<g opacity="0.4">
<path opacity="0.4" d="M110.434 299.026C114.479 299.642 117.926 302.23 121.711 303.796C122.503 304.178 123.381 304.347 124.259 304.284C125.128 304.17 125.982 303.588 126.179 302.733C126.237 302.374 126.207 302.005 126.09 301.66C125.973 301.316 125.774 301.004 125.51 300.754C124.975 300.256 124.344 299.87 123.658 299.62C119.537 297.906 115.121 297.86 110.782 298.905" fill="white"/>
</g>
<g opacity="0.2">
<path opacity="0.2" d="M108.582 283.58C110.778 281.963 113.325 280.887 116.016 280.443C118.706 279.999 121.463 280.197 124.063 281.023C122.116 282.948 119.409 283.981 116.687 284.265C113.966 284.512 111.223 284.28 108.582 283.58Z" fill="black"/>
</g>
<g opacity="0.4">
<path opacity="0.4" d="M107.338 275.696C106.96 272.053 107.213 269.178 106.96 265.516C106.937 265.224 106.877 264.872 106.582 264.759C106.204 264.611 105.886 265.081 105.762 265.47C105.231 267.167 105.095 268.962 105.364 270.719C105.633 272.476 106.299 274.148 107.311 275.609" fill="white"/>
</g>
<g opacity="0.4">
<path opacity="0.4" d="M113.001 274.437C118.43 272.424 123.456 269.458 127.843 265.679C126.07 264.964 124.04 265.392 122.267 266.11C118.218 267.745 114.91 270.506 112.922 274.399" fill="white"/>
</g>
<g opacity="0.4">
<path opacity="0.4" d="M93.0968 284.851C91.2255 281.068 91.3465 276.668 92.9645 272.779C94.0986 274.512 94.2385 276.717 94.0306 278.779C93.8227 280.841 93.1951 282.967 93.1535 285.04" fill="white"/>
</g>
<g opacity="0.4">
<path opacity="0.4" d="M80.6072 279.403C78.3389 279.218 76.1274 278.934 73.9348 279.608C71.7421 280.281 69.7385 281.809 68.8464 283.924C70.9785 284.166 73.1447 283.629 75.1029 282.744C77.0336 281.797 78.8757 280.679 80.6072 279.403Z" fill="white"/>
</g>
<g opacity="0.2">
<path opacity="0.2" d="M88.0534 279.588C84.5414 276.138 83.2107 269.938 84.6246 265.213C87.3986 269.462 88.6106 274.544 88.0534 279.588Z" fill="black"/>
</g>
<g opacity="0.2">
<path opacity="0.2" d="M95.9628 271.849C94.8664 270.336 93.6 268.289 92.1143 267.162C90.6286 266.034 88.6931 265.353 86.8785 265.789C87.8179 267.433 89.1267 268.835 90.7016 269.886C92.2761 270.936 94.0737 271.606 95.9514 271.841" fill="black"/>
</g>
<g opacity="0.4">
<path opacity="0.4" d="M97.7282 258.616C98.8207 254.999 102.125 252.34 105.697 251.118C106.139 250.935 106.62 250.863 107.096 250.91C107.333 250.936 107.557 251.031 107.74 251.184C107.922 251.337 108.056 251.54 108.124 251.769C108.257 252.381 107.746 252.934 107.27 253.342C104.478 255.727 101.232 257.521 97.7282 258.616Z" fill="white"/>
</g>
<g opacity="0.2">
<path opacity="0.2" d="M97.71 257.261C96.8065 254.613 96.7158 251.284 95.1394 248.988C94.0355 247.384 92.2701 246.29 91.3212 244.592C90.6936 246.177 90.8864 247.997 91.5442 249.582C92.2633 251.13 93.25 252.538 94.4589 253.743C95.6271 254.991 96.6251 255.929 97.71 257.246" fill="black"/>
</g>
<g opacity="0.4">
<path opacity="0.4" d="M94.3784 287.503C94.3368 287.548 93.4371 286.481 92.9683 284.855C92.7052 283.998 92.5963 283.101 92.647 282.207H92.7604C92.7112 282.407 92.6734 282.517 92.6545 282.513C92.6356 282.509 92.6318 282.396 92.6545 282.188H92.7642C92.8205 283.065 92.9713 283.934 93.214 284.779C93.6677 286.36 94.4464 287.461 94.3784 287.503Z" fill="white"/>
</g>
<g opacity="0.4">
<path opacity="0.4" d="M105.112 303.505C105.212 303.149 105.422 302.834 105.713 302.605C106.39 302.018 107.251 301.687 108.147 301.67C109.024 301.667 109.893 301.838 110.703 302.173C111.048 302.28 111.374 302.438 111.671 302.643C111.321 302.574 110.978 302.474 110.646 302.344C109.845 302.067 109.003 301.926 108.155 301.928C107.313 301.946 106.499 302.231 105.83 302.741C105.57 302.975 105.33 303.231 105.112 303.505Z" fill="white"/>
</g>
<path d="M103.471 305.199C103.399 305.158 104.02 304.25 104.16 302.93C104.299 301.609 103.929 300.607 104.008 300.584C104.152 300.777 104.25 301.001 104.292 301.239C104.442 301.799 104.483 302.384 104.413 302.96C104.347 303.537 104.172 304.097 103.898 304.609C103.804 304.837 103.657 305.039 103.471 305.199Z" fill="#61656D"/>
<path d="M85.5969 327.989C85.975 334.704 88.0013 341.536 91.1087 348.44H104.635C107.603 341.604 109.485 334.783 109.822 327.989H85.5969Z" fill="#B2B6BB"/>
<path d="M110.945 325.848H84.6295V328.072H110.945V325.848Z" fill="#B2B6BB"/>
<path opacity="0.2" d="M85.5969 327.989C85.6196 328.329 85.6423 328.67 85.6725 329.01H104.646C104.646 329.01 104.76 340.617 100.809 348.44H104.635C107.591 341.63 109.47 334.821 109.814 328.072L85.5969 327.989Z" fill="black"/>
<path opacity="0.2" d="M104.661 325.848V328.053L110.944 328.076V325.848H104.661Z" fill="black"/>
<path d="M411.849 286.334L408.915 285.642C408.492 285.542 408.091 285.359 407.736 285.105C407.384 284.85 407.082 284.527 406.855 284.156C406.624 283.786 406.469 283.373 406.401 282.942C406.329 282.512 406.344 282.071 406.446 281.647L409.509 274.149C409.834 273.356 410.446 272.715 411.225 272.358C412.004 272 412.888 271.952 413.701 272.223L415.512 272.677L411.849 286.334Z" fill="#B2B6BB"/>
<path d="M485.906 312.376L507.795 259.077H432.467V262.618C406.518 268.384 407.879 296 407.879 296L483.691 308.033L485.906 312.376Z" fill="#FFBB00"/>
<path d="M446.004 348.216C461.629 347.467 473.688 334.183 472.936 318.548C472.187 302.913 458.911 290.847 443.286 291.598C427.662 292.349 415.606 305.632 416.355 321.267C417.107 336.902 430.38 348.969 446.004 348.216Z" fill="#21252B"/>
<path d="M424.762 319.625C424.706 323.56 425.817 327.424 427.953 330.728C430.089 334.032 433.159 336.627 436.769 338.185C440.383 339.744 444.375 340.196 448.242 339.484C452.11 338.773 455.678 336.929 458.502 334.186C461.323 331.444 463.266 327.926 464.09 324.077C464.914 320.229 464.578 316.222 463.122 312.565C461.67 308.907 459.168 305.763 455.928 303.53C452.692 301.296 448.862 300.074 444.931 300.017C439.657 299.941 434.573 301.965 430.788 305.642C427.008 309.319 424.838 314.348 424.762 319.625Z" fill="#FAFAFA"/>
<path d="M432.535 319.738C432.505 322.131 433.181 324.479 434.486 326.487C435.786 328.494 437.654 330.07 439.85 331.016C442.046 331.961 444.473 332.234 446.825 331.8C449.176 331.366 451.346 330.244 453.062 328.576C454.779 326.908 455.958 324.769 456.461 322.429C456.96 320.089 456.756 317.653 455.875 315.429C454.99 313.205 453.471 311.292 451.501 309.932C449.535 308.573 447.207 307.828 444.817 307.791C443.226 307.767 441.646 308.056 440.168 308.644C438.689 309.231 437.34 310.105 436.198 311.215C435.056 312.324 434.149 313.648 433.518 315.111C432.89 316.573 432.554 318.146 432.535 319.738Z" fill="#868A91"/>
<path d="M473.238 306.615C471.428 312.619 468.263 312.044 468.263 312.044V327.887C472.849 328.318 476.58 328.171 479.639 327.652L487.358 308.862L473.238 306.615Z" fill="#3F4249"/>
<path d="M497.096 285.138C491.524 260.961 454.261 266.904 454.261 266.904C425.787 270.645 417.591 288.963 417.591 288.963L491.959 297.599L497.096 285.138Z" fill="#DADDDF"/>
<path d="M414.835 294.07L403.388 312.009C401.925 314.306 404.295 317.196 406.79 316.114C408.212 315.478 409.512 314.596 410.628 313.507C415.863 308.525 425.193 295.398 425.193 295.398L414.835 294.07Z" fill="#61656D"/>
<path d="M497.388 277.417C491.294 270.793 482.912 266.904 473.874 266.904C478.951 267.873 483.997 269.435 488.163 272.201C492.329 274.966 494.896 278.408 496.756 283.065C496.964 283.59 497.138 284.127 497.282 284.673L499.285 279.789C498.711 278.956 498.076 278.163 497.388 277.417Z" fill="#DADDDF"/>
<path opacity="0.2" d="M497.388 277.417C491.294 270.793 482.912 266.904 473.874 266.904C478.951 267.873 483.997 269.435 488.163 272.201C492.329 274.966 494.896 278.408 496.756 283.065C496.964 283.59 497.138 284.127 497.282 284.673L499.285 279.789C498.711 278.956 498.076 278.163 497.388 277.417Z" fill="black"/>
<path d="M481.037 259.078H507.799L511.579 249.866H490.243C487.8 249.867 485.46 250.838 483.737 252.565C482.009 254.293 481.037 256.635 481.037 259.078Z" fill="#21252B"/>
<path d="M405.811 291.661C405.679 293.08 406.099 294.495 406.979 295.614C407.856 296.734 409.134 297.472 410.544 297.676L487.362 308.862L491.978 297.619L406.163 287.727L405.811 291.661Z" fill="#FFBB00"/>
<path opacity="0.3" d="M405.811 291.661C405.679 293.08 406.099 294.495 406.979 295.614C407.856 296.734 409.134 297.472 410.544 297.676L487.362 308.862L491.978 297.619L406.163 287.727L405.811 291.661Z" fill="black"/>
<path d="M467.81 197.539H428.913V236.917H467.81V197.539Z" fill="#FFBB00"/>
<path opacity="0.2" d="M458.415 197.539H428.913V236.917H458.415V197.539Z" fill="white"/>
<path opacity="0.15" d="M467.81 197.539H458.313V236.917H467.81V197.539Z" fill="black"/>
<path opacity="0.3" d="M447.006 197.539H440.22V202.972H447.006V197.539Z" fill="black"/>
<path d="M456.506 200.195H449.721V204.269H456.506V200.195Z" fill="white"/>
<path d="M449.267 207.042H416.703V246.419H449.267V207.042Z" fill="#FFBB00"/>
<path opacity="0.3" d="M443.105 207.042H416.703V246.419H443.105V207.042Z" fill="white"/>
<path opacity="0.15" d="M449.267 207.042H442.935V246.419H449.267V207.042Z" fill="black"/>
<path opacity="0.3" d="M432.531 207.042H426.653V212.925H432.531V207.042Z" fill="black"/>
<path d="M441.128 209.781H434.516V212.947H441.128V209.781Z" fill="white"/>
<path opacity="0.2" d="M507.795 259.092H432.535V262.713H506.306L507.795 259.092Z" fill="black"/>
<path d="M413.988 217.907V259.092H470.524V217.907H413.988ZM445.195 226.052H430.94C430.69 226.072 430.441 226.04 430.202 225.957C429.968 225.875 429.749 225.745 429.567 225.575C429.382 225.406 429.235 225.199 429.136 224.97C429.034 224.74 428.981 224.492 428.981 224.242C428.981 223.991 429.034 223.743 429.136 223.514C429.235 223.284 429.382 223.078 429.567 222.908C429.749 222.738 429.968 222.608 430.202 222.526C430.441 222.444 430.69 222.412 430.94 222.431H445.195C445.445 222.412 445.698 222.444 445.933 222.526C446.171 222.608 446.386 222.738 446.571 222.908C446.753 223.078 446.9 223.284 447.002 223.514C447.101 223.743 447.154 223.991 447.154 224.242C447.154 224.492 447.101 224.74 447.002 224.97C446.9 225.199 446.753 225.406 446.571 225.575C446.386 225.745 446.171 225.875 445.933 225.957C445.698 226.04 445.445 226.072 445.195 226.052Z" fill="#61656D"/>
<path opacity="0.3" d="M470.32 312.043H446.307C442.697 312.043 439.771 314.972 439.771 318.584V321.342C439.771 324.954 442.697 327.883 446.307 327.883H470.32C473.93 327.883 476.856 324.954 476.856 321.342V318.584C476.856 314.972 473.93 312.043 470.32 312.043Z" fill="black"/>
<path opacity="0.2" d="M470.524 217.907H462.835V259.092H470.524V217.907Z" fill="black"/>
<path d="M469.416 312.043H445.403C441.793 312.043 438.867 314.972 438.867 318.584V321.342C438.867 324.954 441.793 327.883 445.403 327.883H469.416C473.027 327.883 475.953 324.954 475.953 321.342V318.584C475.953 314.972 473.027 312.043 469.416 312.043Z" fill="#3F4249"/>
<g opacity="0.3">
<path opacity="0.3" d="M444.746 323.237C444.7 323.238 444.655 323.229 444.617 323.213C444.576 323.196 444.538 323.172 444.504 323.14C444.473 323.109 444.447 323.072 444.432 323.03C444.413 322.989 444.405 322.945 444.405 322.901V317.022C444.405 316.931 444.439 316.845 444.504 316.781C444.568 316.717 444.655 316.681 444.746 316.681C444.837 316.681 444.924 316.717 444.988 316.781C445.048 316.845 445.086 316.931 445.086 317.022V322.908C445.082 322.996 445.045 323.08 444.98 323.142C444.92 323.203 444.833 323.237 444.746 323.237Z" fill="black"/>
</g>
<g opacity="0.3">
<path opacity="0.3" d="M446.33 323.238C446.284 323.238 446.243 323.23 446.201 323.213C446.16 323.196 446.122 323.172 446.088 323.14C446.057 323.109 446.031 323.072 446.016 323.031C445.997 322.99 445.989 322.946 445.989 322.901V317.022C445.997 316.939 446.038 316.861 446.099 316.805C446.163 316.749 446.243 316.718 446.33 316.718C446.413 316.718 446.492 316.749 446.557 316.805C446.617 316.861 446.659 316.939 446.666 317.022V322.909C446.663 322.996 446.629 323.08 446.564 323.142C446.504 323.203 446.417 323.238 446.33 323.238Z" fill="black"/>
</g>
<path d="M492.235 286.92C492.186 286.921 492.133 286.904 492.095 286.872C492.053 286.84 492.027 286.796 492.016 286.746C488.919 273.483 473.824 271.993 473.669 271.993C473.639 271.993 473.605 271.986 473.579 271.973C473.548 271.96 473.522 271.942 473.503 271.918C473.48 271.895 473.465 271.867 473.454 271.838C473.446 271.808 473.443 271.776 473.443 271.745C473.446 271.713 473.458 271.683 473.473 271.655C473.488 271.628 473.507 271.604 473.533 271.584C473.56 271.566 473.586 271.552 473.616 271.545C473.647 271.538 473.681 271.537 473.711 271.542C473.866 271.542 489.29 273.056 492.454 286.652C492.462 286.681 492.462 286.711 492.458 286.74C492.45 286.77 492.443 286.798 492.424 286.823C492.409 286.849 492.39 286.87 492.363 286.888C492.341 286.905 492.314 286.917 492.284 286.924L492.235 286.92Z" fill="white"/>
<path d="M492.235 287.094C492.144 287.096 492.061 287.066 491.989 287.01C491.921 286.954 491.872 286.875 491.857 286.788C488.78 273.627 473.809 272.167 473.658 272.167C473.552 272.158 473.458 272.108 473.39 272.028C473.322 271.948 473.288 271.844 473.295 271.739C473.303 271.634 473.352 271.537 473.435 271.469C473.514 271.401 473.616 271.367 473.722 271.376C473.881 271.376 489.426 272.916 492.624 286.618C492.647 286.72 492.628 286.827 492.575 286.916C492.518 287.005 492.431 287.069 492.329 287.094H492.235ZM473.711 271.709C473.703 271.708 473.696 271.709 473.692 271.711C473.684 271.713 473.677 271.717 473.673 271.722C473.666 271.726 473.662 271.731 473.658 271.738C473.658 271.744 473.654 271.751 473.654 271.758C473.654 271.773 473.658 271.787 473.666 271.8C473.677 271.811 473.688 271.819 473.703 271.822C473.858 271.822 489.074 273.313 492.197 286.712C492.201 286.727 492.208 286.739 492.224 286.747C492.235 286.755 492.25 286.757 492.265 286.754C492.28 286.75 492.292 286.741 492.299 286.728C492.307 286.716 492.311 286.7 492.307 286.686C489.169 273.222 473.87 271.72 473.715 271.709H473.711Z" fill="white"/>
<path d="M432.535 259.429C432.49 259.43 432.448 259.421 432.406 259.405C432.365 259.388 432.327 259.363 432.297 259.332C432.263 259.301 432.24 259.264 432.221 259.222C432.206 259.181 432.195 259.137 432.195 259.093V217.408V217.366L437.396 197.452C437.408 197.409 437.427 197.368 437.453 197.332C437.48 197.297 437.514 197.266 437.551 197.244C437.589 197.221 437.635 197.207 437.676 197.201C437.722 197.195 437.767 197.198 437.809 197.21C437.895 197.233 437.971 197.29 438.016 197.368C438.062 197.446 438.073 197.539 438.05 197.626L432.86 217.498V259.111C432.856 259.195 432.818 259.275 432.762 259.333C432.701 259.393 432.618 259.427 432.535 259.429Z" fill="black"/>
<path d="M439.786 259.429C439.74 259.43 439.699 259.422 439.657 259.405C439.616 259.388 439.578 259.363 439.548 259.332C439.513 259.301 439.491 259.264 439.472 259.222C439.453 259.181 439.445 259.137 439.445 259.093V217.404L442.387 197.49C442.394 197.446 442.409 197.404 442.432 197.366C442.455 197.328 442.485 197.294 442.519 197.268C442.557 197.241 442.595 197.222 442.64 197.211C442.681 197.2 442.727 197.198 442.772 197.204C442.814 197.211 442.855 197.226 442.897 197.249C442.935 197.272 442.965 197.302 442.991 197.338C443.018 197.373 443.041 197.414 443.048 197.457C443.06 197.5 443.063 197.544 443.056 197.588L440.122 217.476V259.089C440.122 259.178 440.088 259.265 440.024 259.328C439.96 259.392 439.876 259.428 439.786 259.429Z" fill="black"/>
<g opacity="0.3">
<path opacity="0.3" d="M474.565 283.811L450.62 281.413C450.541 281.405 450.469 281.366 450.42 281.305C450.371 281.244 450.344 281.166 450.352 281.087C450.356 281.047 450.367 281.009 450.386 280.974C450.405 280.939 450.431 280.908 450.462 280.883C450.492 280.858 450.526 280.839 450.564 280.828C450.601 280.817 450.643 280.814 450.681 280.819L474.626 283.213C474.705 283.217 474.781 283.253 474.834 283.311C474.887 283.37 474.913 283.448 474.909 283.527C474.906 283.606 474.872 283.681 474.811 283.734C474.754 283.787 474.675 283.815 474.596 283.811H474.565Z" fill="black"/>
<path opacity="0.3" d="M473.976 286.206H473.945L449.993 283.811C449.955 283.807 449.917 283.795 449.883 283.777C449.845 283.758 449.815 283.733 449.792 283.702C449.766 283.672 449.747 283.637 449.736 283.599C449.724 283.561 449.721 283.521 449.724 283.482C449.732 283.403 449.773 283.331 449.834 283.28C449.894 283.23 449.974 283.206 450.049 283.213L473.994 285.612C474.07 285.623 474.134 285.661 474.183 285.718C474.229 285.776 474.252 285.848 474.248 285.922C474.244 285.996 474.214 286.066 474.161 286.119C474.108 286.171 474.04 286.202 473.964 286.206H473.976Z" fill="black"/>
<path opacity="0.3" d="M473.378 288.604H473.348L449.403 286.209C449.324 286.201 449.252 286.161 449.203 286.1C449.15 286.038 449.127 285.959 449.135 285.88C449.138 285.841 449.15 285.803 449.169 285.768C449.188 285.733 449.214 285.703 449.244 285.678C449.274 285.654 449.309 285.635 449.346 285.625C449.384 285.614 449.426 285.611 449.463 285.615L473.408 288.01C473.488 288.014 473.563 288.049 473.616 288.108C473.669 288.167 473.696 288.245 473.692 288.324C473.688 288.403 473.654 288.478 473.594 288.531C473.533 288.584 473.458 288.612 473.378 288.608V288.604Z" fill="black"/>
<path opacity="0.3" d="M472.781 290.998H472.751L448.806 288.6C448.764 288.598 448.726 288.587 448.689 288.57C448.655 288.552 448.62 288.526 448.594 288.496C448.568 288.465 448.549 288.429 448.537 288.391C448.526 288.352 448.522 288.312 448.526 288.271C448.53 288.231 448.541 288.192 448.56 288.156C448.579 288.121 448.605 288.09 448.639 288.065C448.67 288.04 448.707 288.023 448.745 288.012C448.787 288.002 448.828 288 448.866 288.006L472.811 290.401C472.891 290.405 472.966 290.44 473.019 290.499C473.072 290.558 473.099 290.635 473.095 290.715C473.091 290.794 473.057 290.868 472.996 290.921C472.94 290.975 472.86 291.002 472.781 290.998Z" fill="black"/>
</g>
<path d="M341.9 342.152L322.412 342.633L330.188 337.075C330.829 336.617 331.357 336.018 331.732 335.324C332.107 334.631 332.318 333.861 332.351 333.073L332.623 326.971L343.208 327.001L341.9 342.152Z" fill="#FC9D9D"/>
<path opacity="0.15" d="M339.738 335.029V334.908C339.77 334.583 339.676 334.257 339.474 334C339.273 333.743 338.98 333.573 338.657 333.527L332.442 332.627L332.502 331.394H342.891L341.957 341.728L333.463 340.798L336.256 339.686C337.21 339.307 338.04 338.671 338.655 337.85C339.269 337.028 339.644 336.051 339.738 335.029Z" fill="black"/>
<path d="M372.619 341.774H363.853L362.231 326.933L372.589 326.96L372.619 341.774Z" fill="#FC9D9D"/>
<path opacity="0.15" d="M370.427 339.296L370.215 334.73C370.2 334.44 370.083 334.163 369.886 333.949C369.686 333.735 369.421 333.597 369.134 333.557L362.832 332.597L362.681 331.333L372.559 331.363L372.589 341.88L370.427 339.296Z" fill="black"/>
<path d="M371.958 336.561L371.686 336.288C370.673 335.305 369.312 334.763 367.902 334.78C366.488 334.797 365.142 335.372 364.151 336.379L364 336.561C363.505 337.079 363.229 337.766 363.221 338.482V339.617C363.229 340.28 363.127 340.938 362.919 341.57L361.989 344.664C361.747 345.413 361.618 346.193 361.611 346.979V347.358C361.626 347.657 361.755 347.937 361.974 348.141C362.193 348.341 362.484 348.451 362.783 348.44H373.561C373.859 348.451 374.15 348.341 374.37 348.141C374.589 347.937 374.718 347.657 374.733 347.358V347.206C374.733 346.298 374.578 345.394 374.279 344.536L373.198 341.509C372.952 340.817 372.824 340.085 372.82 339.349L372.79 338.475C372.748 337.758 372.453 337.08 371.958 336.561Z" fill="#FFBB00"/>
<path opacity="0.5" d="M374.763 347.225V347.377C374.748 347.675 374.619 347.955 374.4 348.16C374.181 348.36 373.89 348.47 373.591 348.459H362.813C362.514 348.47 362.223 348.36 362.004 348.16C361.785 347.955 361.653 347.675 361.641 347.377V346.998C361.637 346.847 361.645 346.696 361.671 346.548H374.763V347.225Z" fill="black"/>
<path d="M343.25 338.695V346.314C343.251 346.605 343.194 346.896 343.082 347.165C342.971 347.437 342.807 347.683 342.601 347.887C342.394 348.095 342.149 348.258 341.878 348.372C341.609 348.481 341.319 348.538 341.027 348.538H315.207C314.96 348.538 314.724 348.44 314.55 348.266C314.376 348.092 314.278 347.853 314.277 347.607C314.28 346.722 314.559 345.863 315.076 345.145C315.593 344.43 316.32 343.892 317.157 343.609L322.983 341.687L330.37 335.948C330.741 335.657 331.201 335.504 331.672 335.516C332.142 335.527 332.595 335.701 332.952 336.009L336.226 338.804C336.461 339.007 336.744 339.146 337.049 339.209C337.353 339.272 337.668 339.256 337.965 339.164L342.123 337.87C342.252 337.834 342.388 337.829 342.52 337.853C342.652 337.877 342.777 337.931 342.885 338.011C342.993 338.09 343.082 338.193 343.145 338.311C343.208 338.429 343.244 338.56 343.25 338.695Z" fill="#FFBB00"/>
<path opacity="0.5" d="M341.027 348.519H315.207C314.961 348.519 314.725 348.421 314.551 348.247C314.376 348.073 314.278 347.834 314.277 347.589C314.271 347.275 314.312 346.957 314.398 346.654H343.22C343.134 347.172 342.866 347.645 342.464 347.99C342.063 348.33 341.554 348.519 341.027 348.519Z" fill="black"/>
<path d="M330.532 338.963C330.587 338.961 330.639 338.94 330.68 338.903C330.723 338.859 330.747 338.8 330.747 338.738C330.747 338.677 330.723 338.617 330.68 338.574L329.118 336.89C329.075 336.847 329.016 336.823 328.954 336.823C328.892 336.823 328.833 336.847 328.79 336.89C328.746 336.935 328.722 336.995 328.722 337.057C328.722 337.119 328.746 337.179 328.79 337.223L330.351 338.903C330.406 338.936 330.468 338.957 330.532 338.963Z" fill="white"/>
<path d="M329.289 339.924C329.344 339.924 329.398 339.904 329.44 339.867C329.483 339.823 329.507 339.763 329.507 339.701C329.507 339.638 329.483 339.579 329.44 339.534L327.886 337.851C327.842 337.807 327.782 337.782 327.72 337.782C327.657 337.782 327.597 337.807 327.553 337.851C327.509 337.895 327.485 337.955 327.485 338.017C327.485 338.08 327.509 338.14 327.553 338.184L329.115 339.867C329.168 339.898 329.227 339.918 329.289 339.924Z" fill="white"/>
<path d="M328.056 340.889C328.112 340.889 328.166 340.866 328.207 340.828C328.251 340.783 328.275 340.722 328.275 340.662C328.275 340.599 328.251 340.54 328.207 340.495L326.646 338.815C326.601 338.781 326.544 338.763 326.487 338.767C326.43 338.77 326.377 338.795 326.336 338.835C326.296 338.875 326.271 338.929 326.268 338.986C326.265 339.043 326.282 339.099 326.317 339.144L327.878 340.828C327.928 340.87 327.991 340.893 328.056 340.889Z" fill="white"/>
<path d="M365.955 339.126C365.996 339.13 366.038 339.119 366.072 339.095C366.692 338.801 367.368 338.649 368.053 338.649C368.741 338.649 369.417 338.801 370.037 339.095C370.102 339.122 370.17 339.124 370.234 339.1C370.298 339.077 370.351 339.029 370.381 338.968C370.412 338.906 370.419 338.835 370.4 338.77C370.378 338.705 370.336 338.649 370.276 338.615C369.58 338.273 368.813 338.095 368.038 338.095C367.263 338.095 366.499 338.273 365.803 338.615C365.739 338.65 365.69 338.709 365.667 338.78C365.645 338.85 365.648 338.927 365.682 338.993C365.713 339.036 365.754 339.071 365.8 339.094C365.849 339.117 365.902 339.128 365.955 339.126Z" fill="white"/>
<path d="M365.955 340.496C365.996 340.5 366.038 340.489 366.072 340.466C366.692 340.17 367.368 340.016 368.053 340.016C368.741 340.016 369.417 340.17 370.037 340.466C370.068 340.484 370.105 340.495 370.14 340.499C370.177 340.503 370.215 340.5 370.249 340.489C370.283 340.478 370.317 340.461 370.344 340.437C370.37 340.413 370.393 340.384 370.412 340.351C370.427 340.319 370.438 340.283 370.438 340.246C370.442 340.21 370.434 340.173 370.423 340.139C370.408 340.105 370.389 340.074 370.366 340.047C370.34 340.02 370.31 339.999 370.276 339.985C369.58 339.644 368.816 339.466 368.038 339.466C367.263 339.466 366.499 339.644 365.803 339.985C365.739 340.021 365.69 340.08 365.667 340.15C365.645 340.22 365.652 340.297 365.682 340.363C365.713 340.406 365.754 340.441 365.803 340.464C365.849 340.487 365.902 340.498 365.955 340.496Z" fill="white"/>
<path d="M365.955 341.85C365.996 341.853 366.038 341.842 366.072 341.819C366.692 341.524 367.368 341.373 368.057 341.373C368.741 341.373 369.417 341.524 370.037 341.819C370.068 341.838 370.106 341.85 370.14 341.853C370.177 341.857 370.215 341.853 370.249 341.842C370.283 341.831 370.317 341.816 370.344 341.789C370.37 341.766 370.393 341.74 370.412 341.706C370.427 341.672 370.438 341.638 370.438 341.6C370.442 341.562 370.434 341.528 370.423 341.494C370.408 341.46 370.389 341.426 370.366 341.399C370.34 341.373 370.31 341.354 370.276 341.339C369.58 340.998 368.816 340.821 368.041 340.821C367.263 340.821 366.499 340.998 365.803 341.339C365.743 341.373 365.698 341.43 365.675 341.498C365.652 341.562 365.656 341.634 365.682 341.698C365.713 341.744 365.751 341.782 365.8 341.808C365.845 341.835 365.902 341.85 365.955 341.85Z" fill="white"/>
<path d="M372.083 219.204L373.659 334.533H362.057L353.43 240.507C353.4 240.212 353.264 239.939 353.045 239.74C352.825 239.541 352.542 239.431 352.247 239.431C351.948 239.431 351.665 239.541 351.445 239.74C351.226 239.939 351.09 240.212 351.06 240.507L343.409 334.533H331.807L332.941 219.204H372.083Z" fill="#21252B"/>
<path opacity="0.3" d="M336.959 333.221L345.276 244.444C345.442 243.069 346.105 241.802 347.141 240.882C348.177 239.962 349.513 239.453 350.897 239.451H352.239C351.944 239.451 351.661 239.562 351.442 239.763C351.226 239.963 351.09 240.238 351.067 240.533L343.473 334.049L336.959 333.221Z" fill="black"/>
<path opacity="0.3" d="M373.689 332.108L369.039 332.135L364.926 225.927H372.083L373.689 332.108Z" fill="black"/>
<path d="M343.695 334.533H331.405L331.579 332.165H343.922L343.695 334.533Z" fill="#21252B"/>
<path opacity="0.3" d="M343.695 334.533H336.845L337.102 332.165H343.907L343.695 334.533Z" fill="black"/>
<path d="M373.946 334.533H361.63L361.399 332.165H373.916L373.946 334.533Z" fill="#21252B"/>
<path opacity="0.3" d="M373.946 334.533H369.123L369.009 332.165H373.924L373.946 334.533Z" fill="black"/>
<path d="M291.693 173.562L317.271 180.527L332.045 169.269L339.228 180.996L320.855 192.568C319.594 193.114 318.229 193.374 316.856 193.328C315.483 193.282 314.138 192.932 312.916 192.303L288.873 180.149L291.693 173.562Z" fill="#FC9D9D"/>
<path opacity="0.15" d="M316.617 180.35L317.639 181.863C317.667 181.9 317.705 181.928 317.749 181.943C317.793 181.959 317.841 181.96 317.886 181.949C317.931 181.937 317.971 181.912 318.002 181.877C318.033 181.842 318.052 181.799 318.058 181.753V179.911L317.249 180.527L316.617 180.35Z" fill="black"/>
<path opacity="0.15" d="M331.179 186.066L329.478 183.959L316.923 191.211L290.109 179.438H289.171L288.865 180.149L312.909 192.304C314.13 192.933 315.475 193.283 316.848 193.328C318.221 193.374 319.587 193.115 320.847 192.569L331.179 186.066Z" fill="black"/>
<path d="M287.307 171.958L284.513 170.505L275.61 166.083C275.471 166.03 275.319 166.02 275.175 166.056C275.03 166.092 274.9 166.172 274.803 166.284C274.705 166.396 274.644 166.536 274.628 166.684C274.612 166.832 274.642 166.982 274.714 167.112L280.8 171.565L278.74 172.355C278.329 172.511 277.992 172.816 277.795 173.21L276.695 175.401C276.695 175.401 275.436 175.537 275.311 176.354C275.187 177.171 276.128 177.455 276.128 177.455L275.89 178.408C275.781 178.855 275.727 179.483 276.12 179.709C277.323 180.205 278.279 177.686 278.279 177.686L279.561 177.818L280.959 180.648C282.74 181.079 281.897 178.272 281.897 178.272L282.679 178.469C283.466 178.662 283.878 179.225 285.099 179.846C286.32 180.466 289.095 180.315 289.095 180.315L292.758 182.002L296.625 175.015L287.307 171.958Z" fill="#FC9D9D"/>
<path d="M335.424 163.666L322.783 175.575L331.666 186.67L343.386 179.104L335.424 163.666Z" fill="#FFBB00"/>
<path opacity="0.15" d="M276.684 175.401C278.757 175.273 280.797 174.822 282.733 174.066C283.024 173.953 283.292 173.809 282.857 173.328L280.967 171.494L280.525 171.668L282.086 173.355C282.113 173.384 282.132 173.418 282.141 173.457C282.15 173.494 282.15 173.534 282.14 173.572C282.13 173.61 282.11 173.645 282.083 173.673C282.056 173.701 282.022 173.722 281.984 173.733L279.689 174.441L276.93 174.91L276.684 175.401Z" fill="black"/>
<path opacity="0.15" d="M279.308 175.132L279.588 174.432C279.588 174.432 280.151 174.432 281.198 174.376" stroke="black" stroke-width="0.75" stroke-miterlimit="10" stroke-linecap="round"/>
<path d="M335.425 163.666C337.531 162.368 347.45 160.393 347.45 160.393H361.135L374.846 164.483L372.117 186.235L372.347 225.847H332.745L335.425 163.666Z" fill="#FFBB00"/>
<path opacity="0.2" d="M365.501 209.671V225.926L372.332 225.847V207.299L365.501 209.671Z" fill="black"/>
<path opacity="0.2" d="M367.463 175.749C367.384 175.749 367.304 175.766 367.229 175.799C367.153 175.832 367.089 175.879 367.032 175.939C366.979 175.999 366.934 176.069 366.907 176.146C366.881 176.223 366.873 176.304 366.877 176.384L367.588 189.042H368.049L368.805 195.307L353.468 204.882L353.593 208.234L372.359 204.731L370.344 176.963L367.697 175.787C367.622 175.758 367.542 175.746 367.463 175.749Z" fill="black"/>
<path d="M353.525 221.062L298.876 221.077L299.076 186.822L353.725 186.803L353.525 221.062Z" fill="#B2B6BB"/>
<path d="M346.423 186.885L340.624 186.852L340.587 193.385L346.386 193.418L346.423 186.885Z" fill="#FFBB00"/>
<path d="M343.386 212.017C347.248 212.017 350.379 208.883 350.379 205.018C350.379 201.153 347.248 198.02 343.386 198.02C339.523 198.02 336.392 201.153 336.392 205.018C336.392 208.883 339.523 212.017 343.386 212.017Z" fill="white"/>
<path d="M347.616 203.607H344.795V201.141H341.975V203.607H339.155V206.429H341.975V208.896H344.795V206.429H347.616V203.607Z" fill="#FFBB00"/>
<path opacity="0.2" d="M353.804 186.787L333.204 186.668L333.007 220.923L353.604 221.041L353.804 186.787Z" fill="black"/>
<path d="M318.847 186.742L312.05 186.702L312.011 193.361L318.809 193.399L318.847 186.742Z" fill="#FFBB00"/>
<path d="M315.789 212.017C319.651 212.017 322.783 208.883 322.783 205.018C322.783 201.153 319.651 198.02 315.789 198.02C311.926 198.02 308.795 201.153 308.795 205.018C308.795 208.883 311.926 212.017 315.789 212.017Z" fill="white"/>
<path d="M320.019 203.607H317.199V201.141H314.378V203.607H311.558V206.429H314.378V208.896H317.199V206.429H320.019V203.607Z" fill="#FFBB00"/>
<path d="M368.866 185.157L370.189 195.893L346.41 210.503L350.568 216.178L378.543 204.829C381.288 203.441 383.08 202.181 382.785 198.47L381.696 183.826L368.866 185.157Z" fill="#FC9D9D"/>
<path opacity="0.15" d="M370.189 195.897H372.17C372.23 195.898 372.287 195.878 372.336 195.841C372.381 195.803 372.415 195.751 372.43 195.693C372.442 195.634 372.438 195.573 372.412 195.518C372.385 195.464 372.34 195.42 372.287 195.394L369.807 194.142L370.189 195.897Z" fill="black"/>
<path d="M374.846 164.468C376.543 165.183 377.969 166.419 378.914 167.998C379.825 169.464 380.4 171.116 380.589 172.833L382.581 186.346L368.567 187.961L367.202 172.295C367.202 172.295 372.117 163.383 374.846 164.468Z" fill="#FFBB00"/>
<path d="M346.977 142.939C346.977 142.939 360.084 134.711 360.586 144.774L360.779 147.377L361.305 160.19C361.312 160.553 361.188 160.906 360.953 161.185L351.464 168.043C351.351 168.122 351.219 168.161 351.083 168.156C350.946 168.15 350.814 168.1 350.708 168.013L347.76 162.626C347.571 162.466 347.426 162.263 347.336 162.033C347.247 161.803 347.215 161.554 347.245 161.31L348.081 152.794C347.906 152.035 347.82 151.258 347.824 150.479C347.733 147.948 347.45 145.427 346.977 142.939Z" fill="#FC9D9D"/>
<path d="M345.499 135.834C345.499 135.834 340.837 155.381 350.863 156.702C359.558 157.859 360.503 144.324 360.503 144.324L360.084 134.465L345.499 135.834Z" fill="#FC9D9D"/>
<path opacity="0.2" d="M360.844 148.031C360.398 148.068 359.948 147.966 359.558 147.74L360.973 149.926L360.844 148.031Z" fill="black"/>
<path opacity="0.2" d="M347.457 158.275L347.778 155.124C348.614 155.994 351.026 157.246 353.755 156.603C355.426 156.187 356.553 154.867 357.26 154.031C357.275 154.01 357.298 153.993 357.32 153.98C357.343 153.967 357.369 153.959 357.396 153.956C357.422 153.953 357.449 153.956 357.475 153.963C357.502 153.971 357.524 153.984 357.547 154.001C357.57 154.017 357.585 154.037 357.6 154.061C357.615 154.084 357.623 154.11 357.626 154.137C357.63 154.164 357.626 154.191 357.619 154.217C357.611 154.243 357.596 154.267 357.581 154.288C356.712 155.287 355.233 156.861 352.954 157.152C352.16 157.698 351.264 158.08 350.319 158.273C349.375 158.466 348.401 158.467 347.457 158.275Z" fill="black"/>
<path d="M352.345 146.287C352.787 146.287 353.147 145.928 353.147 145.485C353.147 145.042 352.787 144.683 352.345 144.683C351.903 144.683 351.544 145.042 351.544 145.485C351.544 145.928 351.903 146.287 352.345 146.287Z" fill="black"/>
<path d="M351.99 145.75C352.077 145.75 352.149 145.679 352.149 145.591C352.149 145.503 352.077 145.432 351.99 145.432C351.903 145.432 351.831 145.503 351.831 145.591C351.831 145.679 351.903 145.75 351.99 145.75Z" fill="white"/>
<path d="M346.368 146.321C346.811 146.321 347.17 145.962 347.17 145.519C347.17 145.076 346.811 144.717 346.368 144.717C345.926 144.717 345.567 145.076 345.567 145.519C345.567 145.962 345.926 146.321 346.368 146.321Z" fill="black"/>
<path d="M346.017 145.78C346.104 145.78 346.175 145.709 346.175 145.621C346.175 145.533 346.104 145.462 346.017 145.462C345.929 145.462 345.858 145.533 345.858 145.621C345.858 145.709 345.929 145.78 346.017 145.78Z" fill="white"/>
<path opacity="0.2" d="M349.484 149.219L350.542 149.283C350.606 149.288 350.671 149.266 350.72 149.224C350.769 149.182 350.795 149.122 350.803 149.058C350.807 148.994 350.784 148.93 350.742 148.882C350.701 148.833 350.64 148.803 350.576 148.799L349.514 148.735C349.392 148.719 349.28 148.658 349.201 148.562C349.122 148.467 349.084 148.345 349.091 148.222C349.1 148.099 349.155 147.983 349.245 147.899C349.336 147.815 349.455 147.769 349.578 147.77C349.64 147.768 349.7 147.745 349.747 147.704C349.794 147.664 349.824 147.608 349.835 147.547C349.869 147.418 349.741 147.32 349.612 147.289C349.363 147.276 349.118 147.358 348.927 147.519C348.736 147.68 348.614 147.908 348.584 148.156C348.568 148.415 348.653 148.67 348.82 148.868C348.988 149.066 349.226 149.192 349.484 149.219Z" fill="black"/>
<path d="M344.38 137.612C345.465 136.08 346.693 135.683 349.396 135.683C351.574 135.725 356.723 137.359 356.523 139.901L356.481 140.465C356.462 140.721 356.545 140.974 356.712 141.17C356.878 141.366 357.112 141.489 357.369 141.513C357.608 141.517 357.842 141.569 358.061 141.665C358.28 141.761 358.477 141.899 358.643 142.072C358.806 142.244 358.934 142.448 359.021 142.671C359.108 142.894 359.15 143.131 359.142 143.37L359.101 145.023C359.101 145.124 359.139 145.22 359.21 145.291C359.282 145.362 359.377 145.402 359.479 145.402C359.479 145.402 359.963 145.481 360.042 145.076L362.537 143.809L362.915 137.242L349.396 132.978L347.718 133.538C346.834 133.833 346.051 134.372 345.461 135.093C344.87 135.814 344.495 136.688 344.38 137.612Z" fill="black"/>
<path d="M352.232 150.8C352.353 150.8 352.391 150.883 352.372 150.982C352.27 151.371 352.05 151.721 351.744 151.982C351.434 152.244 351.056 152.406 350.655 152.448C350.255 152.488 349.85 152.406 349.498 152.212C349.144 152.018 348.859 151.721 348.679 151.36C348.668 151.34 348.662 151.318 348.662 151.295C348.662 151.273 348.666 151.25 348.676 151.23C348.685 151.209 348.699 151.191 348.717 151.177C348.734 151.163 348.755 151.153 348.777 151.148L352.232 150.8Z" fill="white"/>
<path d="M348.322 142.996C348.235 143.147 347.498 143.022 346.621 143.041C345.744 143.06 345.026 143.2 344.92 143.041C344.874 142.973 345.007 142.833 345.298 142.704C345.703 142.537 346.137 142.451 346.576 142.451C347.022 142.44 347.467 142.512 347.887 142.663C348.205 142.788 348.356 142.924 348.322 142.996Z" fill="black"/>
<path d="M350.708 142.996C350.791 143.147 351.529 143.022 352.406 143.041C353.283 143.06 354.001 143.2 354.107 143.041C354.156 142.973 354.024 142.833 353.729 142.704C353.324 142.537 352.89 142.451 352.451 142.451C352.005 142.44 351.559 142.512 351.135 142.663C350.825 142.788 350.67 142.924 350.708 142.996Z" fill="black"/>
<path d="M360.371 143.029C360.45 142.791 360.583 142.572 360.757 142.39C360.93 142.208 361.146 142.066 361.38 141.975C361.615 141.884 361.868 141.845 362.118 141.862C362.371 141.879 362.613 141.951 362.836 142.072C364.93 142.999 364.499 147.747 360.946 148.019C359.097 148.174 359.467 147.096 359.777 145.647L360.371 143.029Z" fill="#FC9D9D"/>
<path opacity="0.2" d="M362.927 143.306C362.787 143.194 362.624 143.112 362.446 143.065C362.273 143.017 362.091 143.005 361.913 143.03C361.74 143.073 361.581 143.153 361.441 143.265C361.305 143.377 361.191 143.517 361.112 143.677C360.885 144.07 360.768 144.517 360.772 144.971L360.741 145.372C360.741 145.4 360.745 145.429 360.757 145.455C360.768 145.481 360.783 145.505 360.802 145.525C360.825 145.545 360.847 145.561 360.874 145.572C360.9 145.582 360.927 145.588 360.957 145.587C360.987 145.588 361.014 145.582 361.04 145.572C361.067 145.561 361.089 145.545 361.112 145.525C361.131 145.505 361.146 145.481 361.157 145.455C361.169 145.429 361.172 145.4 361.172 145.372L361.203 144.971C361.218 144.595 361.312 144.227 361.482 143.893C361.528 143.781 361.6 143.682 361.69 143.604C361.785 143.526 361.891 143.471 362.008 143.444C362.125 143.416 362.25 143.417 362.367 143.447C362.484 143.476 362.59 143.533 362.681 143.613C362.73 143.643 362.79 143.654 362.847 143.643C362.904 143.631 362.957 143.599 362.991 143.552C363.044 143.522 363.021 143.397 362.927 143.306Z" fill="black"/>
<path d="M344.448 135.91C344.448 135.91 346.032 133.64 348.508 133.447C352.667 133.133 359.093 135.656 362.624 142.435C362.624 142.435 363.38 139.693 363.361 138.229C363.361 137.253 362.654 131.442 356.636 129.717C356.636 129.717 347.544 126.437 344.448 135.91Z" fill="#FFBB00"/>
<g opacity="0.4">
<path opacity="0.4" d="M344.448 135.91C345.477 134.786 346.904 134.108 348.425 134.018C352.137 133.784 359.131 135.751 362.624 142.435C362.624 142.435 363.38 139.693 363.361 138.229C363.361 137.253 362.654 131.442 356.636 129.717C356.636 129.717 347.544 126.437 344.448 135.91Z" fill="black"/>
</g>
<path d="M362.072 141.168C360.11 138.355 357.562 135.999 354.606 134.264C351.676 132.505 346.856 130.803 343.541 129.986C342.563 129.683 341.532 129.593 340.517 129.721C339.507 129.914 338.532 130.606 338.298 131.613C338.007 132.861 340.252 134.745 341.322 135.483C342.352 136.14 343.415 136.743 344.509 137.287C344.509 137.287 344.437 134.979 348.123 134.435C353.101 133.708 362.072 141.168 362.072 141.168Z" fill="#FFBB00"/>
<path d="M354.636 137.529C354.409 137.89 354.103 138.194 353.74 138.416C353.377 138.638 352.969 138.773 352.546 138.809C352.122 138.846 351.695 138.784 351.298 138.627C350.905 138.47 350.55 138.224 350.266 137.907C350.141 138.221 349.922 138.487 349.636 138.669C349.351 138.851 349.017 138.94 348.68 138.923C348.343 138.905 348.02 138.782 347.756 138.572C347.492 138.361 347.3 138.073 347.208 137.748C346.866 138.13 346.447 138.436 345.979 138.645C345.744 138.746 345.483 138.772 345.232 138.72C344.981 138.668 344.753 138.54 344.577 138.354C344.436 138.134 344.369 137.875 344.385 137.615C344.4 137.355 344.498 137.106 344.664 136.905C345.009 136.51 345.45 136.213 345.945 136.042C347.44 135.384 349.082 135.134 350.704 135.32C352.315 135.539 354.182 136.318 355.188 137.589" fill="black"/>
<path d="M346.992 210.231L343.416 209.807L339.575 209.308L335.628 209.944L335.507 210.159C335.382 212.274 339.435 211.672 340.637 212.077C341.839 212.482 340.58 215.032 340.58 215.032C336.72 219.48 336.422 219.39 333.666 222.45C333.004 223.184 333.518 224.031 333.896 224.062C334.448 224.103 337.114 221.731 337.114 221.731C337.346 221.95 337.631 222.106 337.941 222.181C338.251 222.257 338.576 222.25 338.883 222.163L339.023 222.125L339.216 222.242C339.543 222.446 339.927 222.542 340.312 222.514L340.777 222.484L340.924 222.59C341.302 222.874 341.832 222.617 342.315 222.537L344.841 221.61C347.143 219.692 350.818 215.769 350.818 215.769L346.992 210.231Z" fill="#FC9D9D"/>
<path opacity="0.15" d="M333.58 223.128C333.58 223.128 333.497 224.603 334.861 223.385L337.375 221.494L340.127 218.69" stroke="black" stroke-width="0.73" stroke-miterlimit="10" stroke-linecap="round"/>
<path opacity="0.15" d="M340.618 222.496C340.618 222.496 342.754 221.251 343.556 220.184" stroke="black" stroke-width="0.73" stroke-miterlimit="10" stroke-linecap="round"/>
<path opacity="0.15" d="M338.769 222.193C339.774 221.382 340.708 220.486 341.559 219.515" stroke="black" stroke-width="0.73" stroke-miterlimit="10" stroke-linecap="round"/>
<path opacity="0.2" d="M368.28 172.367C368.28 172.367 368.525 167.566 373.062 165.297" stroke="black" stroke-miterlimit="10" stroke-linecap="round"/>
<path opacity="0.2" d="M334.491 184.866L334.96 174.406H334.491L333.039 181.632L329.478 183.958L331.667 186.671L334.491 184.866Z" fill="black"/>
<path opacity="0.15" d="M276.019 177.849L278.095 178.084L278.269 177.686L276.118 177.456L276.019 177.849Z" fill="black"/>
<path opacity="0.15" d="M279.841 178.408L281.985 178.681L281.887 178.272L279.55 177.818L279.841 178.408Z" fill="black"/>
<path d="M361.154 179.861H354.349V181.753H361.154V179.861Z" fill="white"/>
<path opacity="0.15" d="M293.375 180.871C293.484 180.996 289.659 179.483 289.659 179.483C289.659 179.483 285.546 179.861 283.277 178.726C283.277 178.726 285.062 180.765 289.084 180.315L292.747 182.002L293.375 180.871Z" fill="black"/>
<path opacity="0.15" d="M350.568 216.178L378.543 204.829C381.288 203.441 383.08 202.181 382.785 198.47L382.6 195.958C382.634 196.915 382.377 200.687 376.551 203.146L349.737 215.044L350.568 216.178Z" fill="black"/>
<path opacity="0.15" d="M349.738 215.043L344.672 221.1L342.317 222.537L344.846 221.61L350.568 216.178L349.738 215.043Z" fill="black"/>
<path opacity="0.1" d="M86.6668 180.652H61.3684V189.145H86.6668V180.652Z" fill="black"/>
<g opacity="0.1">
<path opacity="0.1" d="M98.5485 178.953H72.3996V169.609H98.5485V178.953ZM73.2501 178.102H97.698V170.46H73.2501V178.102Z" fill="black"/>
</g>
<path opacity="0.1" d="M292.32 76.619H267.022V85.1118H292.32V76.619Z" fill="black"/>
<g opacity="0.1">
<path opacity="0.1" d="M304.202 74.9205H278.053V65.5765H304.202V74.9205ZM278.904 74.0693H303.351V66.4277H278.904V74.0693Z" fill="black"/>
</g>
<g opacity="0.1">
<path opacity="0.1" d="M470.917 170.631H444.768V161.287H470.917V170.631ZM445.619 169.779H470.067V162.138H445.619V169.779Z" fill="black"/>
</g>
<path opacity="0.1" d="M303.477 290.904H328.775V282.411H303.477V290.904Z" fill="black"/>
<g opacity="0.1">
<path opacity="0.1" d="M291.594 271.372H317.739V280.716H291.594V271.372ZM316.893 272.223H292.441V279.865H316.893V272.223Z" fill="black"/>
</g>
<path d="M384.24 113.658C381.405 113.659 378.623 114.416 376.177 115.852C373.735 117.287 371.716 119.349 370.332 121.824C368.949 124.3 368.253 127.1 368.31 129.936C368.367 132.771 369.179 135.54 370.665 137.957L367.285 143.923L374.495 142.224C377.352 144.256 380.736 145.413 384.24 145.553C393.037 145.829 400.175 138.414 400.175 129.608C400.175 127.513 399.763 125.44 398.961 123.504C398.164 121.569 396.988 119.811 395.51 118.33C394.028 116.849 392.274 115.674 390.338 114.872C388.406 114.071 386.331 113.658 384.24 113.658Z" fill="white"/>
<path d="M384.717 145.931C384.554 145.931 384.392 145.931 384.229 145.931C380.706 145.795 377.292 144.65 374.4 142.632L366.522 144.486L370.219 137.964C368.934 135.805 368.162 133.378 367.97 130.873C367.773 128.367 368.162 125.85 369.1 123.518C370.034 121.187 371.497 119.103 373.372 117.43C375.247 115.757 377.481 114.539 379.901 113.872C382.324 113.204 384.864 113.106 387.333 113.583C389.798 114.061 392.119 115.102 394.119 116.624C396.115 118.147 397.736 120.111 398.848 122.363C399.963 124.615 400.545 127.095 400.545 129.608C400.541 131.826 400.095 134.02 399.23 136.063C398.368 138.105 397.105 139.954 395.517 141.501C392.633 144.334 388.758 145.924 384.717 145.931ZM374.585 141.804L374.729 141.918C377.526 143.893 380.83 145.021 384.252 145.167C386.236 145.227 388.21 144.884 390.058 144.159C391.903 143.434 393.586 142.342 394.999 140.949C396.515 139.473 397.718 137.708 398.542 135.759C399.366 133.81 399.793 131.716 399.797 129.6C399.797 127.195 399.237 124.823 398.167 122.67C397.094 120.517 395.54 118.642 393.623 117.191C391.703 115.741 389.476 114.754 387.117 114.31C384.755 113.865 382.32 113.975 380.006 114.629C377.697 115.283 375.564 116.465 373.784 118.082C372.007 119.698 370.623 121.705 369.75 123.945C368.877 126.185 368.533 128.598 368.745 130.994C368.96 133.389 369.724 135.703 370.983 137.752L371.1 137.945L368.038 143.347L374.585 141.804Z" fill="#868A91"/>
<path d="M379.454 125.039L381.9 129.825L376.566 132.555L374.12 127.769C373.773 127.092 373.708 126.304 373.943 125.579C374.177 124.854 374.691 124.252 375.368 123.906L375.595 123.79C376.271 123.444 377.058 123.38 377.783 123.615C378.506 123.849 379.107 124.361 379.454 125.039Z" fill="#FFBB00"/>
<path opacity="0.1" d="M373.806 126.101C374.079 125.592 374.502 125.179 375.016 124.917L375.243 124.799C375.92 124.453 376.71 124.39 377.432 124.624C378.158 124.858 378.759 125.37 379.107 126.048L381.208 130.168L381.878 129.827L379.432 125.042C379.084 124.364 378.483 123.852 377.761 123.618C377.035 123.384 376.249 123.447 375.572 123.793L375.345 123.907C374.929 124.12 374.57 124.431 374.305 124.813C374.037 125.196 373.863 125.637 373.806 126.101Z" fill="black"/>
<path opacity="0.2" d="M378.963 137.348L376.513 132.561L381.859 129.826L384.305 134.612C384.652 135.29 384.717 136.078 384.482 136.802C384.248 137.527 383.738 138.129 383.057 138.476L382.834 138.591C382.498 138.764 382.131 138.87 381.753 138.901C381.379 138.933 380.997 138.889 380.638 138.774C380.279 138.658 379.946 138.473 379.659 138.228C379.371 137.983 379.133 137.684 378.963 137.348Z" fill="black"/>
<path opacity="0.1" d="M382.615 138.683C382.694 138.649 382.774 138.63 382.849 138.592L383.076 138.475C383.753 138.128 384.267 137.527 384.497 136.802C384.732 136.078 384.671 135.29 384.324 134.613L381.878 129.827L381.208 130.168L383.654 134.953C383.98 135.592 384.055 136.33 383.862 137.021C383.669 137.712 383.223 138.305 382.615 138.683Z" fill="black"/>
<path d="M392.769 124.765C393.325 125.635 393.612 126.651 393.593 127.684C393.574 128.717 393.245 129.721 392.655 130.569C392.066 131.417 391.238 132.071 390.278 132.447C389.317 132.824 388.263 132.907 387.257 132.686C386.248 132.465 385.325 131.95 384.611 131.205C383.896 130.461 383.416 129.52 383.235 128.503C383.053 127.486 383.174 126.438 383.59 125.491C384.002 124.544 384.686 123.742 385.556 123.184C386.134 122.814 386.777 122.561 387.454 122.44C388.127 122.319 388.818 122.333 389.491 122.48C390.16 122.626 390.796 122.904 391.355 123.296C391.918 123.688 392.398 124.188 392.769 124.765Z" fill="#FFBB00"/>
<path opacity="0.15" d="M392.769 124.765C393.325 125.635 393.612 126.651 393.593 127.684C393.574 128.717 393.245 129.721 392.655 130.569C392.066 131.417 391.238 132.071 390.278 132.447C389.317 132.824 388.263 132.907 387.257 132.686C386.248 132.465 385.325 131.95 384.611 131.205C383.896 130.461 383.416 129.52 383.235 128.503C383.053 127.486 383.174 126.438 383.59 125.491C384.002 124.544 384.686 123.742 385.556 123.184C386.134 122.814 386.777 122.561 387.454 122.44C388.127 122.319 388.818 122.333 389.491 122.48C390.16 122.626 390.796 122.904 391.355 123.296C391.918 123.688 392.398 124.188 392.769 124.765Z" fill="white"/>
<path d="M392.232 125.11C392.788 125.98 393.075 126.995 393.056 128.029C393.034 129.062 392.708 130.065 392.119 130.914C391.529 131.761 390.701 132.415 389.741 132.792C388.777 133.169 387.726 133.252 386.717 133.03C385.711 132.81 384.789 132.294 384.074 131.549C383.356 130.805 382.879 129.864 382.698 128.848C382.513 127.83 382.638 126.782 383.05 125.836C383.465 124.889 384.15 124.086 385.019 123.528C385.598 123.158 386.24 122.905 386.917 122.783C387.59 122.662 388.282 122.676 388.955 122.822C389.624 122.969 390.259 123.247 390.818 123.64C391.382 124.032 391.862 124.532 392.232 125.11Z" fill="#FFBB00"/>
<path opacity="0.3" d="M392.232 125.11C392.788 125.98 393.075 126.995 393.056 128.029C393.034 129.062 392.708 130.065 392.119 130.914C391.529 131.761 390.701 132.415 389.741 132.792C388.777 133.169 387.726 133.252 386.717 133.03C385.711 132.81 384.789 132.294 384.074 131.549C383.356 130.805 382.879 129.864 382.698 128.848C382.513 127.83 382.638 126.782 383.05 125.836C383.465 124.889 384.15 124.086 385.019 123.528C385.598 123.158 386.24 122.905 386.917 122.783C387.59 122.662 388.282 122.676 388.955 122.822C389.624 122.969 390.259 123.247 390.818 123.64C391.382 124.032 391.862 124.532 392.232 125.11Z" fill="white"/>
<path d="M387.068 132.154C387.042 132.171 387.011 132.182 386.981 132.188C386.951 132.193 386.921 132.192 386.89 132.184C386.86 132.178 386.83 132.165 386.803 132.148C386.777 132.13 386.754 132.107 386.739 132.081C386.724 132.054 386.709 132.025 386.705 131.994C386.701 131.963 386.701 131.931 386.709 131.901L388.463 123.998C388.471 123.967 388.482 123.938 388.497 123.912C388.516 123.886 388.539 123.864 388.565 123.847C388.592 123.83 388.622 123.819 388.652 123.813C388.682 123.808 388.716 123.809 388.747 123.816C388.807 123.83 388.86 123.867 388.894 123.92C388.928 123.974 388.939 124.038 388.928 124.1L387.174 132.003C387.159 132.065 387.121 132.119 387.068 132.154Z" fill="#FFBB00"/>
<path opacity="0.15" d="M387.068 132.154C387.042 132.171 387.011 132.182 386.981 132.188C386.951 132.193 386.921 132.192 386.89 132.184C386.86 132.178 386.83 132.165 386.803 132.148C386.777 132.13 386.754 132.107 386.739 132.081C386.724 132.054 386.709 132.025 386.705 131.994C386.701 131.963 386.701 131.931 386.709 131.901L388.463 123.998C388.471 123.967 388.482 123.938 388.497 123.912C388.516 123.886 388.539 123.864 388.565 123.847C388.592 123.83 388.622 123.819 388.652 123.813C388.682 123.808 388.716 123.809 388.747 123.816C388.807 123.83 388.86 123.867 388.894 123.92C388.928 123.974 388.939 124.038 388.928 124.1L387.174 132.003C387.159 132.065 387.121 132.119 387.068 132.154Z" fill="white"/>
</svg>
