<svg width="537" height="382" viewBox="0 0 537 382" fill="none" xmlns="http://www.w3.org/2000/svg">
<path d="M456.777 357.305L510.289 254.194C511.893 251.103 512.843 247.715 513.08 244.24C513.318 240.765 512.835 237.278 511.668 233.998L422.171 30.6624C420.579 27.3491 418.016 24.6004 414.828 22.7822C411.64 20.9639 407.972 20.1627 404.317 20.4846L126.874 43.0998C123.875 43.3663 120.991 44.3792 118.483 46.0461C115.974 47.7134 113.922 49.9819 112.511 52.6461L31.7853 228.216C30.767 232.612 30.9409 237.2 32.2887 241.506L68.6631 357.305H456.777Z" fill="#F4F4F4"/>
<path d="M178.663 197.166H79.3712C76.9658 197.166 75.0163 199.119 75.0163 201.529V302.651C75.0163 305.061 76.9658 307.014 79.3712 307.014H178.663C181.068 307.014 183.018 305.061 183.018 302.651V201.529C183.018 199.119 181.068 197.166 178.663 197.166Z" fill="#B2B6BB"/>
<path opacity="0.2" d="M178.663 197.166H79.3712C76.9658 197.166 75.0163 199.119 75.0163 201.529V302.651C75.0163 305.061 76.9658 307.014 79.3712 307.014H178.663C181.068 307.014 183.018 305.061 183.018 302.651V201.529C183.018 199.119 181.068 197.166 178.663 197.166Z" fill="black"/>
<path d="M175.654 197.166H76.362C73.957 197.166 72.0071 199.119 72.0071 201.529V302.651C72.0071 305.061 73.957 307.014 76.362 307.014H175.654C178.059 307.014 180.009 305.061 180.009 302.651V201.529C180.009 199.119 178.059 197.166 175.654 197.166Z" fill="#B2B6BB"/>
<path d="M170.832 202.496H81.175C79.0028 202.496 77.2416 204.261 77.2416 206.438V297.747C77.2416 299.923 79.0028 301.688 81.175 301.688H170.832C173.004 301.688 174.765 299.923 174.765 297.747V206.438C174.765 204.261 173.004 202.496 170.832 202.496Z" fill="#DADDDF"/>
<g opacity="0.2">
<path opacity="0.2" d="M172.679 303.997H79.3298C78.1715 303.995 77.0611 303.534 76.2417 302.714C75.4223 301.894 74.9606 300.782 74.9585 299.621V204.551C74.9598 203.39 75.4206 202.277 76.24 201.456C77.0595 200.634 78.1707 200.173 79.3298 200.172H172.679C173.837 200.173 174.948 200.635 175.767 201.456C176.586 202.277 177.046 203.39 177.046 204.551V299.629C177.043 300.788 176.581 301.898 175.763 302.717C174.944 303.535 173.835 303.995 172.679 303.997ZM79.3298 200.725C78.3172 200.726 77.3468 201.13 76.6309 201.847C75.9146 202.564 75.5123 203.537 75.5111 204.551V299.629C75.5131 300.643 75.9163 301.615 76.6321 302.332C77.3476 303.049 78.3176 303.453 79.3298 303.455H172.679C173.691 303.453 174.661 303.049 175.376 302.332C176.092 301.615 176.495 300.643 176.497 299.629V204.551C176.496 203.537 176.094 202.564 175.378 201.847C174.662 201.13 173.691 200.726 172.679 200.725H79.3298Z" fill="black"/>
</g>
<path opacity="0.4" d="M77.0914 269.202L110.126 202.496L154.216 202.591L105.218 301.688L83.0835 301.794C83.0835 301.794 77.8199 302.167 77.5088 297.747L77.0914 269.202Z" fill="white"/>
<path d="M143.337 208.176H110.265V225.243H143.337V208.176Z" fill="#FFBB00"/>
<path opacity="0.2" d="M143.337 208.176H110.265V225.243H143.337V208.176Z" fill="black"/>
<path d="M142.545 208.176H109.474V225.243H142.545V208.176Z" fill="#FFBB00"/>
<path d="M141.04 209.685H110.977V223.742H141.04V209.685Z" fill="white"/>
<path d="M126.186 223.737L123.972 215.708L128.049 223.737H126.186Z" fill="#21252B"/>
<path d="M112.07 212.884C112.02 212.884 111.972 212.864 111.937 212.828C111.902 212.793 111.882 212.745 111.882 212.695V211.26C111.881 211.235 111.886 211.21 111.895 211.187C111.904 211.164 111.918 211.143 111.936 211.125C111.953 211.107 111.974 211.094 111.997 211.084C112.021 211.075 112.045 211.071 112.07 211.071C112.12 211.071 112.168 211.091 112.203 211.126C112.239 211.162 112.258 211.21 112.258 211.26V212.695C112.258 212.745 112.237 212.792 112.202 212.827C112.167 212.862 112.12 212.883 112.07 212.884Z" fill="#21252B"/>
<path d="M114.558 212.884C114.508 212.884 114.46 212.864 114.425 212.828C114.39 212.793 114.37 212.745 114.37 212.695V211.26C114.369 211.235 114.374 211.21 114.383 211.187C114.392 211.164 114.406 211.143 114.424 211.125C114.441 211.107 114.462 211.094 114.485 211.084C114.508 211.075 114.533 211.071 114.558 211.071C114.608 211.071 114.656 211.091 114.691 211.126C114.726 211.162 114.746 211.21 114.746 211.26V212.695C114.745 212.745 114.725 212.792 114.69 212.827C114.655 212.862 114.607 212.883 114.558 212.884Z" fill="#21252B"/>
<path d="M117.079 212.884C117.03 212.883 116.982 212.863 116.947 212.827C116.912 212.792 116.892 212.745 116.891 212.695V211.26C116.891 211.21 116.911 211.162 116.946 211.126C116.981 211.091 117.029 211.071 117.079 211.071C117.129 211.071 117.177 211.091 117.212 211.126C117.248 211.162 117.267 211.21 117.267 211.26V212.695C117.267 212.745 117.246 212.792 117.211 212.827C117.176 212.863 117.129 212.883 117.079 212.884Z" fill="#21252B"/>
<path d="M119.584 212.884C119.535 212.883 119.488 212.863 119.453 212.827C119.417 212.792 119.397 212.745 119.396 212.695V211.26C119.396 211.21 119.416 211.162 119.451 211.126C119.487 211.091 119.534 211.071 119.584 211.071C119.634 211.071 119.682 211.091 119.718 211.126C119.753 211.162 119.773 211.21 119.773 211.26V212.695C119.772 212.745 119.751 212.792 119.717 212.827C119.681 212.863 119.634 212.883 119.584 212.884Z" fill="#21252B"/>
<path d="M122.09 212.884C122.04 212.883 121.993 212.863 121.958 212.827C121.923 212.792 121.903 212.745 121.901 212.695V211.26C121.901 211.21 121.921 211.162 121.957 211.126C121.992 211.091 122.04 211.071 122.09 211.071C122.14 211.071 122.187 211.091 122.223 211.126C122.258 211.162 122.278 211.21 122.278 211.26V212.695C122.277 212.745 122.257 212.792 122.222 212.827C122.187 212.863 122.14 212.883 122.09 212.884Z" fill="#21252B"/>
<path d="M124.594 212.884C124.544 212.883 124.497 212.862 124.462 212.827C124.426 212.792 124.406 212.745 124.406 212.695V211.26C124.406 211.21 124.425 211.162 124.46 211.126C124.496 211.091 124.544 211.071 124.594 211.071C124.618 211.071 124.643 211.075 124.666 211.084C124.69 211.094 124.71 211.107 124.728 211.125C124.746 211.143 124.76 211.164 124.769 211.187C124.778 211.21 124.782 211.235 124.782 211.26V212.695C124.782 212.745 124.762 212.793 124.727 212.828C124.692 212.864 124.644 212.884 124.594 212.884Z" fill="#21252B"/>
<path d="M127.099 212.884C127.05 212.883 127.002 212.862 126.967 212.827C126.932 212.792 126.912 212.745 126.911 212.695V211.26C126.911 211.21 126.93 211.162 126.966 211.126C127.001 211.091 127.049 211.071 127.099 211.071C127.124 211.071 127.149 211.075 127.172 211.084C127.195 211.094 127.216 211.107 127.233 211.125C127.251 211.143 127.265 211.164 127.274 211.187C127.283 211.21 127.288 211.235 127.287 211.26V212.695C127.287 212.745 127.267 212.793 127.232 212.828C127.197 212.864 127.149 212.884 127.099 212.884Z" fill="#21252B"/>
<path d="M129.604 212.883C129.555 212.882 129.508 212.862 129.473 212.827C129.439 212.792 129.42 212.744 129.42 212.695V211.26C129.416 211.233 129.417 211.205 129.425 211.179C129.433 211.153 129.446 211.129 129.463 211.109C129.481 211.088 129.503 211.072 129.527 211.06C129.552 211.049 129.579 211.043 129.606 211.043C129.633 211.043 129.66 211.049 129.684 211.06C129.709 211.072 129.731 211.088 129.749 211.109C129.766 211.129 129.779 211.153 129.787 211.179C129.794 211.205 129.796 211.233 129.792 211.26V212.695C129.792 212.745 129.772 212.793 129.737 212.828C129.702 212.863 129.654 212.883 129.604 212.883Z" fill="#21252B"/>
<path d="M132.113 212.883C132.064 212.883 132.016 212.863 131.98 212.828C131.945 212.793 131.925 212.745 131.925 212.695V211.26C131.921 211.233 131.923 211.205 131.93 211.179C131.938 211.153 131.951 211.129 131.969 211.109C131.987 211.088 132.008 211.072 132.033 211.06C132.057 211.049 132.084 211.043 132.111 211.043C132.138 211.043 132.165 211.049 132.19 211.06C132.215 211.072 132.236 211.088 132.254 211.109C132.271 211.129 132.285 211.153 132.292 211.179C132.3 211.205 132.302 211.233 132.298 211.26V212.695C132.298 212.744 132.278 212.792 132.244 212.827C132.21 212.862 132.163 212.882 132.113 212.883Z" fill="#21252B"/>
<path d="M134.613 212.884C134.563 212.884 134.516 212.864 134.48 212.828C134.445 212.793 134.425 212.745 134.425 212.695V211.26C134.425 211.235 134.429 211.21 134.438 211.187C134.448 211.164 134.462 211.143 134.479 211.125C134.497 211.107 134.518 211.094 134.541 211.084C134.564 211.075 134.588 211.071 134.613 211.071C134.663 211.071 134.711 211.091 134.746 211.126C134.782 211.162 134.802 211.21 134.802 211.26V212.695C134.801 212.745 134.78 212.792 134.746 212.827C134.71 212.862 134.663 212.883 134.613 212.884Z" fill="#21252B"/>
<path d="M137.122 212.884C137.072 212.884 137.024 212.864 136.989 212.828C136.954 212.793 136.934 212.745 136.934 212.695V211.26C136.933 211.235 136.938 211.21 136.947 211.187C136.956 211.164 136.97 211.143 136.988 211.125C137.005 211.107 137.026 211.094 137.049 211.084C137.072 211.075 137.097 211.071 137.122 211.071C137.172 211.071 137.22 211.091 137.255 211.126C137.291 211.162 137.31 211.21 137.31 211.26V212.695C137.309 212.745 137.289 212.792 137.254 212.827C137.219 212.862 137.172 212.883 137.122 212.884Z" fill="#21252B"/>
<path d="M139.627 212.884C139.578 212.883 139.53 212.863 139.496 212.827C139.46 212.792 139.44 212.745 139.439 212.695V211.26C139.439 211.21 139.459 211.162 139.494 211.126C139.53 211.091 139.577 211.071 139.627 211.071C139.677 211.071 139.725 211.091 139.76 211.126C139.796 211.162 139.816 211.21 139.816 211.26V212.695C139.814 212.745 139.794 212.792 139.76 212.827C139.724 212.863 139.677 212.883 139.627 212.884Z" fill="#21252B"/>
<path opacity="0.4" d="M174.504 226.977L137.839 301.421H166.788L174.504 285.945V226.977Z" fill="white"/>
<path d="M365.643 92.6805H226.821C224.448 92.6805 222.523 94.6083 222.523 96.9862V292.908C222.523 295.286 224.448 297.214 226.821 297.214H365.643C368.016 297.214 369.94 295.286 369.94 292.908V96.9862C369.94 94.6083 368.016 92.6805 365.643 92.6805Z" fill="#868A91"/>
<path opacity="0.2" d="M365.643 92.6805H226.821C224.448 92.6805 222.523 94.6083 222.523 96.9862V292.908C222.523 295.286 224.448 297.214 226.821 297.214H365.643C368.016 297.214 369.94 295.286 369.94 292.908V96.9862C369.94 94.6083 368.016 92.6805 365.643 92.6805Z" fill="black"/>
<path d="M363.494 92.6805H224.672C222.299 92.6805 220.375 94.6083 220.375 96.9862V292.908C220.375 295.286 222.299 297.214 224.672 297.214H363.494C365.868 297.214 367.791 295.286 367.791 292.908V96.9862C367.791 94.6083 365.868 92.6805 363.494 92.6805Z" fill="#868A91"/>
<path opacity="0.1" d="M360.031 102.539H233.402V288.791H360.031V102.539Z" fill="black"/>
<path d="M358.287 103.199H231.659V285.896H358.287V103.199Z" fill="white"/>
<path opacity="0.1" d="M358.287 103.199H231.659V285.896H358.287V103.199Z" fill="black"/>
<path d="M356.139 102.338H229.511V285.035H356.139V102.338Z" fill="white"/>
<path opacity="0.12" d="M312.087 285.03C312.087 285.03 344.249 272.618 356.188 252.036C356.188 252.036 342.682 260.685 327.644 257.601C327.644 257.601 321.971 280.491 312.087 285.03Z" fill="black"/>
<path d="M295.517 102.953C293.037 102.953 290.613 102.216 288.552 100.836C286.49 99.4561 284.883 97.4944 283.934 95.1992C282.985 92.9041 282.737 90.3789 283.221 87.9423C283.705 85.5056 284.899 83.2679 286.652 81.5112C288.405 79.7545 290.639 78.5583 293.071 78.0736C295.503 77.5889 298.024 77.8378 300.314 78.7883C302.605 79.7393 304.563 81.3492 305.941 83.4147C307.318 85.4802 308.053 87.9086 308.053 90.3928C308.05 93.723 306.728 96.9158 304.378 99.2708C302.028 101.625 298.84 102.95 295.517 102.953ZM295.517 84.2951C294.312 84.2951 293.134 84.6527 292.133 85.3232C291.131 85.9936 290.351 86.9466 289.89 88.0616C289.429 89.1766 289.308 90.4035 289.543 91.5874C289.778 92.7708 290.359 93.8579 291.21 94.7112C292.062 95.5646 293.147 96.1461 294.328 96.3814C295.51 96.6168 296.735 96.4958 297.848 96.0341C298.96 95.5724 299.911 94.7904 300.581 93.7869C301.25 92.7835 301.607 91.6037 301.607 90.3969C301.605 88.7792 300.963 87.2283 299.821 86.0847C298.679 84.9406 297.131 84.2972 295.517 84.2951Z" fill="#DADDDF"/>
<path opacity="0.1" d="M295.517 102.953C293.037 102.953 290.613 102.216 288.552 100.836C286.49 99.4561 284.883 97.4944 283.934 95.1992C282.985 92.9041 282.737 90.3789 283.221 87.9423C283.705 85.5056 284.899 83.2679 286.652 81.5112C288.405 79.7545 290.639 78.5583 293.071 78.0736C295.503 77.5889 298.024 77.8378 300.314 78.7883C302.605 79.7393 304.563 81.3492 305.941 83.4147C307.318 85.4802 308.053 87.9086 308.053 90.3928C308.05 93.723 306.728 96.9158 304.378 99.2708C302.028 101.625 298.84 102.95 295.517 102.953ZM295.517 84.2951C294.312 84.2951 293.134 84.6527 292.133 85.3232C291.131 85.9936 290.351 86.9466 289.89 88.0616C289.429 89.1766 289.308 90.4035 289.543 91.5874C289.778 92.7708 290.359 93.8579 291.21 94.7112C292.062 95.5646 293.147 96.1461 294.328 96.3814C295.51 96.6168 296.735 96.4958 297.848 96.0341C298.96 95.5724 299.911 94.7904 300.581 93.7869C301.25 92.7835 301.607 91.6037 301.607 90.3969C301.605 88.7792 300.963 87.2283 299.821 86.0847C298.679 84.9406 297.131 84.2972 295.517 84.2951Z" fill="black"/>
<path d="M250.396 93.123V107.853C250.396 108.424 250.622 108.971 251.025 109.375C251.428 109.779 251.975 110.005 252.545 110.005H338.346C338.916 110.005 339.463 109.779 339.865 109.375C340.268 108.971 340.495 108.424 340.495 107.853V93.1312C340.494 92.5608 340.267 92.0138 339.864 91.6103C339.461 91.2068 338.915 90.9796 338.346 90.9784H252.545C251.976 90.9784 251.431 91.2043 251.028 91.6062C250.625 92.0081 250.398 92.5535 250.396 93.123Z" fill="#DADDDF"/>
<path opacity="0.1" d="M250.396 93.123V107.853C250.396 108.424 250.622 108.971 251.025 109.375C251.428 109.779 251.975 110.005 252.545 110.005H338.346C338.916 110.005 339.463 109.779 339.865 109.375C340.268 108.971 340.495 108.424 340.495 107.853V93.1312C340.494 92.5608 340.267 92.0138 339.864 91.6103C339.461 91.2068 338.915 90.9796 338.346 90.9784H252.545C251.976 90.9784 251.431 91.2043 251.028 91.6062C250.625 92.0081 250.398 92.5535 250.396 93.123Z" fill="black"/>
<path d="M248.677 93.123V107.853C248.677 108.424 248.904 108.971 249.306 109.375C249.709 109.779 250.256 110.005 250.826 110.005H336.627C337.197 110.005 337.743 109.779 338.147 109.375C338.55 108.971 338.776 108.424 338.776 107.853V93.1312C338.775 92.5608 338.548 92.0138 338.145 91.6103C337.743 91.2068 337.197 90.9796 336.627 90.9784H250.826C250.258 90.9784 249.712 91.2043 249.309 91.6062C248.906 92.0081 248.679 92.5535 248.677 93.123Z" fill="#DADDDF"/>
<path d="M293.798 102.953C291.318 102.953 288.894 102.216 286.833 100.836C284.771 99.4561 283.164 97.4944 282.216 95.1992C281.266 92.9041 281.018 90.3789 281.502 87.9423C281.986 85.5056 283.18 83.2679 284.933 81.5112C286.686 79.7545 288.92 78.5583 291.352 78.0736C293.784 77.5889 296.305 77.8378 298.596 78.7883C300.887 79.7393 302.844 81.3492 304.222 83.4147C305.6 85.4802 306.335 87.9086 306.335 90.3928C306.331 93.723 305.009 96.9158 302.659 99.2708C300.309 101.625 297.122 102.95 293.798 102.953ZM293.798 84.2951C292.593 84.2951 291.416 84.6527 290.414 85.3232C289.413 85.9936 288.632 86.9466 288.171 88.0616C287.71 89.1766 287.59 90.4035 287.825 91.5874C288.06 92.7708 288.639 93.8579 289.491 94.7112C290.343 95.5646 291.428 96.1461 292.61 96.3814C293.791 96.6168 295.016 96.4958 296.128 96.0341C297.241 95.5724 298.193 94.7904 298.862 93.7869C299.531 92.7835 299.888 91.6037 299.888 90.3969C299.886 88.7792 299.244 87.2283 298.102 86.0847C296.961 84.9406 295.413 84.2972 293.798 84.2951Z" fill="#DADDDF"/>
<path d="M332.604 120.242H249.651V125.376H332.604V120.242Z" fill="#FFBB00"/>
<path opacity="0.4" d="M332.579 120.242H249.627V125.376H332.579V120.242Z" fill="white"/>
<path opacity="0.2" d="M348.051 132.297H237.164V133.588H348.051V132.297Z" fill="black"/>
<path opacity="0.2" d="M348.051 137.464H237.164V138.756H348.051V137.464Z" fill="black"/>
<path opacity="0.2" d="M277.561 149.737H249.627V150.93H277.561V149.737Z" fill="black"/>
<path opacity="0.2" d="M292.177 152.85H249.627V154.043H292.177V152.85Z" fill="black"/>
<path d="M246.619 155.335H239.743V148.446H246.619V155.335ZM240.173 154.904H246.189V148.876H240.173V154.904Z" fill="#FFBB00"/>
<path opacity="0.2" d="M277.561 164.377H249.627V165.57H277.561V164.377Z" fill="black"/>
<path opacity="0.2" d="M292.177 167.489H249.627V168.682H292.177V167.489Z" fill="black"/>
<path d="M246.619 169.974H239.743V163.084H246.619V169.974ZM240.173 169.564H246.189V163.536H240.173V169.564Z" fill="#FFBB00"/>
<path opacity="0.2" d="M277.561 177.081H249.627V178.274H277.561V177.081Z" fill="black"/>
<path opacity="0.2" d="M292.177 180.193H249.627V181.386H292.177V180.193Z" fill="black"/>
<path d="M246.619 182.678H239.743V175.785H246.619V182.678ZM240.173 182.268H246.189V176.215H240.173V182.268Z" fill="#FFBB00"/>
<path opacity="0.2" d="M277.561 189.781H249.627V190.974H277.561V189.781Z" fill="black"/>
<path opacity="0.2" d="M292.177 192.893H249.627V194.086H292.177V192.893Z" fill="black"/>
<path d="M246.619 195.378H239.743V188.489H246.619V195.378ZM240.173 194.968H246.189V188.94H240.173V194.968Z" fill="#FFBB00"/>
<path opacity="0.2" d="M277.561 202.484H249.627V203.677H277.561V202.484Z" fill="black"/>
<path opacity="0.2" d="M292.177 205.596H249.627V206.789H292.177V205.596Z" fill="black"/>
<path d="M246.619 208.082H239.743V201.193H246.619V208.082ZM240.173 207.651H246.189V201.623H240.173V207.651Z" fill="#FFBB00"/>
<path opacity="0.2" d="M277.561 215.188H249.627V216.381H277.561V215.188Z" fill="black"/>
<path opacity="0.2" d="M292.177 218.3H249.627V219.494H292.177V218.3Z" fill="black"/>
<path d="M246.619 220.785H239.743V213.896H246.619V220.785ZM240.173 220.342H246.189V214.314H240.173V220.342Z" fill="#FFBB00"/>
<path d="M345.043 148.658H307.22V220.137H345.043V148.658Z" fill="#FFBB00"/>
<path opacity="0.7" d="M345.043 148.658H307.22V220.137H345.043V148.658Z" fill="white"/>
<path d="M338.71 180.78C338.489 180.247 337.073 179.139 337.073 179.139C337.073 179.139 336.017 173.829 335.252 172.168C335.047 171.725 334.294 170.405 334.294 170.405L333.316 166.05C333.316 166.05 332.906 162.979 332.194 162.241C331.318 161.334 327.524 160.74 327.524 160.74L327.197 158.718L326.137 158.874L325.072 158.718L324.745 160.74C324.745 160.74 320.955 161.334 320.079 162.241C319.363 162.979 318.953 166.05 318.953 166.05L317.979 170.397C317.979 170.397 317.226 171.717 317.026 172.16C316.256 173.837 315.2 179.131 315.2 179.131C315.2 179.131 313.78 180.23 313.563 180.771C313.492 180.93 313.455 181.102 313.455 181.276C313.455 181.45 313.492 181.622 313.563 181.78C313.845 182.19 314.918 182.543 315.409 182.481C315.735 182.382 316.022 182.18 316.227 181.907C316.551 181.395 316.637 179.714 316.637 179.714C316.637 179.714 319.297 174.325 319.989 172.447C320.451 171.196 321.434 167.305 321.434 167.305C321.434 167.305 321.933 174.219 321.765 176.523C321.667 177.868 321.27 180.48 321.164 181.829C320.926 184.909 321.483 192.081 321.364 195.189C321.299 196.797 320.869 198.974 320.853 200.582C320.828 203.526 321.217 212.277 321.217 212.277C321.217 212.277 318.401 214.139 318.245 215.352C318.252 215.661 318.378 215.955 318.597 216.173C318.979 216.337 319.39 216.421 319.805 216.421C320.22 216.421 320.631 216.337 321.012 216.173C321.978 215.533 322.649 213.671 322.821 212.712C323.378 209.771 324.561 203.756 324.532 200.762C324.532 199.803 324.397 197.892 324.434 196.932C324.536 194.246 326.153 186.348 326.153 186.348C326.153 186.348 327.766 194.246 327.872 196.932C327.909 197.892 327.778 199.803 327.77 200.762C327.741 203.756 328.924 209.784 329.481 212.712C329.661 213.671 330.328 215.533 331.294 216.173C331.675 216.337 332.086 216.421 332.501 216.421C332.916 216.421 333.327 216.337 333.709 216.173C333.926 215.954 334.052 215.661 334.061 215.352C333.905 214.122 331.085 212.277 331.085 212.277C331.085 212.277 331.494 203.526 331.449 200.582C331.449 198.974 331.003 196.797 330.942 195.189C330.819 192.102 331.38 184.909 331.138 181.829C331.036 180.48 330.635 177.868 330.537 176.523C330.373 174.219 330.868 167.305 330.868 167.305C330.868 167.305 331.854 171.196 332.317 172.447C333.009 174.325 335.665 179.714 335.665 179.714C335.665 179.714 335.747 181.395 336.074 181.907C336.281 182.179 336.567 182.38 336.893 182.481C337.384 182.543 338.461 182.186 338.739 181.78C338.804 181.621 338.836 181.449 338.831 181.277C338.826 181.104 338.785 180.935 338.71 180.78Z" fill="white"/>
<path opacity="0.08" d="M324.938 159.435C325.271 159.71 325.689 159.86 326.121 159.86C326.552 159.86 326.97 159.71 327.304 159.435L327.181 158.697L326.121 158.853L325.056 158.697L324.938 159.435Z" fill="black"/>
<path opacity="0.08" d="M320.906 166.915C320.603 167.661 320.865 169.297 320.231 171.655C320.726 170.015 321.414 167.313 321.414 167.313C321.414 167.313 321.209 166.169 320.906 166.915Z" fill="black"/>
<path opacity="0.08" d="M331.348 166.914C330.996 166.472 330.848 167.325 330.848 167.325C330.848 167.325 331.356 169.33 331.814 170.925C331.814 170.868 331.782 170.806 331.761 170.74C331.225 168.998 331.7 167.361 331.348 166.914Z" fill="black"/>
<path d="M329.097 156.294C329.058 156.199 328.989 156.119 328.9 156.067C328.811 156.016 328.707 155.996 328.606 156.011C328.638 155.543 328.675 155.047 328.687 154.842C328.782 153.468 327.644 152.357 326.142 152.349H326.121C324.619 152.349 323.481 153.468 323.575 154.842C323.575 155.047 323.624 155.543 323.657 156.011C323.556 155.996 323.452 156.016 323.363 156.067C323.274 156.119 323.204 156.199 323.166 156.294C322.896 156.778 323.268 157.848 323.894 157.745C324.051 158.222 324.347 158.64 324.744 158.945C325.142 159.25 325.621 159.428 326.121 159.455H326.142C326.642 159.428 327.122 159.25 327.52 158.945C327.918 158.64 328.215 158.222 328.372 157.745C328.994 157.844 329.371 156.782 329.097 156.294Z" fill="white"/>
<path d="M243.816 152.349L242.363 150.894L241.511 151.808L243.73 154.031L248.768 149.417L247.913 148.544L243.816 152.349Z" fill="#FFBB00"/>
<path d="M243.816 166.559L242.363 165.103L241.511 166.021V166.017L243.73 168.244L248.768 163.627L247.913 162.753L243.816 166.559Z" fill="#FFBB00"/>
<path d="M243.816 179.476L242.363 178.02L241.511 178.939L243.73 181.161L248.768 176.544L247.913 175.67L243.816 179.476Z" fill="#FFBB00"/>
<path d="M243.816 191.962L242.363 190.51L241.511 191.425L243.73 193.647L248.768 189.03L247.913 188.156L243.816 191.962Z" fill="#FFBB00"/>
<path opacity="0.1" d="M233.297 230.041H352.349" stroke="black" stroke-width="1.05" stroke-miterlimit="10"/>
<path opacity="0.2" d="M337.736 239.349H295.185V240.542H337.736V239.349Z" fill="black"/>
<path opacity="0.2" d="M337.736 245.898H295.185V247.091H337.736V245.898Z" fill="black"/>
<path opacity="0.2" d="M337.736 252.451H295.185V253.644H337.736V252.451Z" fill="black"/>
<path opacity="0.2" d="M326.562 260.193H295.185V259H326.992L326.562 260.193Z" fill="black"/>
<path opacity="0.2" d="M324.413 266.742H295.185V265.548H324.843L324.413 266.742Z" fill="black"/>
<path opacity="0.2" d="M321.835 273.291H295.185V272.102H322.265L321.835 273.291Z" fill="black"/>
<path d="M291.536 241.022C292.13 241.022 292.612 240.539 292.612 239.944C292.612 239.348 292.13 238.865 291.536 238.865C290.941 238.865 290.459 239.348 290.459 239.944C290.459 240.539 290.941 241.022 291.536 241.022Z" fill="#FFBB00"/>
<path d="M291.536 247.575C292.13 247.575 292.612 247.092 292.612 246.497C292.612 245.901 292.13 245.418 291.536 245.418C290.941 245.418 290.459 245.901 290.459 246.497C290.459 247.092 290.941 247.575 291.536 247.575Z" fill="#FFBB00"/>
<path d="M291.536 254.123C292.13 254.123 292.612 253.641 292.612 253.045C292.612 252.45 292.13 251.966 291.536 251.966C290.941 251.966 290.459 252.45 290.459 253.045C290.459 253.641 290.941 254.123 291.536 254.123Z" fill="#FFBB00"/>
<path d="M291.536 260.673C292.13 260.673 292.612 260.19 292.612 259.594C292.612 258.998 292.13 258.516 291.536 258.516C290.941 258.516 290.459 258.998 290.459 259.594C290.459 260.19 290.941 260.673 291.536 260.673Z" fill="#FFBB00"/>
<path d="M291.536 267.225C292.13 267.225 292.612 266.743 292.612 266.147C292.612 265.552 292.13 265.068 291.536 265.068C290.941 265.068 290.459 265.552 290.459 266.147C290.459 266.743 290.941 267.225 291.536 267.225Z" fill="#FFBB00"/>
<path d="M291.536 273.774C292.13 273.774 292.612 273.291 292.612 272.695C292.612 272.1 292.13 271.617 291.536 271.617C290.941 271.617 290.459 272.1 290.459 272.695C290.459 273.291 290.941 273.774 291.536 273.774Z" fill="#FFBB00"/>
<path d="M260.329 255.419L273.869 265.261C272.346 267.432 270.316 269.197 267.956 270.401C265.596 271.605 262.978 272.213 260.329 272.171V255.419Z" fill="#DADDDF"/>
<path d="M260.329 255.42L265.503 239.476C269.721 240.852 273.221 243.851 275.233 247.812C277.245 251.773 277.604 256.373 276.23 260.599C275.703 262.278 274.901 263.858 273.856 265.274L260.329 255.42Z" fill="#B2B6BB"/>
<path d="M260.33 255.42V272.183C255.937 272.114 251.747 270.318 248.665 267.181C245.583 264.044 243.855 259.819 243.855 255.418C243.855 251.016 245.583 246.791 248.665 243.654C251.747 240.517 255.937 238.721 260.33 238.652C262.087 238.636 263.836 238.914 265.503 239.472L260.33 255.42Z" fill="#FFBB00"/>
<path d="M268.211 256.723C268.922 252.367 265.974 248.258 261.626 247.546C257.278 246.833 253.177 249.787 252.465 254.143C251.754 258.499 254.703 262.608 259.05 263.32C263.398 264.033 267.499 261.079 268.211 256.723Z" fill="white"/>
<path opacity="0.2" d="M264.43 254.128H255.827V256.782H264.43V254.128Z" fill="black"/>
<path d="M486.058 357.863H45.5795C45.4374 357.85 45.3052 357.785 45.209 357.682C45.1125 357.576 45.0588 357.436 45.0588 357.293C45.0588 357.153 45.1125 357.014 45.209 356.907C45.3052 356.805 45.4374 356.739 45.5795 356.727H486.058C486.201 356.739 486.332 356.805 486.431 356.907C486.525 357.014 486.578 357.153 486.578 357.293C486.578 357.436 486.525 357.576 486.431 357.682C486.332 357.785 486.201 357.85 486.058 357.863Z" fill="#B2B6BB"/>
<path d="M194.343 113.488C194.818 114.681 195.256 115.911 195.731 117.178C197.159 121.312 193.152 122.025 193.152 122.025C193.152 122.025 194.54 124.847 192.6 127.192C192.073 127.863 191.344 128.345 190.522 128.566C189.699 128.788 188.828 128.738 188.036 128.422C188.036 128.422 187.164 129.694 184.704 129.968C181.176 130.329 179.793 128.976 179.793 128.976L176.06 128.488C175.585 128.767 175.266 130.633 171.377 131.231C167.808 131.769 165.905 129.718 165.905 129.718C165.033 131.625 160.584 131.465 159.958 128.525C159.36 125.782 160.592 124.592 160.752 124.473C158.53 126.179 154.486 121.927 158.411 117.556C159.995 115.768 160.867 114.935 161.464 114.062C159.639 114.579 157.617 112.512 158.37 110.564C159.324 108.104 161.346 108.973 163.089 105.438C165.43 100.71 167.293 99.0412 167.411 98.9632C170.547 95.7442 175.344 94.1122 180.619 94.2352C185.142 94.3131 187.799 96.06 189.423 97.8889C190.711 99.4012 191.483 101.286 191.625 103.269L192.575 106.5C193.324 107.841 194.339 109.285 195.416 109.81C195.839 110.002 196.179 110.341 196.373 110.765C196.567 111.188 196.602 111.667 196.471 112.114C196.341 112.561 196.054 112.947 195.663 113.199C195.272 113.451 194.804 113.554 194.343 113.488Z" fill="black"/>
<path d="M167.029 336.458C167.418 337.666 167.571 338.939 167.48 340.206L167.521 350.765C167.471 352.605 166.953 354.402 166.014 355.985L165.81 356.349C165.547 356.809 165.169 357.19 164.711 357.457C164.254 357.719 163.735 357.858 163.207 357.858H160.194C159.521 357.863 158.867 357.637 158.336 357.223C157.805 356.809 157.427 356.231 157.264 355.574C156.866 354.016 156.81 352.389 157.1 350.806L159.666 339.472C159.834 338.414 160.149 337.385 160.603 336.417H167.029V336.458Z" fill="#FFBB00"/>
<path d="M207.117 311.627L208.987 331.806C209.11 334.173 209.72 335.641 210.412 336.617L217.738 351.539L215.692 354.352L207.718 350.358L200.638 337.515C200.638 335.313 200.433 334.009 200.028 331.072L196.528 309.302L207.117 311.627Z" fill="#FC9D9D"/>
<path opacity="0.15" d="M202.345 335.518V335.928C202.345 337.256 202.803 338.544 203.643 339.573L210.297 347.738C211.217 348.844 212.35 349.754 213.629 350.411C214.907 351.069 216.305 351.461 217.739 351.563L212.172 352.794L200.605 337.572V335.973L202.345 335.518Z" fill="black"/>
<path d="M158.489 134.872L170.858 130.636L190.999 130.841C197.487 133.712 205.493 133.995 205.284 143.193L203.237 146.699L205.19 153.346C207.203 160.28 202.046 161.473 200.515 167.206C198.141 174.374 198.035 187.775 198.469 196.153L160.404 196.071C158.652 196.071 157.879 194.197 158.734 192.647C165.447 184.503 159.77 150.939 159.303 151.96L151.33 143.111C151.121 138.506 154.134 135.893 158.489 134.872Z" fill="#FFBB00"/>
<path d="M221.93 354.11L217.739 351.564C216.249 351.806 214.723 351.655 213.31 351.125C211.897 350.596 210.646 349.707 209.68 348.546L200.605 337.54C198.981 341.052 198.402 344.959 198.936 348.792L200.241 357.924H201.297L201.584 348.546C201.589 348.398 201.639 348.255 201.727 348.136C201.816 348.016 201.938 347.927 202.079 347.878C202.221 347.824 202.378 347.817 202.525 347.858C202.672 347.898 202.802 347.984 202.898 348.103L208.431 354.869C209.213 355.82 210.195 356.587 211.306 357.116C212.417 357.645 213.631 357.924 214.861 357.928H223.489C223.644 357.932 223.798 357.895 223.936 357.822C224.072 357.748 224.189 357.645 224.275 357.514C224.36 357.383 224.411 357.231 224.423 357.075C224.434 356.919 224.406 356.764 224.341 356.624C223.901 355.501 223.034 354.594 221.93 354.11Z" fill="#FFBB00"/>
<path d="M167.48 331.684C167.024 335.486 166.834 339.314 166.911 343.142L166.993 347.71C166.955 348.67 166.549 349.58 165.858 350.248C165.169 350.916 164.248 351.292 163.288 351.298H162.638C161.835 351.303 161.054 351.045 160.411 350.564C159.768 350.083 159.3 349.404 159.077 348.632C158.931 348.121 158.896 347.584 158.974 347.058L160.03 341.632C160.567 338.881 160.759 336.074 160.603 333.275L159.58 314.847L169.064 315.011L167.48 331.684Z" fill="#FC9D9D"/>
<path opacity="0.15" d="M159.519 323.003C159.519 323.003 160.661 334.825 160.747 336.416V336.457C160.866 338.696 158.676 347.709 158.676 347.709C158.71 348.643 159.093 349.53 159.748 350.195C160.404 350.859 161.285 351.253 162.217 351.297C160.469 349.948 160.633 347.75 160.579 346.118L162.446 326.099C162.442 325.782 162.551 325.473 162.753 325.229C162.954 324.983 163.235 324.815 163.547 324.754L167.767 323.979L167.808 323.044L159.519 323.003Z" fill="black"/>
<path opacity="0.3" d="M161.919 197.379L158.988 197.85L158.894 198.285C155.234 215.849 153.88 233.817 154.866 251.733L159.545 335.776L163.265 335.809H161.976L159.09 260.332C159.09 260.332 156.356 227.006 161.919 197.379Z" fill="black"/>
<path d="M202.64 195.816L203.982 212.079L205.21 225.698C205.865 232.956 206.27 240.214 206.475 247.509L209.639 335.899H199.283L181.479 219.296C181.431 219.011 181.306 218.744 181.12 218.523C180.933 218.302 180.69 218.135 180.416 218.04C180.143 217.946 179.85 217.926 179.566 217.984C179.283 218.042 179.02 218.175 178.806 218.37C178.51 218.642 178.331 219.018 178.307 219.419L168.946 335.878L159.532 335.796L154.866 251.749C153.88 233.834 155.234 215.865 158.894 198.301L159.422 195.816H202.64Z" fill="#21252B"/>
<path opacity="0.6" d="M170.804 133.892L167.001 131.69L170.124 130.796L188.096 130.71L192.734 131.26L189.12 133.974C186.819 135.352 182.436 136.525 179.755 136.513C177.074 136.5 173.087 135.282 170.8 133.892H170.804Z" fill="black"/>
<path d="M192.047 130.612L187.414 129.718C186.962 129.579 186.562 129.311 186.26 128.946C185.96 128.582 185.771 128.137 185.719 127.667L183.366 110.826L172.79 113.963L173.101 127.524C173.12 128.044 172.986 128.558 172.716 129.003C172.446 129.448 172.052 129.803 171.582 130.025L168.124 131.075C168.124 131.075 169.077 131.776 170.579 132.642C173.26 134.227 176.296 135.112 179.407 135.214C182.518 135.317 185.605 134.634 188.384 133.228C189.731 132.549 190.967 131.666 192.047 130.612Z" fill="#FC9D9D"/>
<path d="M219.097 160.944L241.031 152.071L244.642 156.581L222.74 170.216" fill="#FC9D9D"/>
<path d="M237.667 154.851C237.667 154.851 240.393 149.45 241.294 148.761L247.122 145.3C247.122 145.3 247.675 145.473 247.065 146.567C246.643 147.258 246.012 147.795 245.264 148.101L244.405 149.446L245.813 149.348L249.815 147.334C249.815 147.334 252.382 145.911 252.705 146.412C253.282 147.289 252.116 147.687 250.888 148.339L248.101 149.811C248.101 149.811 247.638 150.098 248.665 149.934C249.693 149.77 253.045 147.835 253.577 147.666C254.109 147.498 255.214 146.715 255.648 147.375C256.082 148.035 254.42 148.757 254.42 148.757L249.508 151.677C249.508 151.677 251.747 150.857 252.14 150.709C252.533 150.562 253.638 149.979 254.334 149.762C255.03 149.545 255.562 149.643 255.73 149.942C255.824 150.078 255.864 150.245 255.84 150.408C255.817 150.572 255.732 150.721 255.603 150.824L251.101 152.915C251.101 152.915 248.972 153.781 248.886 153.899C248.8 154.018 250.139 154.002 250.139 154.002L251.756 153.518C251.756 153.518 253.823 152.542 254.244 152.973C254.666 153.403 254.322 153.703 254.322 153.703L250.524 155.454L245.796 156.893L242.006 157.713C241.481 158.088 240.934 158.432 240.369 158.742C240.213 158.759 237.667 154.851 237.667 154.851Z" fill="#FC9D9D"/>
<g opacity="0.2">
<path opacity="0.2" d="M242.369 154.011C242.349 154.01 242.33 154.005 242.312 153.996C242.294 153.987 242.279 153.974 242.267 153.957C242.256 153.944 242.249 153.929 242.245 153.912C242.24 153.896 242.239 153.879 242.241 153.862C242.244 153.845 242.249 153.829 242.258 153.814C242.266 153.799 242.278 153.787 242.292 153.777C243.884 152.579 244.252 150.086 244.256 150.086C244.258 150.069 244.264 150.053 244.272 150.038C244.281 150.023 244.292 150.01 244.306 150C244.32 149.99 244.336 149.983 244.353 149.98C244.37 149.976 244.387 149.976 244.404 149.98C244.42 149.982 244.436 149.987 244.451 149.995C244.465 150.004 244.478 150.015 244.488 150.028C244.497 150.042 244.505 150.057 244.508 150.074C244.513 150.09 244.513 150.107 244.51 150.123C244.51 150.23 244.125 152.731 242.464 153.994C242.45 154.004 242.435 154.01 242.418 154.013C242.402 154.015 242.385 154.015 242.369 154.011Z" fill="black"/>
</g>
<path d="M241.441 159.357L217.124 173.677C216.197 174.259 215.147 174.618 214.057 174.724C212.967 174.83 211.868 174.681 210.846 174.288H210.801C209.352 173.693 208.103 172.698 207.199 171.417L197.646 158.033L203.585 137.14L214.636 162.154L238.035 152.513L241.441 159.357Z" fill="white"/>
<path opacity="0.15" d="M214.631 162.158L213.554 162.568C213.524 162.58 213.49 162.582 213.458 162.576C213.426 162.569 213.396 162.553 213.372 162.531C213.349 162.508 213.332 162.48 213.323 162.448C213.315 162.416 213.316 162.382 213.325 162.351L213.923 160.534L214.631 162.158Z" fill="black"/>
<path d="M153.359 234.117H174.004L177.049 188.267L178.498 158.898L170.857 129.783L168.213 131.182L158.488 133.166C154.133 134.188 151.12 138.497 151.366 143.115L159.339 151.964C159.781 150.996 162.589 175.723 159.016 190.281C158.308 193.151 157.653 196.021 157.145 198.949C155.152 210.581 153.887 222.326 153.359 234.117Z" fill="white"/>
<path d="M206.458 234.117H190.307L188.154 194.828L187.298 158.377L190.982 130.841C198.165 132.535 205.475 133.995 205.267 143.193L203.22 146.699L205.172 153.346C207.186 160.28 202.884 161.473 201.35 167.206C198.98 174.374 202.287 187.775 202.741 196.153C202.758 196.149 205.61 220.363 206.458 234.117Z" fill="white"/>
<path d="M184.491 182.982L189.05 182.088L190.069 183.105L188.886 184.532L184.491 182.982Z" fill="#FC9D9D"/>
<path opacity="0.2" d="M185.777 189.957L179.428 188.608L159.524 187.152L159.221 189.285C159.221 189.285 168.484 190.146 174.136 190.466C180.861 190.576 181.258 190.466 185.13 191.003L185.818 189.957H185.777Z" fill="black"/>
<path opacity="0.15" d="M241.44 159.357L217.116 173.783H217.157C208.971 177.4 207.579 170.589 202.614 164.257C202.733 164.093 202.79 163.917 202.909 163.757C208.639 157.856 202.692 150.135 201.681 143.356C202.205 141.564 203.429 148.138 203.56 147.998C203.769 150.491 207.907 154.088 207.542 160.399C207.471 161.223 207.318 162.037 207.084 162.83C206.331 165.701 208.209 168.862 210.649 170.716C211.614 171.44 212.773 171.861 213.978 171.925C215.182 171.988 216.379 171.692 217.415 171.073C218.589 170.38 238.743 158.303 240.581 157.221L241.44 159.357Z" fill="black"/>
<path opacity="0.25" d="M184.491 182.982L189.05 182.088L190.069 183.105L188.886 184.532L184.491 182.982Z" fill="black"/>
<path opacity="0.15" d="M196.373 189.588L190.307 187.185" stroke="black" stroke-width="1.17" stroke-miterlimit="10" stroke-linecap="round"/>
<path opacity="0.15" d="M189.25 189.141L194.98 190.691" stroke="black" stroke-width="1.17" stroke-miterlimit="10" stroke-linecap="round"/>
<path opacity="0.15" d="M195.394 191.384C195.382 191.46 195.352 191.533 195.308 191.597C195.266 191.66 195.212 191.714 195.149 191.757C195.083 191.799 195.009 191.827 194.932 191.839C194.856 191.853 194.778 191.853 194.703 191.839L179.485 188.62L178.425 188.538L178.957 187.193L195.394 191.384Z" fill="black"/>
<path d="M179.28 198.068L193.278 173.874C193.439 173.612 193.684 173.413 193.972 173.309C194.261 173.205 194.576 173.201 194.866 173.3L214.603 179.988C214.78 180.042 214.942 180.136 215.077 180.263C215.213 180.389 215.318 180.545 215.384 180.718C215.449 180.89 215.476 181.075 215.462 181.259C215.446 181.443 215.389 181.621 215.294 181.78L202.111 204.744C201.959 204.995 201.731 205.19 201.46 205.301C201.189 205.413 200.888 205.432 200.605 205.355L180.046 199.905C179.862 199.851 179.693 199.758 179.55 199.63C179.41 199.503 179.298 199.346 179.223 199.171C179.15 198.994 179.116 198.804 179.125 198.613C179.132 198.423 179.183 198.236 179.272 198.068H179.28Z" fill="#61656D"/>
<path opacity="0.3" d="M179.28 198.068L193.278 173.874C193.439 173.612 193.684 173.413 193.972 173.309C194.261 173.205 194.576 173.201 194.866 173.3L214.603 179.988C214.78 180.042 214.942 180.136 215.077 180.263C215.213 180.389 215.318 180.545 215.384 180.718C215.449 180.89 215.476 181.075 215.462 181.259C215.446 181.443 215.389 181.621 215.294 181.78L202.111 204.744C201.959 204.995 201.731 205.19 201.46 205.301C201.189 205.413 200.888 205.432 200.605 205.355L180.046 199.905C179.862 199.851 179.693 199.758 179.55 199.63C179.41 199.503 179.298 199.346 179.223 199.171C179.15 198.994 179.116 198.804 179.125 198.613C179.132 198.423 179.183 198.236 179.272 198.068H179.28Z" fill="black"/>
<path d="M211.206 177.253L201.1 173.841C201.056 173.823 201.006 173.82 200.96 173.832C200.913 173.845 200.872 173.873 200.842 173.911L199.905 175.354C199.89 175.381 199.882 175.412 199.881 175.442C199.88 175.473 199.886 175.504 199.899 175.532C199.911 175.56 199.931 175.585 199.954 175.605C199.978 175.624 200.006 175.638 200.036 175.645L210.142 179.061C210.186 179.079 210.235 179.082 210.281 179.069C210.328 179.055 210.368 179.027 210.396 178.987L211.337 177.544C211.351 177.516 211.358 177.486 211.359 177.456C211.359 177.425 211.353 177.395 211.341 177.367C211.328 177.339 211.309 177.314 211.286 177.295C211.263 177.275 211.235 177.261 211.206 177.253Z" fill="#868A91"/>
<path d="M179.972 198.272L193.962 174.054C194.124 173.793 194.369 173.596 194.657 173.492C194.945 173.389 195.26 173.386 195.55 173.484L215.295 180.156C215.472 180.209 215.635 180.304 215.77 180.43C215.972 180.621 216.103 180.875 216.143 181.151C216.182 181.427 216.127 181.707 215.987 181.948L202.803 204.911C202.652 205.163 202.424 205.359 202.152 205.469C201.88 205.579 201.58 205.598 201.297 205.522L180.746 200.097C180.561 200.046 180.39 199.954 180.247 199.826C180.107 199.698 179.999 199.54 179.928 199.364C179.857 199.188 179.826 198.999 179.837 198.81C179.842 198.623 179.888 198.439 179.972 198.272Z" fill="#61656D"/>
<path d="M179.637 182.78L181.47 183.022C181.603 183.059 181.742 183.073 181.88 183.063L188.637 182.94C189.345 182.944 190.047 183.069 190.712 183.309L198.489 186.18C198.647 186.241 198.779 186.355 198.861 186.504C198.942 186.654 198.969 186.829 198.935 186.996C198.882 187.17 198.765 187.317 198.608 187.406C198.447 187.497 198.258 187.522 198.08 187.476L190.635 185.52L197.715 189.391C197.8 189.434 197.875 189.494 197.936 189.567C197.997 189.641 198.043 189.726 198.071 189.817C198.099 189.909 198.105 190.005 198.092 190.1C198.08 190.196 198.048 190.288 197.998 190.371C197.906 190.533 197.762 190.659 197.589 190.727C197.415 190.791 197.225 190.791 197.052 190.727L189.849 187.857L196.361 190.428C196.539 190.49 196.686 190.62 196.77 190.789C196.808 190.873 196.829 190.964 196.831 191.056C196.835 191.147 196.82 191.238 196.786 191.322C196.724 191.498 196.598 191.644 196.434 191.732C196.268 191.822 196.074 191.847 195.89 191.802L189.259 190.006L194.957 191.556C195.03 191.573 195.098 191.606 195.158 191.651C195.218 191.696 195.268 191.753 195.305 191.818C195.345 191.881 195.371 191.953 195.378 192.027C195.393 192.101 195.393 192.176 195.378 192.249C195.365 192.325 195.336 192.398 195.293 192.462C195.25 192.526 195.194 192.581 195.129 192.622C195.066 192.668 194.993 192.697 194.916 192.708C194.84 192.722 194.762 192.722 194.687 192.708L179.469 189.485L178.409 189.403L179.637 182.78Z" fill="#FC9D9D"/>
<g opacity="0.15">
<path opacity="0.15" d="M196.374 190.682C196.344 190.688 196.313 190.688 196.284 190.682L190.222 188.279C190.189 188.27 190.158 188.255 190.132 188.233C190.105 188.212 190.083 188.185 190.068 188.154C190.053 188.124 190.044 188.09 190.042 188.056C190.041 188.022 190.046 187.988 190.059 187.956C190.071 187.924 190.09 187.896 190.115 187.872C190.139 187.848 190.168 187.83 190.2 187.818C190.233 187.806 190.267 187.801 190.301 187.804C190.335 187.806 190.368 187.816 190.398 187.832L196.46 190.235C196.51 190.257 196.551 190.295 196.576 190.343C196.602 190.392 196.61 190.447 196.6 190.501C196.59 190.554 196.562 190.603 196.521 190.639C196.48 190.675 196.428 190.696 196.374 190.698V190.682Z" fill="black"/>
</g>
<g opacity="0.15">
<path opacity="0.15" d="M194.989 191.785H194.923L189.193 190.235C189.139 190.213 189.094 190.171 189.067 190.118C189.041 190.065 189.035 190.005 189.051 189.947C189.067 189.89 189.103 189.841 189.152 189.809C189.202 189.776 189.261 189.763 189.32 189.772L195.05 191.322C195.104 191.34 195.15 191.375 195.179 191.423C195.21 191.471 195.222 191.528 195.215 191.583C195.208 191.64 195.181 191.691 195.14 191.729C195.098 191.768 195.045 191.79 194.989 191.794V191.785Z" fill="black"/>
</g>
<path opacity="0.15" d="M178.629 188.144L179.816 188.259L195.394 192.237C195.382 192.314 195.353 192.386 195.308 192.45C195.267 192.514 195.212 192.568 195.148 192.61C195.084 192.654 195.009 192.684 194.931 192.696C194.856 192.71 194.778 192.71 194.702 192.696L179.484 189.473L178.404 189.399" fill="black"/>
<path opacity="0.2" d="M185.092 123.599C183.901 124.296 182.8 124.829 181.409 124.829C181.109 124.829 180.809 124.806 180.512 124.764L180.168 124.719H180.099C179.931 124.661 179.755 124.678 179.554 124.612C179.485 124.612 179.419 124.559 179.35 124.551C178.427 124.316 177.562 123.898 176.804 123.32C176.782 123.299 176.756 123.282 176.727 123.272C176.698 123.263 176.667 123.259 176.636 123.263C176.606 123.267 176.577 123.278 176.551 123.295C176.526 123.312 176.504 123.335 176.489 123.361C176.45 123.415 176.431 123.481 176.437 123.547C176.442 123.614 176.471 123.675 176.517 123.722C177.5 124.458 178.634 124.965 179.837 125.207C180.863 126.224 182.21 126.855 183.647 126.99C184.291 127.02 184.935 126.981 185.571 126.876L185.092 123.599Z" fill="black"/>
<path d="M182.719 124.641L182.097 124.719C180.995 124.817 179.885 124.697 178.83 124.364C177.775 124.032 176.796 123.494 175.949 122.782C175.102 122.069 174.404 121.196 173.895 120.212C173.385 119.229 173.075 118.154 172.981 117.05L171.86 105.113C171.82 104.743 171.854 104.37 171.96 104.013C172.065 103.657 172.241 103.325 172.475 103.036C172.71 102.748 172.999 102.509 173.326 102.334C173.653 102.158 174.012 102.049 174.381 102.013L185.285 100.902C186.25 100.826 187.207 101.133 187.948 101.758C188.688 102.382 189.153 103.274 189.243 104.24L190.278 115.365C190.635 119.991 187.299 124.202 182.719 124.641Z" fill="#FC9D9D"/>
<path d="M172.961 152.842C174.545 160.752 174.12 162.634 173.42 163.504C172.896 164.099 172.242 164.567 171.508 164.869L171.304 164.344L171.406 164.607L171.304 164.344C171.944 164.073 172.517 163.664 172.982 163.147C173.485 162.528 173.977 160.797 172.405 152.965L172.961 152.842Z" fill="#B2B6BB"/>
<path d="M170.355 164.884L170.521 165.232C170.619 165.436 170.863 165.523 171.067 165.425L172.094 164.933C172.298 164.836 172.384 164.591 172.286 164.387L172.12 164.039C172.023 163.835 171.779 163.748 171.575 163.846L170.548 164.337C170.344 164.435 170.258 164.68 170.355 164.884Z" fill="#FFBB00"/>
<path d="M167.873 152.73C165.987 158.508 165.418 161.703 166.101 162.773C166.501 163.344 167.023 163.818 167.628 164.163L167.362 164.663C166.671 164.274 166.077 163.731 165.626 163.076C164.808 161.801 165.311 158.75 167.337 152.554L167.873 152.73Z" fill="#B2B6BB"/>
<path d="M166.863 163.774L166.657 164.1C166.536 164.291 166.593 164.544 166.784 164.666L167.745 165.276C167.936 165.397 168.189 165.34 168.31 165.148L168.516 164.823C168.637 164.632 168.58 164.378 168.389 164.257L167.428 163.647C167.237 163.526 166.984 163.583 166.863 163.774Z" fill="#FFBB00"/>
<path d="M167.157 152.3C167.49 151.016 167.9 149.754 168.385 148.519C168.667 147.976 169.091 147.519 169.613 147.199C169.723 147.199 169.731 146.202 169.723 145.391C169.723 144.677 169.686 143.845 169.87 143.623C169.974 143.521 170.114 143.464 170.259 143.464C170.405 143.464 170.544 143.521 170.648 143.623C170.832 143.845 170.791 144.677 170.775 145.391C170.755 146.211 170.75 147.195 170.865 147.199C171.344 147.552 171.73 148.017 171.991 148.552C172.464 149.826 172.839 151.134 173.112 152.464C173.243 153.309 172.965 153.399 172.703 153.465C172.359 153.559 172.158 153.317 171.946 152.378C171.614 150.89 171.229 148.396 170.21 148.343C169.195 148.388 168.634 150.972 168.221 152.407C167.967 153.305 167.771 153.383 167.427 153.28C167.194 153.215 166.948 153.092 167.157 152.3Z" fill="#FFBB00"/>
<path d="M170.367 140.72L170.031 143.443L170.575 143.51L170.911 140.788L170.367 140.72Z" fill="#3F4249"/>
<path d="M181.334 114.057C181.515 114.057 181.692 114.004 181.842 113.903C181.992 113.803 182.109 113.66 182.178 113.493C182.247 113.326 182.265 113.142 182.23 112.965C182.194 112.787 182.108 112.624 181.98 112.496C181.852 112.368 181.69 112.281 181.513 112.246C181.336 112.21 181.152 112.229 180.985 112.298C180.819 112.367 180.676 112.484 180.576 112.635C180.475 112.785 180.422 112.962 180.422 113.143C180.42 113.263 180.442 113.383 180.487 113.495C180.532 113.607 180.599 113.709 180.684 113.795C180.77 113.88 180.871 113.947 180.983 113.992C181.095 114.037 181.214 114.059 181.334 114.057Z" fill="black"/>
<path d="M181.732 113.656C181.758 113.657 181.785 113.653 181.809 113.644C181.834 113.635 181.856 113.62 181.875 113.602C181.894 113.583 181.908 113.561 181.917 113.536C181.926 113.511 181.93 113.485 181.928 113.459C181.928 113.404 181.907 113.352 181.869 113.314C181.83 113.275 181.778 113.254 181.724 113.254C181.669 113.254 181.617 113.275 181.579 113.314C181.541 113.352 181.519 113.404 181.519 113.459C181.517 113.487 181.521 113.514 181.531 113.54C181.541 113.567 181.557 113.59 181.578 113.609C181.598 113.628 181.623 113.642 181.65 113.65C181.676 113.658 181.704 113.66 181.732 113.656Z" fill="white"/>
<path d="M188.515 113.701C188.695 113.701 188.872 113.647 189.022 113.547C189.172 113.446 189.289 113.303 189.358 113.136C189.427 112.969 189.445 112.785 189.41 112.608C189.375 112.431 189.288 112.267 189.16 112.14C189.033 112.012 188.87 111.925 188.693 111.889C188.516 111.854 188.332 111.872 188.166 111.941C187.999 112.011 187.856 112.128 187.756 112.279C187.656 112.429 187.602 112.605 187.602 112.786C187.6 112.907 187.622 113.027 187.667 113.139C187.712 113.251 187.779 113.353 187.864 113.438C187.95 113.524 188.051 113.591 188.163 113.636C188.275 113.681 188.394 113.703 188.515 113.701Z" fill="black"/>
<path d="M188.871 113.221C188.897 113.222 188.924 113.218 188.948 113.208C188.973 113.198 188.995 113.184 189.014 113.164C189.033 113.145 189.047 113.123 189.056 113.098C189.065 113.073 189.069 113.047 189.067 113.02C189.069 112.994 189.065 112.967 189.056 112.942C189.047 112.918 189.033 112.895 189.014 112.877C188.995 112.858 188.973 112.844 188.948 112.834C188.923 112.825 188.897 112.821 188.871 112.823C188.844 112.821 188.818 112.825 188.793 112.834C188.768 112.844 188.746 112.858 188.726 112.876C188.708 112.895 188.693 112.917 188.683 112.942C188.674 112.967 188.669 112.993 188.67 113.02C188.711 113.139 188.789 113.221 188.871 113.221Z" fill="white"/>
<path opacity="0.15" d="M161.456 154.462L158.947 149.832L158.771 151.325C159.127 151.735 159.34 151.96 159.34 151.96C159.782 150.992 162.59 175.719 159.017 190.281C158.309 193.151 157.65 196.051 157.142 198.97C155.152 210.595 153.889 222.334 153.36 234.117H157.126C157.261 222.902 158.763 209.136 159.7 201.619C160.044 198.851 160.457 196.096 160.985 193.361C163.19 181.967 163.788 170.319 162.762 158.759C162.616 157.254 162.172 155.793 161.456 154.462Z" fill="black"/>
<path opacity="0.2" d="M184.957 116.813L183.729 117.014C183.664 117.022 183.598 117.005 183.544 116.968C183.49 116.93 183.452 116.873 183.437 116.809C183.423 116.745 183.432 116.677 183.464 116.62C183.496 116.562 183.548 116.519 183.611 116.497L184.838 116.296C184.985 116.273 185.116 116.194 185.206 116.075C185.295 115.957 185.335 115.808 185.317 115.661C185.288 115.514 185.209 115.381 185.093 115.287C184.978 115.193 184.832 115.142 184.683 115.144C184.647 115.156 184.61 115.16 184.573 115.157C184.536 115.154 184.5 115.143 184.467 115.125C184.435 115.107 184.406 115.082 184.384 115.052C184.362 115.022 184.346 114.988 184.337 114.952C184.329 114.915 184.328 114.877 184.335 114.841C184.342 114.804 184.357 114.769 184.378 114.739C184.4 114.708 184.428 114.683 184.459 114.663C184.491 114.644 184.527 114.632 184.564 114.627C184.847 114.587 185.136 114.661 185.365 114.832C185.595 115.003 185.748 115.258 185.792 115.542C185.841 115.681 185.857 115.829 185.839 115.975C185.822 116.122 185.77 116.262 185.689 116.385C185.608 116.508 185.5 116.611 185.373 116.685C185.246 116.759 185.104 116.803 184.957 116.813Z" fill="black"/>
<path d="M178.708 189.718L144.495 186.438C140.996 186.237 138.511 182.444 139.813 178.938L151.654 140.748L155.44 140.494C158.534 145.628 159.074 149.105 160.2 155.699L160.486 158.065L153.451 176.108L180.841 182.452L178.708 189.718Z" fill="white"/>
<path d="M173.641 117.49C173.641 117.49 169.634 118.363 168.247 114.509C166.859 110.654 171.697 109.178 172.925 113.119L174.116 117.449L173.641 117.49Z" fill="#FC9D9D"/>
<path opacity="0.2" d="M169.199 112.203C169.346 112.047 169.525 111.923 169.723 111.841C169.921 111.759 170.135 111.72 170.349 111.728C170.564 111.745 170.772 111.811 170.957 111.922C171.142 112.032 171.3 112.183 171.418 112.363C171.769 112.799 172.002 113.319 172.093 113.872L172.171 114.311C172.212 114.627 171.696 114.787 171.655 114.43L171.536 113.991C171.471 113.544 171.293 113.121 171.021 112.761C170.846 112.523 170.594 112.353 170.308 112.281C170.071 112.244 169.834 112.4 169.514 112.642C169.454 112.683 169.383 112.704 169.31 112.704C169.237 112.704 169.166 112.683 169.105 112.642C169.076 112.441 169.076 112.281 169.199 112.203Z" fill="black"/>
<path d="M192.51 153.563C192.51 153.535 192.51 149.967 192.1 144.681L191.601 145.341C191.831 148.069 191.923 150.806 191.875 153.543L192.51 153.563Z" fill="#3F4249"/>
<path d="M194.634 154.732C194.694 155.202 194.613 155.68 194.403 156.105C194.191 156.53 193.859 156.882 193.449 157.118C193.038 157.353 192.566 157.462 192.094 157.429C191.622 157.397 191.169 157.225 190.795 156.934C190.42 156.644 190.14 156.25 189.989 155.8C189.838 155.35 189.824 154.866 189.948 154.408C190.072 153.95 190.328 153.54 190.685 153.228C191.042 152.916 191.483 152.718 191.953 152.657C192.265 152.616 192.582 152.637 192.886 152.72C193.19 152.802 193.475 152.944 193.723 153.136C193.973 153.329 194.182 153.569 194.337 153.843C194.494 154.117 194.594 154.419 194.634 154.732Z" fill="#FFBB00"/>
<path d="M193.688 154.847C193.728 155.13 193.683 155.419 193.558 155.677C193.434 155.934 193.236 156.149 192.989 156.293C192.743 156.438 192.459 156.506 192.174 156.489C191.889 156.472 191.616 156.37 191.388 156.197C191.161 156.023 190.991 155.786 190.898 155.515C190.806 155.245 190.795 154.952 190.869 154.676C190.943 154.4 191.097 154.151 191.312 153.963C191.526 153.774 191.792 153.654 192.075 153.617C192.452 153.566 192.833 153.668 193.135 153.898C193.437 154.129 193.636 154.47 193.688 154.847Z" fill="white"/>
<path d="M172.371 116.973C172.529 116.968 172.681 116.916 172.809 116.824C172.937 116.731 173.035 116.603 173.09 116.455C173.145 116.307 173.154 116.146 173.117 115.992C173.081 115.838 172.999 115.699 172.883 115.592C172.767 115.485 172.622 115.416 172.466 115.391C172.31 115.368 172.151 115.391 172.008 115.458C171.865 115.525 171.746 115.633 171.664 115.769C171.583 115.904 171.544 116.061 171.553 116.218C171.564 116.426 171.656 116.621 171.809 116.762C171.962 116.903 172.163 116.979 172.371 116.973Z" fill="#FFBB00"/>
<path opacity="0.15" d="M172.728 116.891C172.614 116.91 172.496 116.904 172.383 116.876C172.27 116.848 172.164 116.797 172.072 116.726C171.979 116.656 171.902 116.567 171.844 116.466C171.787 116.364 171.751 116.252 171.738 116.137C171.741 115.975 171.767 115.815 171.815 115.661C171.72 115.753 171.646 115.864 171.598 115.987C171.55 116.11 171.529 116.243 171.537 116.375C171.549 116.481 171.583 116.583 171.635 116.676C171.689 116.769 171.76 116.849 171.846 116.913C171.932 116.976 172.03 117.021 172.133 117.045C172.237 117.069 172.345 117.071 172.45 117.051C172.533 117.052 172.615 117.035 172.691 117.001C172.766 116.967 172.833 116.917 172.888 116.854C172.847 116.813 172.769 116.854 172.728 116.891Z" fill="black"/>
<path d="M187.999 108.804C187.48 108.866 186.981 109.038 186.535 109.311C186.089 109.583 185.708 109.949 185.416 110.383C184.703 110.173 183.94 110.206 183.247 110.477C182.895 109.929 182.398 109.49 181.811 109.21C181.224 108.93 180.57 108.819 179.924 108.891C179.234 108.961 178.581 109.236 178.047 109.678C177.514 110.121 177.123 110.712 176.925 111.378C176.726 112.043 176.729 112.752 176.933 113.416C177.137 114.079 177.533 114.667 178.07 115.105C178.608 115.543 179.263 115.812 179.953 115.877C180.643 115.942 181.336 115.801 181.946 115.471C182.556 115.141 183.054 114.638 183.378 114.024C183.703 113.41 183.838 112.714 183.767 112.023C183.722 111.633 183.619 111.251 183.46 110.892C184.016 110.706 184.614 110.683 185.183 110.826C184.908 111.407 184.8 112.053 184.872 112.692C184.996 113.592 185.464 114.409 186.178 114.971C186.891 115.532 187.794 115.794 188.697 115.7C189.599 115.607 190.431 115.167 191.015 114.472C191.6 113.776 191.892 112.881 191.83 111.974C191.791 111.512 191.66 111.063 191.445 110.653C191.23 110.242 190.936 109.878 190.579 109.583C190.222 109.288 189.81 109.067 189.367 108.934C188.924 108.799 188.459 108.756 187.999 108.804ZM180.726 115.427C180.129 115.488 179.528 115.372 178.998 115.091C178.467 114.81 178.032 114.378 177.747 113.85C177.462 113.321 177.339 112.72 177.395 112.122C177.451 111.524 177.682 110.955 178.06 110.489C178.438 110.023 178.946 109.679 179.519 109.502C180.092 109.324 180.704 109.321 181.279 109.492C181.854 109.663 182.365 110.001 182.748 110.464C183.131 110.926 183.369 111.492 183.431 112.089C183.497 112.889 183.252 113.683 182.748 114.307C182.245 114.931 181.52 115.336 180.726 115.439V115.427ZM188.728 115.337C188.131 115.399 187.529 115.283 186.999 115.003C186.468 114.722 186.032 114.291 185.746 113.763C185.46 113.234 185.337 112.633 185.392 112.035C185.447 111.436 185.679 110.868 186.057 110.401C186.434 109.934 186.942 109.59 187.515 109.412C188.088 109.234 188.701 109.23 189.276 109.401C189.851 109.573 190.362 109.911 190.745 110.373C191.129 110.835 191.366 111.401 191.429 111.999C191.475 112.398 191.441 112.803 191.33 113.188C191.219 113.575 191.032 113.935 190.781 114.248C190.529 114.561 190.218 114.821 189.866 115.013C189.513 115.205 189.127 115.324 188.728 115.365V115.337Z" fill="white"/>
<path d="M176.574 101.911C176.574 101.911 176.136 109.424 172.649 112.442C172.649 112.442 172.33 110.457 169.633 110.736C169.633 110.736 169.395 110.256 168.998 108.033C168.601 105.811 170.03 96.4696 180.34 97.0642C180.34 97.0642 183.614 96.3876 188.194 100.324C192.774 104.261 190.057 108.55 190.057 108.55C190.057 108.55 182.403 107.517 176.574 101.911Z" fill="black"/>
<path opacity="0.15" d="M170.006 130.205L177.848 159.402L167.641 140.051L168.893 138.833H166.756L167.997 131.267L170.006 130.205Z" fill="black"/>
<path d="M170.858 129.779L178.278 158.972L168.496 140.051L170.174 138.407H167.612L168.852 130.841L170.858 129.779Z" fill="white"/>
<path opacity="0.15" d="M192.063 130.55L187.532 159.665L195.112 140.203L193.782 139.075L195.91 138.923L194.138 131.464L192.063 130.55Z" fill="black"/>
<path d="M191.179 130.186L187.392 159.145L194.261 140.261L192.472 138.74L195.026 138.559L193.258 131.1L191.179 130.186Z" fill="white"/>
<path opacity="0.15" d="M151.805 175.391L153.442 175.719L160.155 159.087L160.728 157.66C160.196 155.199 159.5 152.034 159.091 150.078C159.066 149.98 159.01 149.894 158.931 149.832C158.854 149.766 158.758 149.729 158.657 149.725C158.557 149.721 158.458 149.749 158.374 149.803C158.291 149.86 158.228 149.942 158.194 150.037L150.667 173.517C150.609 173.715 150.594 173.923 150.622 174.128C150.65 174.331 150.72 174.527 150.827 174.702C150.93 174.878 151.07 175.031 151.236 175.149C151.405 175.268 151.595 175.35 151.797 175.391H151.805Z" fill="black"/>
<path opacity="0.15" d="M144.191 184.257L179.055 188.591L178.834 189.822L145.197 186.615C143.611 186.48 142.123 185.791 140.994 184.667C140.341 184.031 139.867 183.234 139.621 182.355C139.375 181.476 139.366 180.548 139.594 179.664C139.594 179.664 139.868 183.306 144.191 184.257Z" fill="black"/>
<path d="M181.97 118.535C181.839 118.535 181.798 118.621 181.823 118.728C181.946 119.136 182.187 119.498 182.516 119.767C182.845 120.037 183.247 120.202 183.67 120.242C184.094 120.282 184.519 120.195 184.893 119.992C185.267 119.789 185.571 119.479 185.768 119.101C185.779 119.08 185.784 119.057 185.784 119.033C185.784 119.009 185.779 118.986 185.768 118.965C185.757 118.944 185.741 118.925 185.722 118.911C185.703 118.897 185.681 118.888 185.658 118.884L181.97 118.535Z" fill="white"/>
<path opacity="0.3" d="M179.891 217.951C180.273 217.946 180.644 218.079 180.936 218.326C181.228 218.573 181.421 218.918 181.479 219.296L199.283 335.899H203.119L186.902 220.752C186.071 216.18 179.891 217.951 179.891 217.951Z" fill="black"/>
<path d="M348.083 332.914C348.083 346.262 342.222 357.079 332.529 357.079C328.543 357.079 318.089 357.034 318.089 357.034C313.865 352.622 314.966 340.775 314.966 332.914C314.966 325.64 312.744 313.317 316.44 308.888C316.44 308.888 328.117 308.745 332.529 308.745C342.222 308.745 348.083 319.579 348.083 332.914Z" fill="#FFBB00"/>
<g opacity="0.3">
<path opacity="0.3" d="M348.083 332.914C348.083 346.262 342.222 357.079 332.529 357.079C328.543 357.079 318.089 357.034 318.089 357.034C313.865 352.622 314.966 340.775 314.966 332.914C314.966 325.64 312.744 313.317 316.44 308.888C316.44 308.888 328.117 308.745 332.529 308.745C342.222 308.745 348.083 319.579 348.083 332.914Z" fill="black"/>
</g>
<path d="M318.082 357.034C325.557 357.034 331.618 346.215 331.618 332.869C331.618 319.523 325.557 308.704 318.082 308.704C310.607 308.704 304.546 319.523 304.546 332.869C304.546 346.215 310.607 357.034 318.082 357.034Z" fill="#FFBB00"/>
<g opacity="0.5">
<path opacity="0.5" d="M318.082 351.232C323.763 351.232 328.368 343.011 328.368 332.869C328.368 322.728 323.763 314.507 318.082 314.507C312.402 314.507 307.797 322.728 307.797 332.869C307.797 343.011 312.402 351.232 318.082 351.232Z" stroke="black" stroke-width="1.63" stroke-miterlimit="10"/>
</g>
<path d="M317.407 326.89H276.591C274.625 326.89 273.03 328.487 273.03 330.458V335.866C273.03 337.837 274.625 339.434 276.591 339.434H317.407C319.373 339.434 320.968 337.837 320.968 335.866V330.458C320.968 328.487 319.373 326.89 317.407 326.89Z" fill="#3F4249"/>
<path d="M281.905 332.914C281.905 346.262 276.043 357.079 266.351 357.079C262.365 357.079 251.911 357.034 251.911 357.034C247.687 352.622 248.788 340.775 248.788 332.914C248.788 325.64 246.566 313.317 250.262 308.888C250.262 308.888 261.935 308.745 266.351 308.745C276.043 308.745 281.905 319.579 281.905 332.914Z" fill="#FFBB00"/>
<g opacity="0.3">
<path opacity="0.3" d="M281.905 332.914C281.905 346.262 276.043 357.079 266.351 357.079C262.365 357.079 251.911 357.034 251.911 357.034C247.687 352.622 248.788 340.775 248.788 332.914C248.788 325.64 246.566 313.317 250.262 308.888C250.262 308.888 261.935 308.745 266.351 308.745C276.043 308.745 281.905 319.579 281.905 332.914Z" fill="black"/>
</g>
<path d="M251.902 357.034C259.377 357.034 265.437 346.215 265.437 332.869C265.437 319.523 259.377 308.704 251.902 308.704C244.426 308.704 238.366 319.523 238.366 332.869C238.366 346.215 244.426 357.034 251.902 357.034Z" fill="#FFBB00"/>
<g opacity="0.5">
<path opacity="0.5" d="M251.903 351.232C257.583 351.232 262.188 343.011 262.188 332.869C262.188 322.728 257.583 314.507 251.903 314.507C246.222 314.507 241.617 322.728 241.617 332.869C241.617 343.011 246.222 351.232 251.903 351.232Z" stroke="black" stroke-width="1.63" stroke-miterlimit="10"/>
</g>
<path d="M438.269 267.697C439.541 266.847 440.589 265.695 441.31 264.343C442.03 262.991 442.407 261.48 442.407 259.947L442.37 238.935C442.37 236.842 441.932 234.772 441.084 232.859C440.241 230.945 439.005 229.229 437.458 227.822L426.337 217.706C425.724 217.146 425.232 216.465 424.897 215.705C424.561 214.946 424.389 214.124 424.389 213.293V207.331L397.785 207.36V213.322C397.785 214.152 397.613 214.974 397.277 215.733C396.946 216.493 396.455 217.174 395.845 217.735L384.74 227.871C383.193 229.281 381.957 230.999 381.114 232.914C380.267 234.83 379.829 236.901 379.829 238.996L379.87 260.004C379.87 261.538 380.25 263.048 380.975 264.399C381.699 265.75 382.743 266.902 384.02 267.75C382.747 268.601 381.703 269.754 380.983 271.107C380.259 272.46 379.882 273.971 379.886 275.505L379.935 347.139C379.935 348.362 380.177 349.572 380.643 350.701C381.114 351.83 381.798 352.855 382.661 353.721C383.525 354.582 384.552 355.267 385.678 355.734C386.807 356.202 388.015 356.44 389.235 356.44L433.185 356.395C434.405 356.395 435.612 356.153 436.738 355.681C437.867 355.213 438.891 354.529 439.75 353.663C440.614 352.797 441.297 351.77 441.764 350.64C442.231 349.511 442.468 348.3 442.468 347.078L442.407 275.443C442.407 273.91 442.03 272.401 441.306 271.05C440.585 269.699 439.541 268.547 438.269 267.697Z" fill="#FFBB00"/>
<path opacity="0.75" d="M438.269 267.697C439.541 266.847 440.589 265.695 441.31 264.343C442.03 262.991 442.407 261.48 442.407 259.947L442.37 238.935C442.37 236.842 441.932 234.772 441.084 232.859C440.241 230.945 439.005 229.229 437.458 227.822L426.337 217.706C425.724 217.146 425.232 216.465 424.897 215.705C424.561 214.946 424.389 214.124 424.389 213.293V207.331L397.785 207.36V213.322C397.785 214.152 397.613 214.974 397.277 215.733C396.946 216.493 396.455 217.174 395.845 217.735L384.74 227.871C383.193 229.281 381.957 230.999 381.114 232.914C380.267 234.83 379.829 236.901 379.829 238.996L379.87 260.004C379.87 261.538 380.25 263.048 380.975 264.399C381.699 265.75 382.743 266.902 384.02 267.75C382.747 268.601 381.703 269.754 380.983 271.107C380.259 272.46 379.882 273.971 379.886 275.505L379.935 347.139C379.935 348.362 380.177 349.572 380.643 350.701C381.114 351.83 381.798 352.855 382.661 353.721C383.525 354.582 384.552 355.267 385.678 355.734C386.807 356.202 388.015 356.44 389.235 356.44L433.185 356.395C434.405 356.395 435.612 356.153 436.738 355.681C437.867 355.213 438.891 354.529 439.75 353.663C440.614 352.797 441.297 351.77 441.764 350.64C442.231 349.511 442.468 348.3 442.468 347.078L442.407 275.443C442.407 273.91 442.03 272.401 441.306 271.05C440.585 269.699 439.541 268.547 438.269 267.697Z" fill="white"/>
<path opacity="0.2" d="M424.377 207.348H397.768V211.949H424.377V207.348Z" fill="black"/>
<path opacity="0.2" d="M437.29 228.888L426.17 218.768C426.17 218.768 419.621 219.588 425.412 227.269C430.32 233.748 437.826 232.05 437.29 228.888Z" fill="white"/>
<path d="M435.469 230.012C436.709 231.143 437.704 232.522 438.383 234.058C439.063 235.596 439.414 237.258 439.419 238.939L439.455 259.947C439.455 260.994 439.198 262.025 438.706 262.949C438.215 263.872 437.503 264.66 436.631 265.241L432.948 267.701L436.631 270.162C437.503 270.74 438.215 271.525 438.71 272.448C439.206 273.37 439.468 274.4 439.468 275.447L439.517 347.082C439.517 348.766 438.85 350.381 437.659 351.572C436.472 352.763 434.863 353.434 433.181 353.438L389.234 353.483C387.552 353.483 385.94 352.813 384.753 351.623C383.562 350.433 382.89 348.819 382.886 347.135L382.837 275.501C382.833 274.454 383.091 273.422 383.586 272.499C384.077 271.576 384.789 270.79 385.661 270.211L389.345 267.75L385.661 265.29C384.789 264.711 384.077 263.925 383.582 263.003C383.087 262.081 382.829 261.051 382.825 260.004L382.788 238.992C382.788 237.311 383.136 235.648 383.811 234.11C384.491 232.572 385.477 231.191 386.717 230.057C390.43 227.187 401.256 232.657 413.391 232.645C425.527 232.632 432.837 228.954 435.469 230.012Z" fill="#FFBB00"/>
<path opacity="0.3" d="M435.469 230.012C436.709 231.143 437.704 232.522 438.383 234.058C439.063 235.596 439.414 237.258 439.419 238.939L439.455 259.947C439.455 260.994 439.198 262.025 438.706 262.949C438.215 263.872 437.503 264.66 436.631 265.241L432.948 267.701L436.631 270.162C437.503 270.74 438.215 271.525 438.71 272.448C439.206 273.37 439.468 274.4 439.468 275.447L439.517 347.082C439.517 348.766 438.85 350.381 437.659 351.572C436.472 352.763 434.863 353.434 433.181 353.438L389.234 353.483C387.552 353.483 385.94 352.813 384.753 351.623C383.562 350.433 382.89 348.819 382.886 347.135L382.837 275.501C382.833 274.454 383.091 273.422 383.586 272.499C384.077 271.576 384.789 270.79 385.661 270.211L389.345 267.75L385.661 265.29C384.789 264.711 384.077 263.925 383.582 263.003C383.087 262.081 382.829 261.051 382.825 260.004L382.788 238.992C382.788 237.311 383.136 235.648 383.811 234.11C384.491 232.572 385.477 231.191 386.717 230.057C390.43 227.187 401.256 232.657 413.391 232.645C425.527 232.632 432.837 228.954 435.469 230.012Z" fill="white"/>
<path d="M442.419 283.288H379.939V322.228H442.419V283.288Z" fill="#DADDDF"/>
<path opacity="0.15" d="M442.419 283.288H379.939V322.228H442.419V283.288Z" fill="black"/>
<path d="M442.419 286.249H379.939V319.272H442.419V286.249Z" fill="#DADDDF"/>
<path opacity="0.2" d="M379.939 347.136C379.939 348.358 380.181 349.569 380.647 350.698C381.114 351.828 381.802 352.854 382.665 353.717C383.529 354.582 384.552 355.267 385.682 355.734C386.807 356.202 388.019 356.44 389.239 356.44L433.189 356.395C434.409 356.395 435.616 356.153 436.742 355.681C437.871 355.214 438.895 354.529 439.754 353.664C440.618 352.797 441.301 351.771 441.768 350.641C442.235 349.511 442.472 348.301 442.472 347.078L379.939 347.136Z" fill="black"/>
<path opacity="0.2" d="M379.874 260.004C379.874 261.538 380.254 263.048 380.979 264.399C381.703 265.751 382.747 266.902 384.024 267.75L438.268 267.697C439.541 266.848 440.589 265.696 441.31 264.343C442.03 262.991 442.406 261.48 442.406 259.947L379.874 260.004Z" fill="black"/>
<path opacity="0.2" d="M379.874 275.579C379.874 274.045 380.254 272.535 380.979 271.183C381.703 269.832 382.747 268.681 384.024 267.833L438.268 267.886C439.541 268.735 440.589 269.888 441.31 271.24C442.03 272.592 442.406 274.103 442.406 275.636L379.874 275.579Z" fill="white"/>
<path d="M425.007 200.048H397.134C396.393 200.048 395.791 200.65 395.791 201.393V209.201C395.791 209.944 396.393 210.546 397.134 210.546H425.007C425.748 210.546 426.35 209.944 426.35 209.201V201.393C426.35 200.65 425.748 200.048 425.007 200.048Z" fill="#FFBB00"/>
<path opacity="0.2" d="M426.346 201.381C426.342 201.024 426.198 200.683 425.949 200.431C425.695 200.179 425.355 200.037 424.999 200.036H419.117C419.469 200.042 419.805 200.186 420.055 200.438C420.3 200.689 420.439 201.028 420.439 201.381V209.172C420.439 209.35 420.407 209.525 420.337 209.689C420.272 209.852 420.173 210.001 420.047 210.126C419.924 210.252 419.772 210.351 419.613 210.419C419.449 210.487 419.273 210.521 419.097 210.521L397.109 210.546C397.109 210.546 397.109 210.546 393.688 210.546L421.557 210.517C425.744 210.517 426.346 209.915 426.342 209.168L426.346 201.381Z" fill="black"/>
<path opacity="0.2" d="M399.103 201.697C398.984 201.693 398.865 201.737 398.779 201.818C398.689 201.899 398.636 202.011 398.628 202.132L398.538 208.783C398.538 208.895 398.583 209.002 398.661 209.082C398.751 209.17 398.873 209.22 399 209.222H399.049C399.164 209.217 399.271 209.169 399.352 209.089C399.43 209.008 399.479 208.901 399.483 208.787L399.573 202.136C399.573 202.024 399.528 201.916 399.451 201.836C399.406 201.791 399.352 201.755 399.291 201.732C399.23 201.708 399.168 201.696 399.103 201.697Z" fill="white"/>
<path opacity="0.2" d="M403.908 201.631C403.785 201.628 403.67 201.672 403.58 201.754C403.49 201.835 403.437 201.949 403.433 202.07L403.343 208.721C403.343 208.777 403.351 208.832 403.376 208.884C403.396 208.935 403.429 208.982 403.47 209.021C403.56 209.108 403.679 209.156 403.806 209.156H403.855C403.969 209.15 404.076 209.101 404.158 209.02C404.235 208.939 404.284 208.831 404.289 208.717L404.379 202.066C404.379 202.011 404.366 201.956 404.346 201.906C404.325 201.855 404.293 201.809 404.256 201.771C404.211 201.725 404.153 201.689 404.096 201.666C404.035 201.641 403.973 201.63 403.908 201.631Z" fill="white"/>
<path opacity="0.2" d="M408.713 201.569C408.594 201.567 408.476 201.611 408.39 201.692C408.3 201.772 408.246 201.884 408.238 202.004L408.148 208.655C408.148 208.767 408.193 208.874 408.271 208.955C408.365 209.044 408.488 209.094 408.615 209.094H408.66C408.774 209.088 408.881 209.04 408.959 208.96C409.04 208.88 409.09 208.773 409.094 208.659L409.184 202.008C409.184 201.952 409.176 201.897 409.155 201.846C409.131 201.794 409.102 201.748 409.061 201.709C408.967 201.618 408.844 201.568 408.713 201.569Z" fill="white"/>
<path opacity="0.2" d="M413.518 201.504C413.4 201.502 413.281 201.546 413.195 201.627C413.105 201.707 413.052 201.819 413.043 201.939L412.953 208.59C412.953 208.646 412.966 208.702 412.986 208.753C413.007 208.805 413.039 208.851 413.08 208.89C413.129 208.936 413.187 208.973 413.248 208.996C413.309 209.021 413.379 209.032 413.445 209.029V208.8V209.029C413.559 209.024 413.666 208.977 413.743 208.896C413.825 208.816 413.874 208.708 413.878 208.595L413.968 201.943C413.968 201.887 413.96 201.832 413.936 201.781C413.915 201.729 413.887 201.683 413.846 201.644C413.76 201.557 413.641 201.507 413.518 201.504Z" fill="white"/>
<path opacity="0.2" d="M418.323 201.438C418.201 201.438 418.086 201.485 417.996 201.569C417.91 201.653 417.857 201.768 417.849 201.89L417.759 208.541C417.759 208.597 417.771 208.652 417.791 208.704C417.812 208.755 417.845 208.802 417.885 208.84C417.975 208.928 418.098 208.976 418.221 208.976H418.274C418.385 208.965 418.487 208.915 418.561 208.835C418.634 208.755 418.68 208.651 418.684 208.541L418.774 201.89C418.774 201.834 418.765 201.779 418.745 201.727C418.72 201.676 418.692 201.629 418.651 201.59C418.565 201.499 418.45 201.444 418.323 201.438Z" fill="white"/>
<path opacity="0.2" d="M423.476 201.512C423.386 201.425 423.264 201.377 423.137 201.377C423.018 201.374 422.899 201.417 422.813 201.498C422.723 201.58 422.67 201.692 422.662 201.812L422.576 208.463C422.576 208.519 422.584 208.574 422.609 208.625C422.629 208.677 422.658 208.724 422.699 208.762C422.744 208.807 422.797 208.843 422.854 208.867C422.912 208.891 422.977 208.903 423.038 208.902H423.084C423.198 208.898 423.305 208.851 423.386 208.77C423.468 208.689 423.513 208.581 423.517 208.467L423.607 201.816C423.607 201.759 423.595 201.703 423.575 201.651C423.55 201.598 423.517 201.551 423.476 201.512Z" fill="white"/>
<path opacity="0.2" d="M439.619 259.947L439.582 240.846C439.582 240.598 439.533 240.352 439.439 240.123C439.345 239.894 439.206 239.686 439.03 239.511C438.854 239.336 438.645 239.197 438.416 239.102C438.187 239.008 437.941 238.959 437.695 238.96C437.446 238.959 437.2 239.008 436.971 239.103C436.746 239.197 436.537 239.337 436.361 239.512C436.185 239.688 436.046 239.897 435.952 240.126C435.858 240.356 435.813 240.602 435.813 240.85L435.85 259.971C435.85 261.262 435.53 262.532 434.924 263.669C434.315 264.807 433.439 265.776 432.366 266.491L430.525 267.722L432.37 268.952C433.443 269.665 434.323 270.634 434.933 271.77C435.543 272.907 435.862 274.178 435.862 275.468L435.911 347.102C435.911 350.215 434.098 351.888 431.47 353.319C431.302 353.409 431.167 353.557 431.089 353.729C431.012 353.905 430.995 354.102 431.044 354.291C431.089 354.475 431.2 354.639 431.351 354.758C431.503 354.877 431.687 354.939 431.879 354.939C432.907 354.939 433.922 354.734 434.871 354.34C435.817 353.946 436.68 353.368 437.405 352.639C438.129 351.911 438.706 351.047 439.095 350.096C439.488 349.146 439.689 348.127 439.689 347.098L439.64 275.464C439.636 274.173 439.316 272.903 438.706 271.767C438.097 270.63 437.217 269.662 436.144 268.948L434.302 267.718L436.14 266.487C437.212 265.77 438.092 264.797 438.702 263.656C439.308 262.515 439.623 261.24 439.619 259.947Z" fill="white"/>
<path d="M411.181 313.846C417.296 313.846 422.249 308.881 422.249 302.757C422.249 296.634 417.296 291.669 411.181 291.669C405.07 291.669 400.114 296.634 400.114 302.757C400.114 308.881 405.07 313.846 411.181 313.846Z" fill="white"/>
<path d="M416.355 305.272C416.355 306.646 415.81 307.965 414.84 308.937C413.87 309.909 412.552 310.455 411.181 310.455C409.81 310.455 408.492 309.909 407.522 308.937C406.552 307.965 406.008 306.646 406.008 305.272C406.008 302.401 411.181 295.061 411.181 295.061C411.181 295.061 416.355 302.41 416.355 305.272Z" fill="#DADDDF"/>
<path opacity="0.15" d="M411.382 295.352C412.908 297.71 415.368 301.819 415.368 303.795C415.368 304.832 415.061 305.846 414.48 306.705C413.899 307.563 413.076 308.228 412.114 308.611C411.152 308.995 410.096 309.081 409.085 308.856C408.074 308.632 407.158 308.109 406.445 307.355C406.924 308.443 407.759 309.334 408.815 309.877C409.871 310.421 411.083 310.584 412.245 310.34C413.404 310.096 414.447 309.459 415.196 308.536C415.945 307.613 416.355 306.461 416.355 305.271C416.355 302.766 412.331 296.738 411.382 295.352Z" fill="black"/>
<path d="M141.056 303.553C133.75 295.688 123.935 298.632 117.042 298.632C110.15 298.632 100.335 295.692 93.0246 303.553C85.7145 311.414 84.8795 326.214 90.1022 337.859C95.3248 349.505 103.466 356.616 108.062 356.616C112.659 356.616 114.746 355.796 117.042 355.796C119.338 355.796 121.426 356.616 126.022 356.616C130.619 356.616 138.76 349.501 143.982 337.859C149.205 326.218 148.366 311.422 141.056 303.553Z" fill="#FFBB00"/>
<path opacity="0.2" d="M117.043 355.779C119.339 355.779 121.427 356.6 126.023 356.6C130.619 356.6 138.76 349.485 143.983 337.843C149.206 326.201 148.367 311.406 141.057 303.537C139.189 301.497 136.83 299.972 134.205 299.108C143.238 305.259 145.579 320.588 141.048 333.681C136.247 347.57 128.728 352.224 119.765 350.965C110.801 349.706 109.324 353.897 104.31 350.965C100.601 348.8 92.7798 339.574 88.961 334.923C89.3089 335.916 89.6814 336.9 90.1112 337.86C95.3297 349.501 103.475 356.616 108.071 356.616C112.668 356.616 114.747 355.779 117.043 355.779Z" fill="black"/>
<path opacity="0.2" d="M102.971 312.576C106.26 309.851 107.561 305.988 105.877 303.948C104.193 301.908 100.162 302.463 96.8732 305.187C93.5841 307.913 92.2833 311.776 93.9672 313.816C95.6515 315.856 99.6827 315.301 102.971 312.576Z" fill="white"/>
<path d="M116.346 301.946C116.346 301.946 115.859 290.509 122.957 285.486C122.957 285.486 124.213 285.076 125.187 287.302C125.187 287.302 118.61 290.927 117.443 301.946C117.272 302.029 117.085 302.073 116.895 302.073C116.705 302.073 116.517 302.029 116.346 301.946Z" fill="#61656D"/>
<path opacity="0.3" d="M113.912 301.327C113.912 301.327 117.121 302.479 119.966 301.327C119.13 302.067 118.054 302.476 116.939 302.476C115.824 302.476 114.747 302.067 113.912 301.327Z" fill="black"/>
<path d="M102.55 279.569C102.55 279.569 101.911 298.063 117.792 293.47C120.87 277.202 102.55 279.569 102.55 279.569Z" fill="#B2B6BB"/>
<path opacity="0.2" d="M117.792 293.47C117.792 293.47 114.042 285.035 105.693 281.673C105.693 281.673 114.476 282.923 117.792 293.47Z" fill="black"/>
</svg>
