<svg width="550" height="432" viewBox="0 0 550 432" fill="none" xmlns="http://www.w3.org/2000/svg">
<path d="M40.6357 411.326L21.8378 180.933C21.3615 175.066 22.9944 169.222 26.442 164.451L120.233 34.6734C122.74 31.2047 126.104 28.4461 129.997 26.6673C133.889 24.8881 138.177 24.1503 142.44 24.5253L463.521 52.8303C468.601 53.2784 473.42 55.2878 477.313 58.5826C481.211 61.8775 483.989 66.2967 485.271 71.2334L529.389 241.004C530.468 245.172 530.44 249.55 529.309 253.704L486.141 411.894L40.6357 411.326Z" fill="#F4F4F4"/>
<path d="M423.337 365.932H426.115V272.198C426.115 271.801 425.5 271.488 424.738 271.488H397.033C396.271 271.488 395.656 271.805 395.656 272.198V364.995H398.411V274.456H423.337V365.932Z" fill="#B2B6BB"/>
<g opacity="0.1">
<path opacity="0.1" d="M423.337 365.932H426.115V272.198C426.115 271.801 425.5 271.488 424.738 271.488H397.033C396.271 271.488 395.656 271.805 395.656 272.198V364.995H398.411V274.456H423.337V365.932Z" fill="black"/>
</g>
<path d="M388.107 411.724H437.626V405.861H388.107V411.724Z" fill="#B2B6BB"/>
<path opacity="0.1" d="M388.107 411.724H437.626V405.861H388.107V411.724Z" fill="black"/>
<path d="M421.352 365.932H424.131V272.198C424.131 271.801 423.515 271.488 422.753 271.488H395.049C394.287 271.488 393.671 271.805 393.671 272.198V364.995H396.426V274.456H421.352V365.932Z" fill="#B2B6BB"/>
<path d="M400.026 330.32H371.401V363.935H400.026V330.32Z" fill="#DADDDF"/>
<path d="M377.124 340.668H394.299V335.738H377.124V340.668Z" fill="#F4F4F4"/>
<path d="M444.758 330.32H416.133V363.935H444.758V330.32Z" fill="#DADDDF"/>
<path d="M422.527 359.102H439.702V337.08H422.527V359.102Z" fill="#F4F4F4"/>
<path d="M409.909 411.723H415.113V364.377H409.909V411.723Z" fill="#B2B6BB"/>
<g opacity="0.1">
<path opacity="0.1" d="M409.909 411.723H415.113V364.377H409.909V411.723Z" fill="black"/>
</g>
<path d="M406.734 411.723H411.937V364.377H406.734V411.723Z" fill="#B2B6BB"/>
<path d="M385.408 411.724H434.927V405.861H385.408V411.724Z" fill="#B2B6BB"/>
<path d="M444.758 284.188H416.133V317.799H444.758V284.188Z" fill="#DADDDF"/>
<path d="M422.265 295.115H439.44V290.185H422.265V295.115Z" fill="#F4F4F4"/>
<path d="M368.344 323.138H461.318V317.275H368.344V323.138Z" fill="#B2B6BB"/>
<path opacity="0.1" d="M368.344 323.138H461.318V317.275H368.344V323.138Z" fill="black"/>
<path d="M368.344 369.572H461.318V363.71H368.344V369.572Z" fill="#B2B6BB"/>
<path opacity="0.1" d="M368.344 369.572H461.318V363.71H368.344V369.572Z" fill="black"/>
<path d="M402.523 284.188H373.897V317.803H402.523V284.188Z" fill="#DADDDF"/>
<path d="M379.621 294.512H396.795V289.582H379.621V294.512Z" fill="#F4F4F4"/>
<path d="M379.621 303.457H396.795V298.527H379.621V303.457Z" fill="#F4F4F4"/>
<path d="M365.169 369.62H457.777L457.92 363.757H365.169V369.62Z" fill="#B2B6BB"/>
<path d="M365.169 323.138H458.142V317.275H365.169V323.138Z" fill="#B2B6BB"/>
<path d="M96.6125 411.382H240.359V111.957H96.6125V411.382Z" fill="#B2B6BB"/>
<path d="M96.6129 411.382H237.53V111.957H96.6129V411.382Z" fill="#DADDDF"/>
<path d="M230.108 411.382V118.751H104.036V411.382H230.108Z" fill="#B2B6BB"/>
<path opacity="0.1" d="M193.92 154.827H142.718V173.877H193.92V154.827Z" fill="black"/>
<path d="M134.727 252.744C128.186 250.938 121.629 256.753 115.104 254.947C113.719 254.582 112.584 252.708 112.584 251.327C112.584 249.938 113.719 249.545 115.104 249.91C121.645 251.712 128.202 245.902 134.727 247.708C136.113 248.073 137.248 249.946 137.248 251.327C137.248 252.712 136.109 253.109 134.727 252.744Z" fill="white"/>
<path opacity="0.1" d="M105.169 411.382V118.751H103.407V411.382H105.169Z" fill="black"/>
<path d="M191.483 154.827H140.281V173.877H191.483V154.827Z" fill="#F4F4F4"/>
<path d="M67.9434 327.467C67.5858 327.469 67.2329 327.551 66.9114 327.708C66.5899 327.864 66.3077 328.091 66.0858 328.372C63.0693 332.249 62.458 340.429 63.7043 342.552C65.1729 345.053 63.6567 345.95 64.01 348.208C64.2957 350.045 66.8797 351.438 67.8362 351.895C67.9466 351.95 68.068 351.979 68.1915 351.979C68.3149 351.979 68.4364 351.95 68.5467 351.895C69.539 351.414 72.2777 349.938 72.5158 348.081C72.8016 345.811 71.2616 344.961 72.6508 342.417C73.8415 340.258 72.9763 332.099 69.8446 328.316C69.614 328.042 69.3243 327.823 68.9972 327.676C68.6701 327.529 68.3137 327.458 67.9553 327.467" fill="#FFBB00"/>
<g opacity="0.4">
<g opacity="0.4">
<path opacity="0.4" d="M67.9434 327.467C67.5858 327.469 67.2329 327.551 66.9114 327.708C66.5899 327.864 66.3077 328.091 66.0858 328.372C63.0693 332.249 62.458 340.429 63.7043 342.552C65.1729 345.053 63.6567 345.95 64.01 348.208C64.2957 350.045 66.8797 351.438 67.8362 351.895C67.9466 351.95 68.068 351.979 68.1915 351.979C68.3149 351.979 68.4364 351.95 68.5467 351.895C69.539 351.414 72.2777 349.938 72.5158 348.081C72.8016 345.811 71.2616 344.961 72.6508 342.417C73.8415 340.258 72.9763 332.099 69.8446 328.316C69.614 328.042 69.3243 327.823 68.9972 327.676C68.6701 327.529 68.3137 327.458 67.9553 327.467" fill="white"/>
</g>
</g>
<path d="M89.2534 349.764C88.9854 349.528 88.6679 349.356 88.3242 349.26C87.9808 349.164 87.62 349.146 87.2688 349.208C82.4383 350.109 76.5521 355.832 76.0837 358.245C75.5241 361.087 73.7975 360.757 72.5631 362.682C71.5589 364.249 72.5631 367 72.9838 367.98C73.0322 368.093 73.1057 368.194 73.1985 368.275C73.291 368.357 73.401 368.416 73.5196 368.448C74.5794 368.75 77.6079 369.456 79.0129 368.222C80.7276 366.71 80.1402 365.047 82.867 364.067C85.181 363.233 89.948 356.558 90.1107 351.649C90.1198 351.291 90.0484 350.936 89.9011 350.609C89.7543 350.283 89.5356 349.994 89.2613 349.764" fill="#FFBB00"/>
<path d="M45.9702 355.03C45.7408 355.219 45.5566 355.458 45.4316 355.728C45.3065 355.997 45.2438 356.292 45.2478 356.59C45.347 360.677 49.2566 366.265 51.1737 366.98C53.4322 367.817 52.9321 369.194 54.3491 370.464C55.5001 371.496 57.8935 371.036 58.7508 370.825C58.8505 370.802 58.9437 370.754 59.0231 370.691C59.1029 370.627 59.1672 370.544 59.2113 370.452C59.6082 369.623 60.5806 367.23 59.755 365.912C58.7469 364.301 57.3061 364.559 56.8615 362.189C56.4884 360.181 51.6421 355.375 47.6333 354.581C47.3403 354.527 47.0387 354.538 46.7505 354.616C46.4628 354.693 46.196 354.835 45.9702 355.03Z" fill="#FFBB00"/>
<path d="M82.3153 364.158C82.1037 364.008 81.8616 363.908 81.606 363.863C81.3508 363.818 81.0888 363.831 80.8387 363.9C77.4213 364.897 73.5951 369.456 73.4244 371.21C73.222 373.298 71.9518 373.195 71.2017 374.659C70.5904 375.85 71.5112 377.771 71.8804 378.445C71.9236 378.525 71.9836 378.592 72.0566 378.644C72.1292 378.695 72.213 378.731 72.3011 378.747C73.0949 378.886 75.3177 379.18 76.2425 378.191C77.3737 377.001 76.8299 375.81 78.7232 374.925C80.3307 374.159 83.2917 369.008 83.0615 365.456C83.0412 365.198 82.9634 364.948 82.8344 364.723C82.7054 364.499 82.528 364.306 82.3153 364.158Z" fill="#FFBB00"/>
<path d="M56.7548 339.691C56.4702 339.778 56.209 339.929 55.9907 340.131C55.772 340.333 55.6017 340.581 55.4926 340.858C54.024 344.676 55.4926 351.335 57.0088 352.724C58.779 354.36 57.8026 355.439 58.6163 357.154C59.2871 358.547 61.6765 359.035 62.5497 359.166C62.6509 359.181 62.7545 359.174 62.8526 359.144C62.9506 359.115 63.0411 359.064 63.1173 358.995C63.7921 358.376 65.6139 356.538 65.3519 355.006C65.0304 353.129 63.6015 352.82 64.0937 350.462C64.5144 348.478 61.867 342.172 58.4575 339.913C58.2083 339.751 57.9261 339.647 57.6311 339.609C57.3366 339.57 57.037 339.598 56.7548 339.691Z" fill="#FFBB00"/>
<path d="M80.4942 340.588C80.2307 340.45 79.9397 340.373 79.6424 340.361C79.3452 340.349 79.0491 340.404 78.7756 340.52C75.0406 342.183 71.3811 347.942 71.4605 349.986C71.5557 352.395 70.0911 352.458 69.4759 354.252C68.9639 355.713 70.3134 357.749 70.8333 358.459C70.894 358.542 70.9726 358.61 71.0635 358.658C71.154 358.706 71.2545 358.733 71.3573 358.737C72.2741 358.776 74.858 358.765 75.759 357.495C76.8585 355.943 76.0647 354.716 78.081 353.395C79.7917 352.276 82.3677 345.957 81.558 341.949C81.496 341.658 81.369 341.384 81.1872 341.149C81.0051 340.913 80.7721 340.721 80.5061 340.588" fill="#FFBB00"/>
<g opacity="0.2">
<g opacity="0.2">
<path opacity="0.2" d="M56.7548 339.691C56.4702 339.778 56.209 339.929 55.9907 340.131C55.772 340.333 55.6017 340.581 55.4926 340.858C54.024 344.676 55.4926 351.335 57.0088 352.724C58.779 354.36 57.8026 355.439 58.6163 357.154C59.2871 358.547 61.6765 359.035 62.5497 359.166C62.6509 359.181 62.7545 359.174 62.8526 359.144C62.9506 359.115 63.0411 359.064 63.1173 358.995C63.7921 358.376 65.6139 356.538 65.3519 355.006C65.0304 353.129 63.6015 352.82 64.0937 350.462C64.5144 348.478 61.867 342.172 58.4575 339.913C58.2083 339.751 57.9261 339.647 57.6311 339.609C57.3366 339.57 57.037 339.598 56.7548 339.691Z" fill="white"/>
</g>
</g>
<g opacity="0.2">
<g opacity="0.2">
<path opacity="0.2" d="M80.4942 340.588C80.2307 340.45 79.9397 340.373 79.6424 340.361C79.3452 340.349 79.0491 340.404 78.7756 340.52C75.0406 342.183 71.3811 347.942 71.4605 349.986C71.5557 352.395 70.0911 352.458 69.4759 354.252C68.9639 355.713 70.3134 357.749 70.8333 358.459C70.894 358.542 70.9726 358.61 71.0635 358.658C71.154 358.706 71.2545 358.733 71.3573 358.737C72.2741 358.776 74.858 358.765 75.759 357.495C76.8585 355.943 76.0647 354.716 78.081 353.395C79.7917 352.276 82.3677 345.957 81.558 341.949C81.496 341.658 81.369 341.384 81.1872 341.149C81.0051 340.913 80.7721 340.721 80.5061 340.588" fill="white"/>
</g>
</g>
<path d="M67.2762 341.485C66.9769 341.472 66.6784 341.528 66.4034 341.648C66.1283 341.767 65.8838 341.948 65.6885 342.175C63.0609 345.303 62.2953 352.097 63.2598 353.887C64.3989 356.01 63.1129 356.709 63.3352 358.598C63.5178 360.134 65.6175 361.376 66.3994 361.773C66.4915 361.817 66.5927 361.84 66.6951 361.84C66.7971 361.84 66.8983 361.817 66.9904 361.773C67.8319 361.408 70.1661 360.265 70.4043 358.729C70.7138 356.852 69.4596 356.094 70.694 354.026C71.7419 352.268 71.2894 345.461 68.8047 342.215C68.6213 341.981 68.3879 341.791 68.1212 341.659C67.8545 341.527 67.5619 341.456 67.2643 341.453" fill="#FFBB00"/>
<path d="M56.3304 372C56.1375 372.135 55.9776 372.314 55.8625 372.52C55.747 372.726 55.6791 372.957 55.6636 373.191C55.4771 376.39 58.1721 381.013 59.6328 381.696C61.3435 382.49 60.8632 383.537 61.8872 384.625C62.7208 385.506 64.626 385.299 65.3087 385.192C65.3908 385.18 65.4694 385.153 65.5385 385.105C65.6075 385.061 65.6647 384.998 65.7056 384.926C66.0628 384.303 66.9876 382.498 66.428 381.414C65.7413 380.088 64.5982 380.2 64.4037 378.318C64.241 376.731 60.768 372.651 57.6839 371.774C57.4581 371.714 57.2219 371.707 56.9917 371.746C56.7619 371.79 56.5444 371.881 56.3543 372.016" fill="#FFBB00"/>
<g opacity="0.2">
<g opacity="0.2">
<path opacity="0.2" d="M82.3153 364.158C82.1037 364.008 81.8616 363.908 81.606 363.863C81.3508 363.818 81.0888 363.831 80.8387 363.9C77.4213 364.897 73.5951 369.456 73.4244 371.21C73.222 373.298 71.9518 373.195 71.2017 374.659C70.5904 375.85 71.5112 377.771 71.8804 378.445C71.9236 378.525 71.9836 378.592 72.0566 378.644C72.1292 378.695 72.213 378.731 72.3011 378.747C73.0949 378.886 75.3177 379.18 76.2425 378.191C77.3737 377.001 76.8299 375.81 78.7232 374.925C80.3307 374.159 83.2917 369.008 83.0615 365.456C83.0412 365.198 82.9634 364.948 82.8344 364.723C82.7054 364.499 82.528 364.306 82.3153 364.158Z" fill="black"/>
</g>
</g>
<g opacity="0.2">
<g opacity="0.2">
<path opacity="0.2" d="M67.2762 341.485C66.9769 341.472 66.6784 341.528 66.4034 341.648C66.1283 341.767 65.8838 341.948 65.6885 342.175C63.0609 345.303 62.2953 352.097 63.2598 353.887C64.3989 356.01 63.1129 356.709 63.3352 358.598C63.5178 360.134 65.6175 361.376 66.3994 361.773C66.4915 361.817 66.5927 361.84 66.6951 361.84C66.7971 361.84 66.8983 361.817 66.9904 361.773C67.8319 361.408 70.1661 360.265 70.4043 358.729C70.7138 356.852 69.4596 356.094 70.694 354.026C71.7419 352.268 71.2894 345.461 68.8047 342.215C68.6213 341.981 68.3879 341.791 68.1212 341.659C67.8545 341.527 67.5619 341.456 67.2643 341.453" fill="black"/>
</g>
</g>
<g opacity="0.2">
<g opacity="0.2">
<path opacity="0.2" d="M56.3304 372C56.1375 372.135 55.9776 372.314 55.8625 372.52C55.747 372.726 55.6791 372.957 55.6636 373.191C55.4771 376.39 58.1721 381.013 59.6328 381.696C61.3435 382.49 60.8632 383.537 61.8872 384.625C62.7208 385.506 64.626 385.299 65.3087 385.192C65.3908 385.18 65.4694 385.153 65.5385 385.105C65.6075 385.061 65.6647 384.998 65.7056 384.926C66.0628 384.303 66.9876 382.498 66.428 381.414C65.7413 380.088 64.5982 380.2 64.4037 378.318C64.241 376.731 60.768 372.651 57.6839 371.774C57.4581 371.714 57.2219 371.707 56.9917 371.746C56.7619 371.79 56.5444 371.881 56.3543 372.016" fill="black"/>
</g>
</g>
<path d="M67.8199 389.617L67.5818 389.546C67.6374 389.352 73.476 370.079 82.347 364.65L82.478 364.864C73.6903 370.246 67.8795 389.427 67.8199 389.617Z" fill="#FFBB00"/>
<path d="M67.4472 389.613C66.6534 384.676 56.6948 372.877 56.5956 372.758L56.7861 372.596C57.183 373.084 66.8797 384.565 67.6933 389.574L67.4472 389.613Z" fill="#FFBB00"/>
<path d="M67.7576 389.594L67.5076 389.562L68.6983 379.426C69.3389 373.707 71.7891 368.338 75.6919 364.107L88.6234 350.145L88.81 350.315L75.8785 364.277C72.005 368.468 69.5715 373.786 68.9325 379.457L67.7576 389.594Z" fill="#FFBB00"/>
<path d="M67.4083 389.625C67.3448 389.395 60.7124 366.155 46.4076 355.57L46.5584 355.368C60.9307 366.004 67.5949 389.324 67.6505 389.558L67.4083 389.625Z" fill="#FFBB00"/>
<path d="M67.2055 342.648L66.9555 342.651L67.5123 389.57L67.7624 389.566L67.2055 342.648Z" fill="#FFBB00"/>
<path d="M67.3841 374.377C67.1341 359.503 79.9584 341.243 80.0854 341.041L80.2874 341.187C80.1604 341.37 67.3798 359.563 67.6298 374.354L67.3841 374.377Z" fill="#FFBB00"/>
<path d="M67.3841 375.092C67.0745 369.389 56.6674 340.643 56.5722 340.354L56.8103 340.266C56.9135 340.556 67.3206 369.341 67.6342 375.076L67.3841 375.092Z" fill="#FFBB00"/>
<path d="M67.8751 328.091L67.6255 328.1L68.1283 341.493L68.378 341.484L67.8751 328.091Z" fill="#FFBB00"/>
<path d="M56.8865 376.025L56.7893 376.255L60.5628 377.845L60.66 377.615L56.8865 376.025Z" fill="#FFBB00"/>
<path d="M46.9871 359.516L46.8926 359.747L53.4754 362.431L53.5699 362.199L46.9871 359.516Z" fill="#FFBB00"/>
<path d="M55.797 344.255L55.6001 344.409L60.0015 350.027L60.1984 349.873L55.797 344.255Z" fill="#FFBB00"/>
<path d="M69.5064 347.827L67.2408 355.877L67.4814 355.945L69.7474 347.895L69.5064 347.827Z" fill="#FFBB00"/>
<path d="M75.5824 343.402L74.6628 350.15L74.9104 350.184L75.8301 343.436L75.5824 343.402Z" fill="#FFBB00"/>
<path d="M80.9828 358.645L80.7407 358.582C81.3678 356.145 82.3046 352.45 82.3284 352.272H82.5824C82.5824 352.399 81.4631 356.764 80.9947 358.622" fill="#FFBB00"/>
<path d="M80.8665 369.337L75.2581 372.664L75.3855 372.878L80.9939 369.552L80.8665 369.337Z" fill="#FFBB00"/>
<g opacity="0.3">
<g opacity="0.3">
<path opacity="0.3" d="M67.8215 389.617L67.5834 389.546C67.639 389.352 73.4776 370.079 82.3486 364.65L82.4796 364.864C73.6919 370.246 67.8811 389.427 67.8215 389.617Z" fill="black"/>
<path opacity="0.3" d="M67.4484 389.613C66.6546 384.676 56.696 372.877 56.5968 372.758L56.7873 372.596C57.1842 373.084 66.8809 384.565 67.6945 389.574L67.4484 389.613Z" fill="black"/>
<path opacity="0.3" d="M67.7576 389.594L67.5076 389.562L68.6983 379.426C69.3389 373.707 71.7891 368.338 75.6919 364.107L88.6234 350.145L88.81 350.315L75.8785 364.277C72.005 368.468 69.5715 373.786 68.9325 379.457L67.7576 389.594Z" fill="black"/>
<path opacity="0.3" d="M67.4083 389.625C67.3448 389.395 60.7124 366.155 46.4076 355.57L46.5584 355.368C60.9307 366.004 67.5949 389.324 67.6505 389.558L67.4083 389.625Z" fill="black"/>
<path opacity="0.3" d="M67.2055 342.648L66.9555 342.651L67.5123 389.57L67.7624 389.566L67.2055 342.648Z" fill="black"/>
<path opacity="0.3" d="M67.3841 374.377C67.1341 359.503 79.9584 341.243 80.0854 341.041L80.2874 341.187C80.1604 341.37 67.3798 359.563 67.6298 374.354L67.3841 374.377Z" fill="black"/>
<path opacity="0.3" d="M67.3841 375.092C67.0745 369.389 56.6674 340.643 56.5722 340.354L56.8103 340.266C56.9135 340.556 67.3206 369.341 67.6342 375.076L67.3841 375.092Z" fill="black"/>
<path opacity="0.3" d="M67.8751 328.091L67.6255 328.1L68.1283 341.493L68.378 341.484L67.8751 328.091Z" fill="black"/>
<path opacity="0.3" d="M56.8865 376.024L56.7893 376.255L60.5628 377.845L60.66 377.615L56.8865 376.024Z" fill="black"/>
<path opacity="0.3" d="M46.9887 359.516L46.8942 359.747L53.477 362.431L53.5715 362.199L46.9887 359.516Z" fill="black"/>
<path opacity="0.3" d="M55.7986 344.255L55.6017 344.409L60.0031 350.027L60.2 349.873L55.7986 344.255Z" fill="black"/>
<path opacity="0.3" d="M69.5064 347.827L67.2408 355.877L67.4814 355.945L69.7474 347.895L69.5064 347.827Z" fill="black"/>
<path opacity="0.3" d="M75.5824 343.402L74.6628 350.15L74.9104 350.184L75.8301 343.436L75.5824 343.402Z" fill="black"/>
<path opacity="0.3" d="M80.9828 358.645L80.7407 358.582C81.3678 356.145 82.3046 352.45 82.3284 352.272H82.5824C82.5824 352.399 81.4631 356.764 80.9947 358.622" fill="black"/>
<path opacity="0.3" d="M80.8665 369.337L75.2581 372.664L75.3855 372.878L80.9939 369.552L80.8665 369.337Z" fill="black"/>
</g>
</g>
<path d="M72.2666 411.267H63.1375C62.4993 411.267 61.8678 411.14 61.2784 410.898C60.689 410.652 60.1531 410.295 59.7022 409.846C59.2509 409.394 58.8933 408.858 58.6488 408.27C58.4047 407.679 58.2793 407.048 58.2793 406.409V389.887H77.1447V406.409C77.1447 407.048 77.0188 407.679 76.7743 408.27C76.5298 408.858 76.1718 409.394 75.7201 409.846C75.2688 410.298 74.7326 410.656 74.1428 410.898C73.553 411.144 72.9207 411.267 72.2824 411.267" fill="#868A91"/>
<path d="M67.82 411.267H72.2654C72.9036 411.267 73.5359 411.144 74.1257 410.898C74.7155 410.656 75.2518 410.298 75.7031 409.846C76.1548 409.394 76.5128 408.858 76.7573 408.27C77.0018 407.679 77.1276 407.048 77.1276 406.409V391.915L58.3099 392.153L58.2622 392.947H72.0947V406.735C72.0947 406.735 73.1029 411.259 67.82 411.259" fill="#606266"/>
<path d="M77.5809 392.158H57.5565C57.4097 392.158 57.2696 392.098 57.166 391.995C57.0628 391.892 57.0048 391.749 57.0048 391.602V390.447C57.0048 390.3 57.0628 390.161 57.166 390.054C57.2696 389.951 57.4097 389.891 57.5565 389.891H77.5809C77.7273 389.891 77.8678 389.951 77.971 390.054C78.0746 390.161 78.1326 390.3 78.1326 390.447V391.602C78.1326 391.749 78.0746 391.892 77.971 391.995C77.8678 392.098 77.7273 392.158 77.5809 392.158Z" fill="#868A91"/>
<path d="M78.1326 391.598V390.443C78.1302 390.368 78.1127 390.292 78.0814 390.225C78.05 390.157 78.0056 390.094 77.95 390.042C77.8948 389.991 77.8301 389.951 77.7591 389.923C77.6884 389.895 77.613 389.883 77.5372 389.887H73.5681V392.158H77.5372C77.613 392.162 77.6884 392.15 77.7591 392.122C77.8301 392.094 77.8948 392.055 77.95 392.003C78.0056 391.951 78.05 391.888 78.0814 391.82C78.1127 391.753 78.1302 391.678 78.1326 391.602" fill="#606266"/>
<g opacity="0.1">
<g opacity="0.1">
<g opacity="0.1">
<g opacity="0.1">
<path opacity="0.1" d="M360.362 144.231H338.766V164.444H360.362V144.231Z" fill="black"/>
</g>
</g>
</g>
</g>
<path d="M475.21 113.564H307.453V224.8H475.21V113.564Z" fill="#B2B6BB"/>
<path d="M477.714 113.564H475.21V224.8H477.714V113.564Z" fill="#DADDDF"/>
<path opacity="0.3" d="M477.714 113.564H475.21V224.8H477.714V113.564Z" fill="black"/>
<path d="M471.018 117.974H312.249V220.843H471.018V117.974Z" fill="#DADDDF"/>
<path opacity="0.3" d="M315.317 117.974H312.249V220.843H315.317V117.974Z" fill="black"/>
<path d="M322.096 178.497H400.379V124.245H322.096V178.497Z" fill="white"/>
<path d="M370.94 155.808H395.589V128.372H370.94V155.808Z" fill="#FFBB00"/>
<path opacity="0.6" d="M370.94 155.808H395.589V128.372H370.94V155.808Z" fill="white"/>
<path d="M326.252 130.65H368.392V128.372H326.252V130.65Z" fill="#FFBB00"/>
<path d="M326.252 135.409H368.392V133.13H326.252V135.409Z" fill="#FFBB00"/>
<path d="M333.317 140.167H368.392V137.889H333.317V140.167Z" fill="#FFBB00"/>
<path d="M326.252 144.921H368.392V142.643H326.252V144.921Z" fill="#FFBB00"/>
<path d="M326.252 154.427H368.392V152.148H326.252V154.427Z" fill="#FFBB00"/>
<path d="M368.039 162.095H395.589V159.935H368.039V162.095Z" fill="#FFBB00"/>
<path d="M368.039 166.706H395.589V164.547H368.039V166.706Z" fill="#FFBB00"/>
<path d="M368.039 171.373H395.589V169.213H368.039V171.373Z" fill="#FFBB00"/>
<path d="M326.252 149.684H347.653V147.405H326.252V149.684Z" fill="#FFBB00"/>
<path d="M350.396 149.684H368.392V147.405H350.396V149.684Z" fill="#FFBB00"/>
<path d="M362.264 159.935H326.255V175.397H362.264V159.935Z" fill="#FFBB00"/>
<path opacity="0.6" d="M362.264 159.935H326.255V175.397H362.264V159.935Z" fill="white"/>
<path opacity="0.6" d="M326.252 130.65H368.392V128.372H326.252V130.65Z" fill="white"/>
<path opacity="0.6" d="M326.252 135.409H368.392V133.13H326.252V135.409Z" fill="white"/>
<path opacity="0.6" d="M333.317 140.167H368.392V137.889H333.317V140.167Z" fill="white"/>
<path opacity="0.6" d="M326.252 144.921H368.392V142.643H326.252V144.921Z" fill="white"/>
<path opacity="0.6" d="M326.252 154.427H368.392V152.148H326.252V154.427Z" fill="white"/>
<path opacity="0.6" d="M368.039 162.095H395.589V159.935H368.039V162.095Z" fill="white"/>
<path opacity="0.6" d="M368.039 166.706H395.589V164.547H368.039V166.706Z" fill="white"/>
<path opacity="0.6" d="M368.039 171.373H395.589V169.213H368.039V171.373Z" fill="white"/>
<path opacity="0.6" d="M326.252 149.684H347.653V147.405H326.252V149.684Z" fill="white"/>
<path opacity="0.6" d="M350.396 149.684H368.392V147.405H350.396V149.684Z" fill="white"/>
<path d="M377.954 139.932C378.462 139.682 378.942 139.424 379.442 139.21C379.954 138.98 380.51 138.852 381.073 138.833C381.581 138.804 382.086 138.932 382.514 139.199C382.947 139.466 383.288 139.859 383.491 140.325C383.923 141.22 384.145 142.204 384.134 143.199C384.157 144.727 384.09 146.255 384.066 147.779C384.066 149.132 384.026 150.485 384.487 151.787C384.574 152.126 384.753 152.435 384.995 152.685C385.241 152.936 385.547 153.119 385.884 153.216C386.086 153.268 386.297 153.295 386.507 153.295C388.956 153.295 391.409 153.295 393.862 153.295C393.973 153.309 394.084 153.297 394.191 153.259C394.295 153.222 394.39 153.161 394.465 153.08C394.545 153 394.6 152.902 394.636 152.795C394.668 152.688 394.676 152.576 394.656 152.466C394.644 150.87 394.414 149.283 393.969 147.751C393.667 146.64 393.028 145.651 392.135 144.925C391.738 144.631 391.302 144.399 390.837 144.235C389.873 143.969 388.932 143.636 388.015 143.238C387.484 143.001 387.023 142.632 386.674 142.167C386.543 141.966 386.459 141.739 386.424 141.502C386.388 141.265 386.408 141.024 386.475 140.794C386.499 140.731 386.535 140.675 386.587 140.631C387.706 139.433 388.341 137.864 388.369 136.226C388.408 135.563 388.377 134.897 388.265 134.241C388.15 133.726 387.92 133.242 387.595 132.826C387.273 132.409 386.86 132.07 386.388 131.832C385.555 131.336 384.626 131.022 383.665 130.91C382.701 130.798 381.728 130.89 380.803 131.181C380.367 131.285 379.962 131.495 379.629 131.792C379.291 132.089 379.033 132.464 378.878 132.884C378.783 133.204 378.74 133.538 378.751 133.872C378.803 134.753 378.505 135.619 377.93 136.285C377.588 136.682 377.287 137.079 376.973 137.476C376.874 137.594 376.795 137.728 376.739 137.873C376.687 138.016 376.672 138.169 376.687 138.32C376.703 138.471 376.759 138.616 376.842 138.744C376.926 138.871 377.037 138.978 377.168 139.055C377.299 139.133 377.446 139.179 377.596 139.19C377.842 139.222 377.938 139.294 377.918 139.536C377.918 139.669 377.93 139.802 377.954 139.932Z" fill="white"/>
<path d="M383.685 153.299C383.157 152.463 382.84 151.509 382.768 150.521C382.693 149.661 382.661 148.797 382.673 147.933C382.673 146.783 382.788 145.636 382.768 144.485C382.736 143.591 382.653 142.699 382.522 141.814C382.467 141.5 382.359 141.197 382.209 140.917C382.105 140.683 381.927 140.491 381.704 140.371C381.478 140.251 381.22 140.21 380.97 140.254C380.371 140.341 379.791 140.54 379.267 140.841C378.978 140.988 378.7 141.163 378.398 141.333C378.577 141.619 378.811 141.865 379.089 142.057C379.367 142.249 379.68 142.382 380.01 142.449C380.033 142.717 379.974 142.985 379.835 143.216C379.696 143.447 379.49 143.629 379.244 143.735C378.704 143.948 378.128 144.049 377.549 144.032C376.906 144.032 376.275 144.174 375.695 144.449C375.116 144.724 374.608 145.124 374.203 145.62C373.655 146.312 373.25 147.105 373.012 147.953C372.627 149.284 372.393 150.654 372.313 152.037C372.313 152.176 372.29 152.319 372.282 152.462C372.262 152.57 372.266 152.682 372.294 152.788C372.325 152.894 372.377 152.991 372.452 153.073C372.528 153.154 372.619 153.217 372.722 153.258C372.822 153.298 372.933 153.313 373.044 153.303C373.774 153.303 374.504 153.303 375.235 153.303H383.693L383.685 153.299Z" fill="white"/>
<path d="M338.873 173.663C339.253 173.604 339.642 173.63 340.012 173.739C341.484 174.1 343.001 173.842 344.441 173.469C346.164 172.881 347.823 173.866 349.566 173.77C350.983 173.814 352.297 172.838 352.226 171.345C352.214 170.531 352.035 169.727 351.702 168.984C350.511 166.051 351.503 163.662 352.003 160.769H345.283C345.424 162.565 345.463 164.369 345.402 166.17C345.342 167.524 342.457 168.353 341.453 169.147C340.863 169.618 340.154 169.917 339.405 170.012C338.842 170.096 338.301 170.293 337.817 170.591C337.74 170.627 337.653 170.636 337.571 170.615C337.368 170.576 337.158 170.577 336.956 170.62C336.753 170.664 336.561 170.747 336.392 170.865C336.222 170.983 336.077 171.135 335.967 171.31C335.856 171.485 335.782 171.681 335.749 171.885C335.495 173.623 337.519 174.124 338.873 173.663ZM347.7 168.798C348.446 169.552 348.982 168.194 349.585 168.798C350.232 169.988 347.688 170.437 347.025 169.591C346.965 169.55 346.913 169.496 346.874 169.434C346.836 169.371 346.811 169.301 346.801 169.228C346.791 169.155 346.797 169.081 346.817 169.011C346.838 168.94 346.873 168.875 346.921 168.819C346.969 168.763 347.027 168.717 347.094 168.686C347.16 168.654 347.232 168.636 347.306 168.634C347.379 168.632 347.452 168.646 347.52 168.674C347.588 168.702 347.65 168.744 347.7 168.798Z" fill="white"/>
<path d="M413.085 207.853H464.537V144.782H413.085V207.853Z" fill="white"/>
<path d="M423.531 176.322H454.947V148.93H423.531V176.322Z" fill="#FFBB00"/>
<path opacity="0.6" d="M423.531 176.322H454.947V148.93H423.531V176.322Z" fill="white"/>
<path d="M429.934 164.514L429.604 164.685C429.418 164.774 429.251 164.908 429.128 165.075C429.005 165.243 428.922 165.438 428.894 165.645C428.862 165.851 428.882 166.062 428.953 166.258C429.025 166.454 429.144 166.63 429.299 166.769C429.382 166.836 429.445 166.923 429.481 167.022C429.521 167.121 429.529 167.228 429.513 167.332C429.497 167.769 429.513 168.207 429.561 168.642C429.572 168.674 429.592 168.702 429.62 168.724C429.644 168.747 429.676 168.762 429.707 168.769C430.327 168.737 430.95 168.694 431.557 168.654C431.624 168.126 431.791 167.904 432.141 167.836C432.303 167.813 432.47 167.844 432.613 167.925C432.76 168.006 432.871 168.133 432.934 168.285L433.2 168.193L433.49 168.086C433.466 168.003 433.454 167.916 433.462 167.829C433.47 167.742 433.494 167.657 433.534 167.58C433.573 167.503 433.629 167.433 433.696 167.377C433.764 167.322 433.839 167.279 433.923 167.253C434.066 167.206 434.22 167.208 434.363 167.256C434.506 167.305 434.633 167.399 434.716 167.523C434.943 167.479 435.002 167.34 434.986 167.126C434.97 166.912 434.986 166.614 434.986 166.372C434.589 166.332 434.22 166.312 433.851 166.257C433.76 166.25 433.673 166.223 433.593 166.179C433.51 166.135 433.442 166.075 433.387 166.002C433.331 165.929 433.292 165.845 433.272 165.756C433.248 165.667 433.248 165.574 433.264 165.484C433.284 165.394 433.319 165.309 433.371 165.234C433.423 165.159 433.49 165.096 433.569 165.049C433.649 165.002 433.736 164.972 433.827 164.961C433.919 164.951 434.01 164.959 434.097 164.987C434.629 165.059 435.165 165.035 435.685 164.915C436.403 164.796 437.122 164.637 437.844 164.59C438.412 164.517 438.987 164.628 439.487 164.906C439.987 165.185 440.388 165.617 440.623 166.138C441.162 167.225 442.186 167.725 443.476 167.471C445.016 167.238 446.465 166.602 447.68 165.63C449.517 164.094 450.311 162.157 449.99 159.815C449.847 158.605 449.462 157.435 448.863 156.375C448.132 155.11 447.037 154.095 445.719 153.462C444.219 152.747 442.587 152.342 440.924 152.271C439.079 152.124 437.221 152.258 435.415 152.668C433.669 153.013 432.057 153.854 430.775 155.089C429.779 156.085 429.195 157.42 429.14 158.827C429.096 159.681 429.207 160.536 429.465 161.351C429.489 161.399 429.501 161.452 429.505 161.505C429.509 161.558 429.501 161.611 429.481 161.661C429.461 161.711 429.434 161.757 429.398 161.796C429.362 161.835 429.314 161.866 429.267 161.887C429.14 161.969 429.005 162.049 428.87 162.125C428.775 162.164 428.691 162.226 428.628 162.305C428.564 162.383 428.521 162.477 428.497 162.577C428.477 162.677 428.481 162.78 428.513 162.877C428.54 162.975 428.592 163.065 428.664 163.137C429.001 163.554 429.374 163.931 429.739 164.348C429.799 164.408 429.866 164.464 429.934 164.514ZM431.696 160.629C431.871 160.532 432.069 160.486 432.267 160.496C432.47 160.507 432.66 160.574 432.823 160.689C433.097 160.852 433.343 161.055 433.553 161.292C433.808 161.541 434.006 161.84 434.137 162.17C434.268 162.5 434.331 162.854 434.316 163.209C434.308 163.378 434.256 163.542 434.165 163.685C434.077 163.829 433.95 163.947 433.804 164.029C433.657 164.11 433.49 164.153 433.319 164.153C433.149 164.152 432.982 164.109 432.835 164.026C432.398 163.824 432.017 163.516 431.732 163.13C431.442 162.744 431.255 162.292 431.188 161.816C431.176 161.177 431.339 160.82 431.696 160.629Z" fill="white"/>
<path d="M431.978 169.908L429.815 170.111C429.838 170.424 429.862 170.75 429.886 171.075C429.91 171.387 430.001 171.691 430.156 171.963C430.311 172.234 430.525 172.468 430.783 172.647C431.041 172.826 431.335 172.945 431.644 172.996C431.954 173.046 432.267 173.027 432.569 172.94C433.712 172.647 434.839 172.294 435.975 171.976C436.526 171.821 437.09 171.698 437.642 171.539C438.094 171.431 438.495 171.179 438.793 170.821C439.086 170.463 439.261 170.019 439.281 169.555C439.348 168.833 439.471 168.114 439.543 167.392C439.555 167.202 439.515 167.011 439.432 166.84C439.313 166.512 439.075 166.238 438.769 166.067C438.463 165.897 438.106 165.842 437.765 165.912C437.368 165.948 436.947 166.031 436.538 166.082C436.38 166.082 436.348 166.178 436.352 166.317C436.352 166.761 436.352 167.21 436.352 167.654C436.364 167.799 436.332 167.944 436.26 168.071C436.189 168.198 436.086 168.302 435.955 168.368C435.729 168.491 435.51 168.622 435.288 168.745C435.355 169.23 435.288 169.46 434.959 169.611C434.824 169.686 434.665 169.711 434.514 169.679C434.363 169.648 434.228 169.563 434.133 169.44C434.121 169.414 434.101 169.392 434.077 169.374C434.054 169.356 434.026 169.343 433.998 169.335C433.97 169.328 433.942 169.326 433.915 169.33C433.883 169.335 433.855 169.345 433.831 169.361C433.676 169.424 433.514 169.472 433.323 169.539C433.375 169.666 433.387 169.805 433.359 169.938C433.331 170.072 433.268 170.196 433.172 170.293C433.069 170.382 432.946 170.444 432.815 170.476C432.426 170.547 432.2 170.381 431.978 169.908Z" fill="white"/>
<path d="M418.006 183.311H459.619V180.989H418.006V183.311Z" fill="#FFBB00"/>
<path d="M418.006 188.118H459.619V185.796H418.006V188.118Z" fill="#FFBB00"/>
<path d="M418.006 192.919H459.619V190.597H418.006V192.919Z" fill="#FFBB00"/>
<path d="M418.006 197.722H459.619V195.4H418.006V197.722Z" fill="#FFBB00"/>
<path d="M418.006 202.527H459.619V200.205H418.006V202.527Z" fill="#FFBB00"/>
<path opacity="0.6" d="M418.006 183.311H459.619V180.989H418.006V183.311Z" fill="white"/>
<path opacity="0.6" d="M418.006 188.118H459.619V185.796H418.006V188.118Z" fill="white"/>
<path opacity="0.6" d="M418.006 192.919H459.619V190.597H418.006V192.919Z" fill="white"/>
<path opacity="0.6" d="M418.006 197.722H459.619V195.4H418.006V197.722Z" fill="white"/>
<path opacity="0.6" d="M418.006 202.527H459.619V200.205H418.006V202.527Z" fill="white"/>
<path d="M367.086 184.815H335.876V216.021H367.086V184.815Z" fill="#F4F4F4"/>
<path d="M353.738 190.712H349.228V210.131H353.738V190.712Z" fill="#FFBB00"/>
<path d="M361.192 202.675V198.165H341.771V202.675H361.192Z" fill="#FFBB00"/>
<g opacity="0.2">
<path opacity="0.2" d="M353.738 190.712H349.229V210.131H353.738V190.712Z" fill="white"/>
<path opacity="0.2" d="M361.192 202.675V198.165H341.771V202.675H361.192Z" fill="white"/>
</g>
<path d="M213.369 406.1L235.061 406.651L226.388 400.492C225.686 399.996 225.109 399.345 224.706 398.587C224.302 397.829 224.083 396.983 224.066 396.126L223.669 389.248L211.893 389.288L213.369 406.1Z" fill="#FC9D9D"/>
<path opacity="0.15" d="M215.75 398.166V398.039C215.709 397.682 215.811 397.321 216.034 397.035C216.257 396.753 216.583 396.567 216.941 396.523L223.99 395.507L223.907 394.158H212.206L213.262 405.635L222.716 404.584L219.593 403.357C218.542 402.921 217.63 402.206 216.954 401.293C216.277 400.377 215.861 399.297 215.75 398.166Z" fill="black"/>
<path d="M174.309 405.326H184.057L185.871 388.828L174.36 388.867L174.309 405.326Z" fill="#FC9D9D"/>
<path opacity="0.15" d="M176.757 402.54L177.007 397.475C177.033 397.158 177.163 396.856 177.379 396.618C177.594 396.38 177.882 396.225 178.198 396.17L185.204 395.114L185.374 393.721L174.399 393.765L174.36 405.453L176.757 402.54Z" fill="black"/>
<path d="M242.849 409.687V409.223C242.849 408.485 242.556 407.778 242.035 407.258C241.514 406.739 240.807 406.445 240.07 406.445H236.188C235.368 406.453 234.579 406.135 233.993 405.56L224.086 396.126L221.006 400.178C220.765 400.496 220.455 400.75 220.101 400.932C219.747 401.111 219.356 401.21 218.958 401.218C218.561 401.226 218.167 401.143 217.805 400.976C217.444 400.813 217.124 400.567 216.871 400.262C216.621 399.964 216.312 399.726 215.963 399.559C215.614 399.388 215.233 399.297 214.846 399.289H212.778V409.505L242.849 409.687Z" fill="#3F4249"/>
<path d="M242.848 409.687V411.207H212.682V409.521L242.848 409.687Z" fill="black"/>
<path d="M222.101 398.674L228.809 404.119C229.167 404.409 229.619 404.552 230.079 404.532C230.538 404.508 230.973 404.314 231.301 403.992L231.805 403.484L224.085 396.126C223.884 396.071 223.67 396.079 223.474 396.15C223.277 396.221 223.108 396.352 222.99 396.523L222.196 397.662C222.093 397.793 222.026 397.944 222.004 398.111C221.982 398.273 222.004 398.44 222.069 398.591L222.101 398.674Z" fill="black"/>
<path d="M182.807 397.856H183.601C183.966 397.853 184.32 397.984 184.593 398.226C184.866 398.468 185.039 398.801 185.077 399.166L185.248 402.202C185.296 403.143 185.541 404.064 185.966 404.905L186.26 405.453C186.794 406.512 187.066 407.683 187.054 408.87V409.421H171.606C171.611 407.913 172.067 406.445 172.916 405.199C173.553 404.27 173.951 403.198 174.075 402.079L174.412 399.043C174.484 398.706 174.669 398.4 174.938 398.186C175.208 397.968 175.543 397.849 175.889 397.853H176.44" fill="#3F4249"/>
<path d="M171.693 409.378H187.097V410.853H171.693V409.378Z" fill="black"/>
<path d="M180.766 396.463H178.488C178.215 396.463 177.946 396.519 177.698 396.63C177.45 396.741 177.228 396.904 177.048 397.11C176.868 397.313 176.734 397.555 176.654 397.813C176.575 398.075 176.552 398.349 176.586 398.619L177.095 402.754C177.177 403.369 177.479 403.933 177.944 404.341C178.41 404.754 179.007 404.984 179.627 404.988C180.257 404.992 180.867 404.762 181.335 404.341C181.804 403.921 182.098 403.337 182.159 402.71L182.624 398.575C182.662 398.309 182.643 398.039 182.567 397.785C182.491 397.527 182.36 397.289 182.183 397.091C182.006 396.888 181.788 396.729 181.544 396.622C181.299 396.511 181.034 396.46 180.766 396.463Z" fill="black"/>
<path d="M183.72 399.206H175.532" stroke="white" stroke-width="1.4" stroke-linecap="round" stroke-linejoin="round"/>
<path d="M183.465 401.151H175.785" stroke="white" stroke-width="1.4" stroke-linecap="round" stroke-linejoin="round"/>
<path d="M183.255 403.048H175.995" stroke="white" stroke-width="1.4" stroke-linecap="round" stroke-linejoin="round"/>
<path d="M229.766 400.615L226.77 403.441" stroke="white" stroke-width="1.4" stroke-linecap="round" stroke-linejoin="round"/>
<path d="M228.163 399.138L225.083 402.052" stroke="white" stroke-width="1.4" stroke-linecap="round" stroke-linejoin="round"/>
<path d="M226.514 397.745L223.478 400.615" stroke="white" stroke-width="1.4" stroke-linecap="round" stroke-linejoin="round"/>
<path d="M220.116 259.927L224.482 393.947H211.801L200.088 284.057C200.052 283.717 199.894 283.402 199.641 283.172C199.388 282.943 199.06 282.814 198.718 282.811C198.368 282.798 198.026 282.92 197.763 283.152C197.501 283.384 197.337 283.708 197.305 284.057L186.299 393.947H173.629V259.177L220.116 259.927Z" fill="#FFBB00"/>
<path d="M173.34 391.209H187.045L186.799 393.948H173.304L173.34 391.209Z" fill="#FFBB00"/>
<path opacity="0.2" d="M173.341 391.209H179.072L178.949 393.948H173.301L173.341 391.209Z" fill="black"/>
<path opacity="0.2" d="M211.718 393.348L200.088 284.077C200.053 283.737 199.894 283.422 199.641 283.192C199.389 282.962 199.06 282.833 198.719 282.83H200.307C201.924 282.844 203.481 283.446 204.689 284.523C205.896 285.6 206.67 287.079 206.868 288.684L219.172 392.475L211.718 393.348Z" fill="black"/>
<path d="M211.178 391.209H224.721L224.888 393.948H211.472L211.178 391.209Z" fill="#FFBB00"/>
<path opacity="0.2" d="M211.178 391.209H218.989L219.362 393.948H211.472L211.178 391.209Z" fill="black"/>
<path opacity="0.2" d="M184.096 260.177L179.071 391.145L173.629 391.106V260.137L184.096 260.177Z" fill="black"/>
<path d="M207.522 207.679L175.709 216.525L172.717 241.484L172.574 291.915H198.012L199.207 282.132L200.223 291.915H222.184L221.235 236.48L207.522 207.679Z" fill="white"/>
<path d="M221.149 231.229L221.237 236.48L222.852 239.865L221.149 231.229Z" fill="white"/>
<path d="M224.554 228.737L182.978 220.847L182.688 212.703L183.307 229.4H186.59V240.655L174.42 242.191C173.416 242.32 172.396 242.247 171.421 241.976C170.445 241.705 169.534 241.241 168.74 240.613C167.947 239.984 167.287 239.202 166.801 238.315C166.314 237.427 166.01 236.451 165.906 235.444L162.914 205.044C162.695 202.869 163.239 200.686 164.451 198.868C165.664 197.049 167.47 195.709 169.562 195.074C184.97 190.383 186.01 190.466 186.01 190.466L202.68 190.383L218.954 193.288C220.552 193.531 222.048 194.224 223.267 195.284C224.487 196.344 225.381 197.729 225.844 199.277L235.597 232.614C237.299 238.266 232.147 243.703 226.416 242.25L224.765 241.742L224.554 228.737Z" fill="white"/>
<path d="M190.086 214.497C189.477 211.808 189.004 209.09 188.669 206.353L189.288 206.27C189.621 208.987 190.09 211.687 190.693 214.358L190.086 214.497Z" fill="#3F4249"/>
<path d="M187.927 214.506C187.966 214.974 188.143 215.42 188.436 215.787C188.728 216.155 189.123 216.428 189.57 216.572C190.017 216.716 190.496 216.725 190.948 216.596C191.401 216.469 191.805 216.21 192.11 215.853C192.415 215.496 192.608 215.057 192.664 214.59C192.72 214.124 192.638 213.651 192.426 213.232C192.214 212.812 191.883 212.465 191.475 212.233C191.066 212.002 190.598 211.896 190.13 211.93C189.815 211.952 189.508 212.037 189.227 212.179C188.945 212.321 188.695 212.518 188.49 212.757C188.285 212.997 188.13 213.275 188.033 213.575C187.936 213.875 187.9 214.191 187.927 214.506Z" fill="#FFBB00"/>
<path d="M188.879 214.429C188.9 214.715 189.006 214.987 189.182 215.213C189.358 215.438 189.598 215.606 189.87 215.694C190.141 215.784 190.433 215.79 190.709 215.713C190.985 215.636 191.231 215.479 191.417 215.261C191.603 215.044 191.72 214.777 191.754 214.493C191.788 214.208 191.737 213.921 191.607 213.666C191.477 213.411 191.274 213.2 191.025 213.061C190.775 212.921 190.49 212.859 190.205 212.881C189.824 212.913 189.472 213.093 189.223 213.383C188.975 213.673 188.851 214.049 188.879 214.429Z" fill="white"/>
<path opacity="0.1" d="M197.444 214.422C197.444 214.422 200.794 245.279 199.207 282.839" stroke="black" stroke-width="0.89" stroke-miterlimit="10"/>
<path d="M186.156 190.443L184.033 190.911L197.445 213.716L204.117 190.661L199.914 189.737" fill="#21252B"/>
<path d="M181.275 219.641C181.771 219.724 183.434 219.724 184.014 220.18L184.93 220.843L186.84 221.22L186.339 229.483L180.152 230.189L179.489 219.518L181.275 219.641Z" fill="#FC9D9D"/>
<path opacity="0.1" d="M213.504 226.578L213.298 209.115C213.298 209.039 213.326 208.965 213.377 208.908C213.428 208.85 213.497 208.813 213.573 208.803C213.649 208.793 213.726 208.811 213.79 208.853C213.854 208.894 213.9 208.958 213.921 209.032L219.235 227.724L213.504 226.578Z" fill="black"/>
<path d="M202.291 170.964C202.291 170.964 187.712 161.836 187.208 173L187.002 175.909L186.01 190.545C186.018 190.81 186.092 191.069 186.226 191.298C186.36 191.526 186.549 191.718 186.776 191.855L194.774 197.292C194.898 197.363 195.041 197.393 195.184 197.378C195.326 197.363 195.46 197.304 195.567 197.209L201.795 191.851C202.01 191.68 202.176 191.456 202.278 191.202C202.38 190.947 202.415 190.67 202.378 190.399L201.422 181.719C201.612 180.86 201.709 179.983 201.712 179.104C201.858 174.829 202.291 170.964 202.291 170.964Z" fill="#FC9D9D"/>
<path d="M208.48 166.646C208.481 165.668 208.191 164.711 207.648 163.897C207.105 163.084 206.332 162.449 205.429 162.074C204.525 161.7 203.53 161.601 202.57 161.792C201.61 161.983 200.729 162.454 200.037 163.146C199.345 163.837 198.874 164.719 198.684 165.679C198.493 166.638 198.591 167.633 198.966 168.536C199.34 169.44 199.975 170.212 200.789 170.756C201.603 171.299 202.559 171.588 203.538 171.588C204.188 171.59 204.831 171.463 205.431 171.216C206.032 170.968 206.578 170.604 207.037 170.145C207.496 169.686 207.86 169.14 208.108 168.54C208.356 167.939 208.482 167.296 208.48 166.646Z" fill="#21252B"/>
<path d="M203.911 163.034C203.911 163.034 209.071 184.711 197.958 186.168C188.32 187.454 187.241 172.46 187.241 172.46L187.638 162.74L203.911 163.034Z" fill="#FC9D9D"/>
<path d="M203.248 164.353L193.4 165.059C193.106 165.077 192.819 165.155 192.556 165.287C192.292 165.419 192.059 165.603 191.869 165.829C191.679 166.054 191.536 166.315 191.45 166.597C191.364 166.879 191.336 167.175 191.368 167.468C191.395 167.76 191.364 168.055 191.276 168.335C191.188 168.615 191.045 168.875 190.855 169.1C190.665 169.324 190.433 169.508 190.172 169.642C189.91 169.775 189.625 169.855 189.332 169.877C189.248 169.878 189.166 169.897 189.09 169.932C189.014 169.967 188.946 170.017 188.891 170.08C188.836 170.143 188.795 170.217 188.771 170.297C188.746 170.377 188.738 170.461 188.748 170.544L188.875 172.703C188.884 172.82 188.847 172.936 188.774 173.028C188.7 173.12 188.595 173.181 188.478 173.199C188.272 173.199 187.982 173.036 187.982 172.826L187.585 170.79L187.169 170.127L184.791 171.588C184.791 171.588 181.013 165.817 182.838 160.582C183.878 157.594 186.807 156.514 188.28 156.304C188.504 156.284 188.72 156.209 188.908 156.086C189.096 155.963 189.252 155.795 189.36 155.597C189.943 154.645 191.312 152.942 194.428 153.065C195.299 153.072 196.154 153.296 196.917 153.716C197.679 154.137 198.324 154.741 198.794 155.474C198.981 155.784 199.275 156.013 199.62 156.121C199.966 156.229 200.338 156.206 200.668 156.058C201.323 155.762 202.043 155.633 202.76 155.684C203.478 155.734 204.172 155.962 204.78 156.348C207.939 158.3 206.653 163.821 203.248 164.353Z" fill="#21252B"/>
<path opacity="0.15" d="M186.923 176.572C186.923 176.572 187.88 176.616 188.376 176.199L186.788 178.608L186.923 176.572Z" fill="black"/>
<path d="M187.462 170.758C187.371 170.483 187.22 170.232 187.02 170.023C186.82 169.814 186.576 169.651 186.305 169.548C186.035 169.444 185.744 169.403 185.456 169.425C185.167 169.448 184.887 169.534 184.636 169.679C182.227 170.758 182.687 176.283 186.799 176.572C188.958 176.739 188.542 175.493 188.168 173.83L187.462 170.758Z" fill="#FC9D9D"/>
<path opacity="0.15" d="M184.47 171.175C184.808 170.932 185.225 170.827 185.637 170.881C185.835 170.93 186.021 171.018 186.184 171.139C186.348 171.26 186.486 171.413 186.59 171.588C186.839 172.064 186.981 172.59 187.006 173.128L187.09 173.624C187.09 173.791 187.006 173.914 186.879 173.914C186.752 173.914 186.59 173.83 186.59 173.707L186.506 173.207C186.491 172.768 186.362 172.34 186.133 171.965C185.927 171.671 185.76 171.465 185.554 171.465C185.415 171.433 185.27 171.435 185.132 171.471C184.994 171.507 184.866 171.575 184.76 171.671C184.593 171.715 184.466 171.715 184.387 171.588C184.347 171.342 184.395 171.215 184.47 171.175Z" fill="black"/>
<path opacity="0.15" d="M202.163 187.911L201.79 184.422C200.838 185.379 198.178 186.748 195.186 186.085C193.685 185.664 192.333 184.829 191.284 183.676C191.265 183.656 191.242 183.64 191.217 183.629C191.192 183.618 191.165 183.613 191.137 183.613C191.11 183.613 191.083 183.618 191.057 183.629C191.032 183.64 191.009 183.656 190.99 183.676C190.952 183.715 190.931 183.767 190.931 183.821C190.931 183.875 190.952 183.927 190.99 183.966C192.33 185.464 194.159 186.437 196.15 186.709C197.916 187.89 200.079 188.322 202.163 187.911Z" fill="black"/>
<g opacity="0.15">
<path opacity="0.15" d="M198.759 181.814C198.301 181.824 197.843 181.865 197.39 181.937C197.313 181.937 197.239 181.906 197.185 181.852C197.131 181.798 197.1 181.724 197.1 181.647C197.1 181.571 197.131 181.497 197.185 181.443C197.239 181.388 197.313 181.358 197.39 181.358C197.821 181.343 198.25 181.301 198.676 181.231C198.715 181.227 198.755 181.231 198.792 181.244C198.83 181.257 198.863 181.278 198.892 181.306C198.92 181.334 198.942 181.367 198.955 181.404C198.969 181.441 198.973 181.481 198.97 181.52C199.053 181.556 198.886 181.723 198.759 181.814Z" fill="black"/>
</g>
<g opacity="0.15">
<path opacity="0.15" d="M199.214 180.477C196.765 180.851 195.686 179.564 195.313 178.89C195.293 178.86 195.281 178.826 195.274 178.791C195.268 178.756 195.269 178.721 195.277 178.686C195.293 178.616 195.336 178.555 195.396 178.517C195.457 178.478 195.53 178.465 195.6 178.481C195.67 178.497 195.731 178.54 195.769 178.6C196.142 179.263 197.357 180.636 200.254 179.68C200.287 179.663 200.322 179.652 200.359 179.649C200.395 179.646 200.432 179.651 200.467 179.662C200.502 179.674 200.534 179.692 200.561 179.716C200.589 179.74 200.611 179.77 200.627 179.803C200.644 179.836 200.655 179.871 200.658 179.908C200.661 179.945 200.657 179.982 200.645 180.017C200.634 180.052 200.615 180.084 200.591 180.113C200.567 180.14 200.538 180.163 200.504 180.18C200.083 180.312 199.652 180.412 199.214 180.477Z" fill="black"/>
</g>
<path d="M197.429 173.166C197.429 172.993 197.378 172.824 197.282 172.681C197.186 172.537 197.049 172.425 196.889 172.359C196.73 172.294 196.554 172.277 196.384 172.311C196.215 172.344 196.059 172.428 195.937 172.551C195.815 172.673 195.732 172.829 195.699 172.998C195.666 173.168 195.684 173.344 195.751 173.503C195.817 173.662 195.93 173.798 196.074 173.894C196.218 173.989 196.387 174.04 196.56 174.039C196.675 174.041 196.789 174.02 196.896 173.977C197.003 173.933 197.1 173.869 197.181 173.788C197.262 173.706 197.326 173.609 197.369 173.502C197.411 173.396 197.432 173.281 197.429 173.166Z" fill="black"/>
<path d="M197.138 172.876C197.147 172.845 197.149 172.813 197.143 172.782C197.137 172.75 197.124 172.721 197.105 172.695C197.086 172.67 197.061 172.649 197.032 172.635C197.004 172.621 196.972 172.613 196.94 172.613C196.908 172.613 196.877 172.621 196.848 172.635C196.82 172.649 196.795 172.67 196.776 172.695C196.756 172.721 196.743 172.75 196.738 172.782C196.732 172.813 196.733 172.845 196.742 172.876C196.733 172.907 196.732 172.939 196.738 172.97C196.743 173.001 196.756 173.031 196.776 173.057C196.795 173.082 196.82 173.103 196.848 173.117C196.877 173.131 196.908 173.138 196.94 173.138C196.972 173.138 197.004 173.131 197.032 173.117C197.061 173.103 197.086 173.082 197.105 173.057C197.124 173.031 197.137 173.001 197.143 172.97C197.149 172.939 197.147 172.907 197.138 172.876Z" fill="white"/>
<path d="M204.284 173.166C204.284 172.994 204.233 172.825 204.137 172.681C204.041 172.538 203.905 172.426 203.745 172.36C203.585 172.294 203.41 172.277 203.241 172.31C203.071 172.344 202.915 172.427 202.793 172.549C202.671 172.671 202.588 172.827 202.554 172.996C202.521 173.165 202.538 173.341 202.604 173.5C202.67 173.66 202.782 173.796 202.926 173.892C203.069 173.988 203.238 174.039 203.411 174.039C203.526 174.042 203.641 174.021 203.748 173.978C203.855 173.935 203.953 173.871 204.034 173.789C204.116 173.708 204.18 173.611 204.223 173.503C204.266 173.396 204.287 173.282 204.284 173.166Z" fill="black"/>
<path d="M203.993 172.876C203.978 172.835 203.951 172.8 203.916 172.775C203.881 172.75 203.838 172.736 203.795 172.736C203.751 172.736 203.709 172.75 203.673 172.775C203.638 172.8 203.611 172.835 203.597 172.876C203.611 172.917 203.638 172.953 203.673 172.978C203.709 173.003 203.751 173.016 203.795 173.016C203.838 173.016 203.881 173.003 203.916 172.978C203.951 172.953 203.978 172.917 203.993 172.876Z" fill="white"/>
<g opacity="0.15">
<path opacity="0.15" d="M199.922 178.275L198.759 178.358C198.592 178.358 198.469 178.275 198.469 178.152C198.469 178.029 198.553 177.862 198.676 177.862L199.839 177.779C199.909 177.773 199.979 177.754 200.042 177.722C200.106 177.69 200.162 177.646 200.208 177.592C200.255 177.538 200.29 177.476 200.313 177.409C200.335 177.341 200.344 177.27 200.339 177.199C200.334 177.128 200.314 177.059 200.282 176.995C200.251 176.932 200.206 176.875 200.153 176.829C200.099 176.782 200.036 176.747 199.969 176.725C199.901 176.702 199.83 176.694 199.759 176.699C199.592 176.699 199.465 176.616 199.465 176.489C199.465 176.362 199.549 176.199 199.676 176.199C199.955 176.18 200.231 176.269 200.447 176.446C200.663 176.624 200.803 176.878 200.839 177.155C200.859 177.29 200.851 177.428 200.816 177.559C200.78 177.691 200.717 177.814 200.63 177.919C200.543 178.025 200.435 178.111 200.314 178.172C200.192 178.233 200.058 178.268 199.922 178.275Z" fill="black"/>
</g>
<path d="M205.491 170.884H193.278C192.937 170.885 192.61 171.021 192.369 171.262C192.128 171.503 191.992 171.83 191.992 172.17V173.167C191.992 174.092 192.359 174.979 193.013 175.634C193.668 176.288 194.555 176.656 195.48 176.656C196.406 176.656 197.293 176.288 197.947 175.634C198.602 174.979 198.969 174.092 198.969 173.167V172.17C198.976 172.025 198.953 171.88 198.903 171.744C198.852 171.607 198.775 171.482 198.676 171.376H200.049C199.867 171.602 199.765 171.881 199.759 172.17V173.167C199.759 174.092 200.127 174.979 200.781 175.634C201.435 176.288 202.322 176.656 203.248 176.656C204.173 176.656 205.061 176.288 205.715 175.634C206.369 174.979 206.737 174.092 206.737 173.167V172.17C206.755 172 206.735 171.829 206.679 171.667C206.623 171.506 206.533 171.359 206.414 171.236C206.296 171.113 206.151 171.018 205.992 170.958C205.832 170.897 205.661 170.872 205.491 170.884ZM198.513 172.127V173.127C198.485 173.901 198.157 174.634 197.599 175.172C197.042 175.71 196.297 176.011 195.522 176.011C194.747 176.011 194.002 175.71 193.445 175.172C192.887 174.634 192.56 173.901 192.531 173.127V172.127C192.536 171.918 192.621 171.719 192.769 171.571C192.917 171.423 193.116 171.338 193.325 171.333H197.691C197.894 171.362 198.083 171.455 198.23 171.597C198.378 171.74 198.476 171.925 198.513 172.127ZM206.36 173.167C206.375 173.569 206.308 173.969 206.164 174.345C206.021 174.721 205.803 175.064 205.523 175.353C205.244 175.643 204.91 175.873 204.539 176.03C204.169 176.187 203.771 176.269 203.369 176.269C202.967 176.269 202.569 176.187 202.199 176.03C201.828 175.873 201.494 175.643 201.215 175.353C200.935 175.064 200.717 174.721 200.574 174.345C200.43 173.969 200.364 173.569 200.378 173.167V172.17C200.384 171.962 200.47 171.763 200.617 171.616C200.765 171.468 200.963 171.382 201.172 171.376H205.578C205.787 171.382 205.986 171.467 206.134 171.615C206.281 171.762 206.367 171.962 206.372 172.17L206.36 173.167Z" fill="black"/>
<path d="M208.813 224.252L215.417 218.85C216.111 218.29 216.975 217.984 217.866 217.981H223.765C223.871 217.971 223.979 217.981 224.082 218.013C224.184 218.046 224.279 218.098 224.361 218.168C224.442 218.237 224.509 218.323 224.557 218.419C224.604 218.515 224.632 218.62 224.638 218.727V218.811C224.635 219.016 224.557 219.213 224.42 219.365C224.283 219.518 224.095 219.616 223.892 219.64L217.993 219.974L225.094 220.93C225.226 220.954 225.351 221.009 225.458 221.091C225.565 221.172 225.65 221.279 225.707 221.401C225.764 221.523 225.79 221.656 225.784 221.79C225.779 221.925 225.741 222.056 225.674 222.172C225.603 222.295 225.5 222.397 225.376 222.467C225.253 222.537 225.113 222.572 224.971 222.569H224.927L223.225 222.446C223.324 222.451 223.421 222.475 223.51 222.517C223.599 222.56 223.68 222.62 223.745 222.694C223.811 222.768 223.861 222.854 223.894 222.949C223.925 223.042 223.938 223.141 223.931 223.24C223.909 223.434 223.815 223.614 223.669 223.743C223.522 223.873 223.333 223.944 223.137 223.942L218.529 224.069L221.351 224.942C221.485 225.001 221.595 225.101 221.667 225.227C221.739 225.354 221.767 225.501 221.748 225.645C221.728 225.785 221.658 225.913 221.551 226.005C221.443 226.096 221.306 226.146 221.165 226.145L217.636 225.812C217.636 225.812 216.763 230.63 210.865 230.546L209.4 231.312L207.201 224.625L208.813 224.252Z" fill="#FC9D9D"/>
<path d="M179.572 221.676L180.112 230.233L208.146 224.335L210.805 232.019L175.876 247.259C174.9 247.688 173.837 247.879 172.773 247.818C171.708 247.757 170.674 247.444 169.754 246.906C168.834 246.368 168.054 245.619 167.479 244.721C166.904 243.824 166.55 242.803 166.446 241.742L164.945 226.264L179.572 221.676Z" fill="white"/>
<path opacity="0.1" d="M177.202 230.98H177.285L183.35 229.483L179.445 210.545C179.434 210.488 179.403 210.437 179.357 210.403C179.311 210.368 179.254 210.353 179.197 210.358C179.139 210.363 179.086 210.39 179.048 210.433C179.009 210.475 178.988 210.531 178.988 210.588L180.028 227.991L177.079 230.372C176.746 230.63 176.952 230.98 177.202 230.98Z" fill="black"/>
<path opacity="0.1" d="M223.43 227.907V228.57L186.799 221.176L186.878 220.72L223.43 227.907Z" fill="black"/>
<path opacity="0.1" d="M222.808 241.028L222.852 241.489L203.403 235.508L204.109 235.052L222.808 241.028Z" fill="black"/>
<path opacity="0.15" d="M218.283 221.633L223.292 222.172V222.569L218.223 222.03L218.283 221.633Z" fill="black"/>
<path d="M186.799 221.176L224.506 228.777L225.506 242.068L185.509 229.11L186.303 229.483L186.799 221.176Z" fill="white"/>
<path opacity="0.1" d="M181.771 191.51L181.573 199.61L184.748 199.257L182.632 202.079L197.798 214.422L182.807 191.205L181.771 191.51Z" fill="black"/>
<path opacity="0.1" d="M183.267 229.483L198.385 237.5L204.117 235.048L186.299 229.491L186.339 228.868L183.267 229.483Z" fill="black"/>
<path opacity="0.1" d="M162.914 205.103L164.993 226.264L166.486 241.714C166.582 242.69 166.889 243.633 167.386 244.478C167.884 245.322 168.559 246.049 169.366 246.606C170.172 247.163 171.091 247.538 172.057 247.704C173.023 247.87 174.014 247.824 174.96 247.568C173.633 247.213 172.446 246.463 171.556 245.417C170.665 244.372 170.114 243.08 169.975 241.714L167.593 222.898L165.517 201.761C165.357 200.052 165.657 198.33 166.387 196.776C165.152 197.758 164.186 199.036 163.578 200.493C162.971 201.949 162.742 203.535 162.914 205.103Z" fill="black"/>
<path opacity="0.1" d="M172.574 291.876H181.274L181.381 251.371C181.425 250.484 181.687 249.622 182.143 248.861C182.599 248.1 183.236 247.462 183.997 247.005L204.117 235.048L180.425 245.223L174.943 247.549C174.197 247.696 173.441 247.78 172.681 247.799L172.574 291.876Z" fill="black"/>
<path d="M205.935 207.984C205.768 216.715 206.586 218.628 207.499 219.406C208.173 219.939 208.96 220.311 209.801 220.493L209.916 219.89L209.856 220.192L209.916 219.89C209.18 219.73 208.489 219.406 207.896 218.942C207.237 218.378 206.379 216.632 206.546 207.996L205.935 207.984Z" fill="#B2B6BB"/>
<path d="M208.989 219.709L208.877 220.118C208.813 220.353 208.951 220.595 209.186 220.66L210.381 220.986C210.615 221.05 210.858 220.912 210.922 220.677L211.034 220.268C211.098 220.033 210.96 219.791 210.725 219.727L209.53 219.4C209.296 219.336 209.053 219.475 208.989 219.709Z" fill="#FFBB00"/>
<path d="M211.336 206.889C214.464 212.671 215.679 215.961 215.159 217.231C214.843 217.916 214.38 218.522 213.801 219.005L214.178 219.485C214.842 218.94 215.372 218.248 215.726 217.465C216.345 215.949 215.23 212.802 211.872 206.599L211.336 206.889Z" fill="#B2B6BB"/>
<path d="M212.96 219.872L213.248 220.184C213.412 220.363 213.691 220.375 213.87 220.21L214.781 219.372C214.961 219.207 214.972 218.928 214.807 218.749L214.52 218.436C214.355 218.257 214.076 218.246 213.897 218.411L212.986 219.249C212.807 219.414 212.795 219.692 212.96 219.872Z" fill="#FFBB00"/>
<path d="M212.015 206.289C211.411 204.988 210.729 203.725 209.971 202.507C209.57 201.984 209.035 201.58 208.423 201.336C208.304 201.336 208.102 200.3 207.955 199.435C207.828 198.669 207.693 197.78 207.455 197.582C207.324 197.497 207.164 197.465 207.011 197.494C206.857 197.522 206.72 197.61 206.629 197.737C206.478 198.011 206.681 198.888 206.835 199.646C207.014 200.503 207.208 201.559 207.089 201.586C206.646 202.055 206.322 202.625 206.145 203.245C205.89 204.688 205.743 206.147 205.708 207.611C205.708 208.536 206.046 208.575 206.315 208.599C206.712 208.635 206.871 208.337 206.915 207.297C206.982 205.65 206.915 202.932 207.986 202.67C209.078 202.519 210.173 205.162 210.888 206.611C211.336 207.516 211.559 207.559 211.908 207.405C212.154 207.274 212.392 207.099 212.015 206.289Z" fill="#FFBB00"/>
<path d="M206.379 194.569L205.811 194.746L206.692 197.577L207.261 197.4L206.379 194.569Z" fill="#3F4249"/>
<path d="M182.406 191.34L182.279 198.904H185.451L183.335 201.726L197.446 213.716L184.042 190.796L182.406 191.34Z" fill="white"/>
<path opacity="0.1" d="M206.248 190.76L208.225 197.836L205.391 198.225L207.855 200.241L197.444 214.421L205.283 190.72L206.248 190.76Z" fill="black"/>
<path d="M205.661 190.749L207.455 197.372L204.7 198.071L207.165 200.087L197.592 213.724L204.121 190.63L205.661 190.749Z" fill="white"/>
<path opacity="0.1" d="M218.958 267.583L212.079 269.79L205.204 267.583V252.51H218.958V267.583Z" fill="black"/>
<path d="M218.251 266.968L212.079 269.083L205.907 266.968V252.51H218.251V266.968Z" fill="white"/>
<path d="M305.918 402.234L286.33 406.909L292.994 399.607C294.117 398.38 295.26 396.805 294.979 395.166L294.606 389.082L305.35 386.839L305.918 402.234Z" fill="#FC9D9D"/>
<path opacity="0.15" d="M303.511 395.519L303.488 395.404C303.474 395.237 303.427 395.07 303.349 394.92C303.271 394.773 303.164 394.638 303.035 394.531C302.905 394.42 302.755 394.34 302.594 394.289C302.433 394.237 302.263 394.221 302.095 394.237L294.986 394.801L294.795 393.539L305.306 391.304L305.905 401.801L297.117 402.679L299.709 400.944C301.483 399.742 303.801 397.626 303.511 395.519Z" fill="black"/>
<path d="M306.54 398.468L308.172 406.139C308.237 406.433 308.244 406.735 308.19 407.032C308.137 407.326 308.025 407.608 307.861 407.862C307.698 408.112 307.485 408.33 307.237 408.497C306.988 408.667 306.708 408.782 306.413 408.842L295.486 411.168H279.61C279.486 411.195 279.358 411.199 279.233 411.176C279.108 411.152 278.989 411.108 278.882 411.037C278.775 410.969 278.684 410.878 278.612 410.775C278.541 410.668 278.492 410.549 278.467 410.425C278.277 409.533 278.373 408.6 278.74 407.762C279.108 406.929 279.728 406.227 280.515 405.762L288.088 404.488L292.942 398.416C293.256 398.043 293.689 397.793 294.168 397.706C294.647 397.618 295.141 397.702 295.566 397.94L299.499 400.095C299.787 400.242 300.105 400.317 300.428 400.317C300.751 400.317 301.069 400.242 301.357 400.095L305.27 397.88C305.389 397.809 305.522 397.769 305.66 397.761C305.797 397.757 305.935 397.781 306.06 397.841C306.185 397.896 306.294 397.983 306.378 398.095C306.461 398.206 306.517 398.333 306.54 398.468Z" fill="#3F4249"/>
<path opacity="0.5" d="M306.413 408.826L295.395 411.168H279.61C279.486 411.196 279.358 411.2 279.233 411.176C279.108 411.153 278.988 411.109 278.882 411.037C278.775 410.97 278.684 410.879 278.613 410.775C278.541 410.668 278.492 410.549 278.467 410.426C278.395 410.109 278.366 409.783 278.379 409.458L294.351 409.418L308.207 406.473C308.249 407.016 308.09 407.556 307.759 407.993C307.428 408.426 306.949 408.723 306.413 408.826Z" fill="black"/>
<path d="M293.744 401.463C293.774 401.455 293.801 401.443 293.824 401.424C293.848 401.404 293.866 401.38 293.879 401.352C293.905 401.297 293.912 401.233 293.9 401.174C293.887 401.11 293.854 401.055 293.807 401.015L291.858 399.65C291.806 399.631 291.749 399.627 291.696 399.646C291.642 399.662 291.596 399.694 291.565 399.742C291.534 399.789 291.519 399.845 291.523 399.9C291.527 399.956 291.55 400.007 291.588 400.047L293.537 401.412C293.598 401.451 293.671 401.471 293.744 401.463Z" fill="white"/>
<path d="M292.705 402.709C292.734 402.701 292.761 402.69 292.784 402.67C292.808 402.654 292.827 402.63 292.84 402.602C292.866 402.547 292.874 402.483 292.861 402.42C292.848 402.36 292.815 402.301 292.768 402.261L290.819 400.901C290.762 400.873 290.698 400.865 290.637 400.881C290.575 400.893 290.519 400.924 290.478 400.972C290.451 401.027 290.444 401.091 290.458 401.154C290.472 401.214 290.505 401.269 290.553 401.309L292.502 402.674C292.563 402.709 292.635 402.725 292.705 402.709Z" fill="white"/>
<path d="M291.624 403.944C291.654 403.936 291.681 403.924 291.705 403.908C291.728 403.888 291.747 403.864 291.759 403.837C291.786 403.781 291.794 403.714 291.781 403.654C291.768 403.591 291.735 403.535 291.688 403.495L289.739 402.135C289.682 402.107 289.618 402.099 289.556 402.115C289.495 402.127 289.439 402.159 289.398 402.206C289.371 402.262 289.364 402.329 289.377 402.389C289.391 402.452 289.425 402.508 289.473 402.547L291.422 403.908C291.483 403.944 291.555 403.96 291.624 403.944Z" fill="white"/>
<path d="M291.081 272.484L284.318 331.154L293.454 393.3H306.981L302.23 331.154L312.832 291.677L311.371 271.206L291.081 272.484Z" fill="#FFBB00"/>
<path d="M330.952 404.5L310.816 405.004L318.854 399.246C320.207 398.277 320.692 396.773 320.767 395.11L320.37 388.812L331.345 388.851L330.952 404.5Z" fill="#FC9D9D"/>
<path opacity="0.15" d="M328.708 397.158V397.043C328.73 396.876 328.718 396.706 328.673 396.543C328.628 396.38 328.551 396.225 328.446 396.094C328.342 395.96 328.212 395.848 328.064 395.769C327.916 395.686 327.753 395.634 327.585 395.614L320.536 394.686L320.611 393.412H331.356L331.046 404.076L322.274 403.107L325.172 401.948C326.145 401.551 326.991 400.897 327.615 400.051C328.238 399.206 328.617 398.206 328.708 397.158Z" fill="black"/>
<path opacity="0.2" d="M307.707 403.952C307.707 403.952 300.761 405.866 301.321 409.906L308.628 408.033L307.707 403.952Z" fill="black"/>
<path d="M332.341 400.944V408.79C332.343 409.092 332.286 409.386 332.173 409.663C332.059 409.941 331.891 410.195 331.679 410.406C331.467 410.62 331.215 410.787 330.938 410.902C330.66 411.013 330.362 411.072 330.062 411.068H303.354C303.227 411.068 303.101 411.045 302.984 410.997C302.866 410.949 302.759 410.878 302.67 410.787C302.58 410.699 302.509 410.592 302.461 410.473C302.413 410.358 302.389 410.231 302.389 410.104C302.39 409.191 302.678 408.298 303.212 407.556C303.746 406.814 304.5 406.258 305.366 405.969L311.395 403.984L319.048 398.075C319.432 397.777 319.907 397.622 320.393 397.634C320.879 397.65 321.345 397.829 321.711 398.15L325.113 401.047C325.362 401.254 325.657 401.397 325.974 401.468C326.29 401.536 326.618 401.528 326.931 401.444L331.221 400.091C331.353 400.047 331.494 400.031 331.631 400.055C331.769 400.079 331.899 400.135 332.01 400.218C332.12 400.301 332.208 400.412 332.266 400.539C332.324 400.666 332.35 400.805 332.341 400.944Z" fill="#3F4249"/>
<path opacity="0.5" d="M330.062 411.069H303.354C303.227 411.069 303.101 411.045 302.984 410.997C302.866 410.95 302.759 410.878 302.67 410.787C302.58 410.7 302.509 410.592 302.461 410.473C302.413 410.358 302.389 410.231 302.389 410.104C302.388 409.779 302.427 409.453 302.505 409.136H332.301C332.231 409.675 331.964 410.172 331.551 410.529C331.138 410.886 330.608 411.077 330.062 411.069Z" fill="black"/>
<path d="M319.202 401.214C319.232 401.214 319.261 401.206 319.288 401.195C319.315 401.179 319.338 401.163 319.357 401.139C319.394 401.087 319.414 401.028 319.414 400.964C319.414 400.901 319.394 400.841 319.357 400.79L317.734 399.051C317.683 399.015 317.622 398.996 317.559 398.996C317.496 398.996 317.435 399.015 317.384 399.051C317.346 399.103 317.325 399.162 317.325 399.226C317.325 399.289 317.346 399.349 317.384 399.4L319.008 401.139C319.061 401.187 319.13 401.214 319.202 401.214Z" fill="white"/>
<path d="M317.924 402.222C317.954 402.222 317.984 402.214 318.01 402.199C318.037 402.187 318.061 402.167 318.079 402.143C318.118 402.091 318.138 402.032 318.138 401.968C318.138 401.905 318.118 401.845 318.079 401.794L316.455 400.055C316.405 400.019 316.345 400 316.283 400C316.221 400 316.16 400.019 316.11 400.055C316.071 400.107 316.05 400.166 316.05 400.23C316.05 400.293 316.071 400.353 316.11 400.404L317.733 402.143C317.785 402.191 317.853 402.222 317.924 402.222Z" fill="white"/>
<path d="M316.615 403.207C316.644 403.207 316.673 403.199 316.699 403.187C316.726 403.171 316.748 403.151 316.766 403.127C316.804 403.076 316.825 403.016 316.825 402.953C316.825 402.889 316.804 402.83 316.766 402.778L315.146 401.039C315.095 401.004 315.034 400.984 314.972 400.984C314.909 400.984 314.848 401.004 314.797 401.039C314.758 401.091 314.737 401.151 314.737 401.214C314.737 401.278 314.758 401.337 314.797 401.389L316.42 403.127C316.473 403.179 316.542 403.207 316.615 403.207Z" fill="white"/>
<path opacity="0.2" d="M309.478 291.038L297.479 331.519L302.449 393.296H307.346L302.298 332.019L312.479 293.106L312.038 291.098C311.975 290.809 311.817 290.55 311.589 290.363C311.361 290.175 311.077 290.069 310.781 290.062C310.486 290.055 310.197 290.148 309.961 290.325C309.724 290.502 309.555 290.753 309.478 291.038Z" fill="black"/>
<path d="M332.511 270.024V393.3H319.413L307.649 271.325L332.511 270.024Z" fill="#FFBB00"/>
<path opacity="0.2" d="M290.597 276.95L332.511 273.183L332.622 270.861L290.93 273.873L290.597 276.95Z" fill="black"/>
<path d="M315.852 198.829L301.226 198.483L287.382 202.849C286.084 203.173 284.918 203.892 284.045 204.905C283.172 205.918 282.633 207.177 282.504 208.508L280.023 232.106L290.442 233.384L289.616 273.949L333.487 271.389L335.043 231.178L341.259 230.082L336.043 206.472C335.748 205.141 335.056 203.931 334.06 203C333.063 202.071 331.807 201.464 330.459 201.261L315.852 198.829Z" fill="#FFBB00"/>
<path d="M301.834 193.899C301.25 194.287 300.544 194.447 299.85 194.348C296.623 194.134 294.174 193.931 293.614 190.732C292.788 185.696 292.82 174.377 296.238 167.595C299.123 168.753 299.611 169.357 299.611 169.357C299.611 169.357 303.581 167.726 303.66 167.674C303.644 167.63 307.073 189.72 301.834 193.899Z" fill="#21252B"/>
<path d="M311.534 189.689L311.26 162.447C312.614 162.102 314.976 163.701 315.69 164.368C321.402 169.769 323.799 181.811 323.835 189.998C323.874 193.173 321.894 193.78 318.857 194.673C315.821 195.566 312.241 196.209 310.76 194.788C310.038 194.034 311.534 189.689 311.534 189.689Z" fill="#21252B"/>
<path d="M315.455 198.804L313.867 182.556L301.92 187.716L301.317 198.725L306.663 207.119C306.752 207.258 306.871 207.374 307.013 207.458C307.154 207.542 307.314 207.591 307.478 207.602C307.643 207.613 307.807 207.585 307.959 207.52C308.11 207.455 308.244 207.356 308.35 207.23L315.455 198.804Z" fill="#FC9D9D"/>
<path opacity="0.15" d="M301.678 191.534L301.868 188.867L306.341 189.788L306.302 189.835C307.495 189.671 308.646 189.287 309.699 188.704C309.771 188.663 309.856 188.653 309.935 188.675C310.015 188.697 310.082 188.75 310.122 188.821C310.163 188.893 310.173 188.977 310.151 189.057C310.129 189.136 310.077 189.203 310.005 189.244C308.812 189.913 307.495 190.333 306.135 190.478C305.964 190.478 305.79 190.506 305.611 190.51C303.984 191.736 301.678 191.534 301.678 191.534Z" fill="black"/>
<path d="M304.515 241.311L303.504 240.728L297.283 251.503L298.293 252.086L304.515 241.311Z" fill="#21252B"/>
<path d="M305.565 189.792H306.172C310.665 189.724 314.356 185.632 314.245 181.06L314.023 169.46C314.009 168.732 313.711 168.039 313.191 167.529C312.671 167.019 311.972 166.733 311.245 166.733L300.603 166.86C300.137 166.869 299.677 166.97 299.25 167.158C298.824 167.347 298.438 167.618 298.117 167.956C297.796 168.294 297.546 168.693 297.381 169.129C297.215 169.565 297.138 170.03 297.154 170.496L297.364 181.303C297.487 185.823 300.885 189.994 305.565 189.792Z" fill="#FC9D9D"/>
<path d="M306.087 184.005L305.837 184.497C305.674 184.786 305.441 185.031 305.161 185.21C304.88 185.389 304.56 185.497 304.228 185.523C303.897 185.55 303.563 185.495 303.257 185.363C302.952 185.231 302.684 185.026 302.476 184.767L302.079 184.259C301.999 184.148 302.043 183.997 302.178 184.001L305.921 183.787C306.048 183.747 306.139 183.898 306.087 184.005Z" fill="white"/>
<path d="M306.576 179.651C306.399 179.683 306.216 179.663 306.051 179.591C305.886 179.52 305.746 179.401 305.648 179.25C305.551 179.099 305.5 178.923 305.503 178.743C305.506 178.563 305.562 178.388 305.664 178.241C305.767 178.093 305.91 177.979 306.078 177.912C306.245 177.846 306.428 177.832 306.604 177.87C306.78 177.907 306.94 177.997 307.065 178.126C307.191 178.255 307.274 178.419 307.306 178.596C307.348 178.832 307.294 179.076 307.158 179.273C307.021 179.471 306.812 179.606 306.576 179.651Z" fill="#21252B"/>
<path d="M306.049 179.012C306.026 179.016 306.004 179.016 305.982 179.011C305.959 179.007 305.939 178.998 305.92 178.985C305.902 178.973 305.886 178.956 305.873 178.937C305.861 178.919 305.852 178.897 305.848 178.876C305.844 178.853 305.845 178.831 305.849 178.809C305.854 178.787 305.863 178.766 305.875 178.747C305.888 178.729 305.904 178.713 305.923 178.701C305.942 178.688 305.963 178.68 305.985 178.676C306.007 178.671 306.031 178.671 306.053 178.676C306.076 178.68 306.096 178.689 306.116 178.702C306.135 178.715 306.15 178.732 306.163 178.751C306.175 178.77 306.183 178.792 306.187 178.814C306.194 178.859 306.184 178.904 306.158 178.941C306.132 178.978 306.093 179.004 306.049 179.012Z" fill="white"/>
<path d="M299.63 179.83C299.453 179.861 299.272 179.84 299.108 179.769C298.944 179.697 298.805 179.579 298.708 179.428C298.611 179.278 298.562 179.102 298.565 178.923C298.568 178.744 298.624 178.571 298.726 178.424C298.828 178.277 298.972 178.163 299.138 178.098C299.305 178.032 299.487 178.018 299.662 178.056C299.836 178.093 299.996 178.182 300.121 178.311C300.245 178.44 300.328 178.602 300.36 178.779C300.382 178.896 300.38 179.015 300.355 179.132C300.33 179.248 300.282 179.359 300.214 179.456C300.146 179.554 300.059 179.637 299.959 179.701C299.859 179.766 299.747 179.809 299.63 179.83Z" fill="#21252B"/>
<path d="M299.051 179.142C299.028 179.146 299.005 179.146 298.984 179.141C298.962 179.136 298.941 179.127 298.923 179.114C298.904 179.102 298.889 179.085 298.876 179.066C298.864 179.047 298.856 179.026 298.852 179.004C298.847 178.971 298.851 178.937 298.864 178.906C298.878 178.875 298.9 178.849 298.929 178.831C298.957 178.813 298.99 178.804 299.024 178.805C299.058 178.805 299.09 178.816 299.118 178.836C299.145 178.855 299.167 178.882 299.179 178.913C299.191 178.944 299.194 178.978 299.186 179.011C299.179 179.044 299.163 179.074 299.139 179.098C299.114 179.121 299.083 179.136 299.051 179.142Z" fill="white"/>
<g opacity="0.15">
<path opacity="0.15" d="M303.418 182.517L304.609 182.41C304.744 182.41 304.878 182.267 304.835 182.144C304.791 182.021 304.692 181.874 304.569 181.918L303.378 182.025C303.308 182.032 303.238 182.025 303.171 182.005C303.104 181.985 303.042 181.952 302.988 181.908C302.934 181.863 302.888 181.809 302.855 181.747C302.822 181.686 302.801 181.618 302.795 181.548C302.788 181.479 302.794 181.409 302.814 181.342C302.834 181.275 302.868 181.212 302.912 181.158C302.956 181.104 303.011 181.059 303.072 181.026C303.134 180.993 303.201 180.972 303.271 180.965C303.41 180.965 303.541 180.822 303.497 180.699C303.454 180.576 303.354 180.429 303.235 180.473C302.955 180.505 302.699 180.645 302.52 180.863C302.342 181.08 302.255 181.359 302.279 181.64C302.296 181.772 302.339 181.9 302.405 182.016C302.472 182.132 302.56 182.233 302.666 182.314C302.772 182.396 302.893 182.456 303.022 182.491C303.151 182.525 303.285 182.534 303.418 182.517Z" fill="black"/>
</g>
<path d="M306.346 247.08L300.861 244.155L296.65 244.183L309.232 254.026L306.346 247.08Z" fill="#FC9D9D"/>
<path d="M295.015 172.219L294.543 172.262C297.02 159.935 309.959 158.8 315.738 164.408C319.223 167.805 321.124 173.695 321.124 173.695C320.303 176.029 317.635 178.061 316.877 179.688C316.556 180.414 315.436 177.267 314.837 176.91C314.746 176.878 314.123 177.628 313.694 178.148C313.639 178.225 313.562 178.285 313.474 178.32C313.385 178.355 313.289 178.363 313.195 178.344C313.102 178.326 313.016 178.28 312.948 178.213C312.881 178.147 312.833 178.062 312.813 177.969C312.47 176.485 312.383 174.954 312.555 173.441L312.733 172.08C309.764 171.409 300.762 168.833 298.77 168.373C298.278 168.246 297.921 169.016 297.833 169.5L296.853 176.727L295.531 173.167L295.015 172.219Z" fill="#21252B"/>
<path d="M313.078 182.608C313.078 182.608 316.936 183.545 318.36 179.83C319.785 176.115 315.138 174.627 313.804 178.394L312.613 182.541L313.078 182.608Z" fill="#FC9D9D"/>
<path opacity="0.15" d="M317.499 177.548C317.357 177.389 317.183 177.263 316.988 177.177C316.793 177.091 316.581 177.049 316.368 177.052C316.154 177.07 315.948 177.136 315.762 177.243C315.577 177.351 315.418 177.499 315.296 177.675C314.956 178.098 314.722 178.596 314.614 179.128L314.518 179.525C314.463 179.835 314.955 180.005 315.05 179.648L315.141 179.207C315.233 178.777 315.416 178.371 315.677 178.017C315.761 177.907 315.867 177.816 315.987 177.748C316.107 177.68 316.239 177.636 316.376 177.62C316.668 177.641 316.943 177.77 317.146 177.981C317.195 178.023 317.257 178.045 317.321 178.045C317.384 178.045 317.446 178.023 317.495 177.981C317.546 177.921 317.574 177.844 317.575 177.765C317.575 177.687 317.549 177.61 317.499 177.548Z" fill="black"/>
<path d="M278.196 249.275L288.246 255.32L279.939 247.486L278.196 249.275Z" fill="#DADDDF"/>
<path d="M295.61 178.6C295.603 179.073 295.689 179.542 295.863 179.981C296.038 180.421 296.297 180.822 296.626 181.161C296.956 181.5 297.349 181.771 297.783 181.959C298.217 182.146 298.683 182.246 299.156 182.253C299.629 182.26 300.098 182.174 300.538 181.999C300.978 181.825 301.378 181.566 301.717 181.237C302.057 180.907 302.328 180.514 302.515 180.08C302.703 179.646 302.803 179.18 302.81 178.707C302.821 178.048 302.655 177.399 302.33 176.826C302.91 176.622 303.539 176.6 304.132 176.762C303.984 177.131 303.91 177.524 303.913 177.921C303.902 178.633 304.103 179.332 304.489 179.93C304.876 180.528 305.431 180.998 306.084 181.28C306.738 181.563 307.46 181.645 308.161 181.517C308.861 181.389 309.508 181.056 310.019 180.56C310.53 180.065 310.883 179.429 311.032 178.733C311.182 178.037 311.122 177.312 310.86 176.65C310.598 175.988 310.145 175.419 309.559 175.015C308.973 174.61 308.281 174.388 307.569 174.377C306.906 174.38 306.257 174.562 305.689 174.904C305.121 175.245 304.655 175.734 304.342 176.318C303.606 176.094 302.816 176.135 302.107 176.433C301.78 176.005 301.36 175.657 300.879 175.414C300.398 175.171 299.868 175.041 299.329 175.032C298.368 175.031 297.444 175.402 296.751 176.067C296.058 176.732 295.649 177.64 295.61 178.6ZM304.405 177.941C304.413 177.32 304.605 176.716 304.957 176.205C305.309 175.694 305.804 175.298 306.381 175.068C306.957 174.839 307.589 174.785 308.196 174.915C308.803 175.045 309.358 175.351 309.79 175.797C310.223 176.242 310.513 176.805 310.625 177.416C310.737 178.026 310.665 178.656 310.419 179.226C310.173 179.795 309.763 180.279 309.241 180.616C308.72 180.952 308.11 181.126 307.489 181.116C306.661 181.099 305.872 180.756 305.295 180.162C304.718 179.568 304.398 178.77 304.405 177.941ZM296.134 178.564C296.142 177.943 296.334 177.339 296.685 176.828C297.037 176.317 297.532 175.921 298.109 175.691C298.685 175.462 299.317 175.408 299.924 175.538C300.531 175.668 301.086 175.975 301.519 176.42C301.951 176.865 302.241 177.428 302.353 178.039C302.465 178.649 302.393 179.279 302.147 179.849C301.901 180.418 301.491 180.902 300.969 181.238C300.448 181.575 299.838 181.749 299.218 181.739C298.806 181.736 298.398 181.652 298.019 181.49C297.64 181.329 297.297 181.093 297.01 180.798C296.723 180.502 296.498 180.152 296.347 179.769C296.197 179.386 296.124 178.976 296.134 178.564Z" fill="white"/>
<path d="M314.38 182.179C314.223 182.197 314.063 182.167 313.923 182.094C313.783 182.021 313.667 181.907 313.592 181.768C313.517 181.629 313.485 181.47 313.501 181.313C313.517 181.155 313.579 181.006 313.68 180.884C313.781 180.762 313.917 180.674 314.069 180.629C314.221 180.585 314.383 180.587 314.534 180.636C314.685 180.684 314.817 180.777 314.915 180.901C315.013 181.025 315.071 181.177 315.083 181.334C315.097 181.539 315.032 181.741 314.901 181.898C314.77 182.056 314.583 182.156 314.38 182.179Z" fill="#FFBB00"/>
<path opacity="0.15" d="M313.975 182C314.196 182.036 314.422 181.982 314.604 181.852C314.787 181.721 314.91 181.523 314.947 181.302C314.977 181.144 314.962 180.98 314.903 180.83C314.992 180.916 315.06 181.021 315.102 181.137C315.143 181.254 315.157 181.378 315.141 181.501C315.13 181.604 315.097 181.704 315.045 181.793C314.993 181.884 314.923 181.961 314.839 182.022C314.754 182.083 314.658 182.126 314.557 182.147C314.455 182.169 314.35 182.169 314.248 182.147C314.093 182.126 313.951 182.047 313.852 181.925C313.844 182.012 313.887 182.008 313.975 182Z" fill="black"/>
<path opacity="0.15" d="M313.868 182.704L312.506 182.529L313.852 185.741L313.868 182.704Z" fill="black"/>
<path d="M297.825 169.659C304.969 167.516 304.616 176.1 312.019 174.155C318.957 172.326 311.915 165.722 311.915 165.722L305.596 165.369L297.301 167.031L297.825 169.659Z" fill="#21252B"/>
<path d="M313.867 182.704C313.867 182.704 313.256 190.002 309.934 195.213C309.934 195.213 315.118 195.935 318.944 194.665C322.473 193.506 313.867 182.704 313.867 182.704Z" fill="#21252B"/>
<path opacity="0.2" d="M334.955 241.742L325.719 216.68L324.528 217.033C324.298 217.101 324.101 217.251 323.974 217.454C323.847 217.657 323.799 217.9 323.838 218.136L328.124 244.02L327.89 271.706L333.475 271.31L334.955 241.742Z" fill="black"/>
<path d="M339.95 226.173L343.327 243C343.549 244.13 343.315 245.301 342.677 246.259C342.04 247.217 341.049 247.884 339.922 248.116L308.169 253.295L306.16 247.263L331.019 239.222L328.824 228.987L339.95 226.173Z" fill="#DADDDF"/>
<path d="M291.061 250.224L290.441 233.373L281.932 232.337L281.852 249.641" fill="#DADDDF"/>
<path opacity="0.15" d="M286.953 232.9L286.969 248.541L291.002 248.637L290.26 233.19L286.953 232.9Z" fill="black"/>
<path d="M324.442 216.922L328.097 233.008L341.624 230.083L337.814 214.482L324.442 216.922Z" fill="#FFBB00"/>
<path d="M274.116 239.984L272.985 238.309H287.349L288.52 239.984H274.116Z" fill="#FFBB00"/>
<path d="M315.154 258.046H291.72L269.057 239.404H292.522L315.154 258.046Z" fill="#3F4249"/>
<path opacity="0.3" d="M315.154 258.046H291.72L269.057 239.404H292.522L315.154 258.046Z" fill="black"/>
<path d="M315.119 258.046H314.389V258.593H315.119V258.046Z" fill="#3F4249"/>
<path opacity="0.3" d="M315.119 258.046H314.389V258.593H315.119V258.046Z" fill="black"/>
<path d="M268.691 239.952V239.404H269.679L269.786 240.134L268.691 239.952Z" fill="#3F4249"/>
<path opacity="0.3" d="M268.691 239.952V239.404H269.679L269.786 240.134L268.691 239.952Z" fill="black"/>
<path d="M315.153 258.594H292.418L268.655 239.952H292.486L315.153 258.594Z" fill="#3F4249"/>
<path opacity="0.2" d="M290.259 233.189V219.517C290.259 219.441 290.244 219.366 290.215 219.295C290.186 219.225 290.143 219.161 290.09 219.108C290.036 219.054 289.972 219.011 289.902 218.982C289.831 218.953 289.756 218.938 289.68 218.938C289.537 218.938 289.4 218.99 289.293 219.084C289.186 219.178 289.118 219.308 289.1 219.45L287.358 233.043L290.259 233.189Z" fill="black"/>
<path d="M270.644 242.044C270.644 242.044 271.101 247.601 277.471 249.331L279.94 247.486L274.463 241.929L270.644 242.044Z" fill="#FC9D9D"/>
<path opacity="0.15" d="M270.644 242.044C270.644 242.044 271.101 247.601 277.471 249.331L279.94 247.486L274.463 241.929L270.644 242.044Z" fill="black"/>
<path d="M274.831 241.901L270.965 242.032C270.746 242.039 270.536 242.12 270.37 242.262C270.26 242.355 270.172 242.471 270.112 242.602C270.053 242.732 270.023 242.875 270.025 243.019C270.028 243.162 270.062 243.304 270.126 243.432C270.189 243.561 270.281 243.674 270.393 243.763C270.615 243.938 270.871 244.064 271.145 244.133C271.418 244.201 271.704 244.211 271.981 244.16L276.153 243.366C276.249 243.344 276.338 243.295 276.408 243.225C276.478 243.154 276.528 243.066 276.549 242.969C276.569 242.874 276.562 242.776 276.529 242.685C276.496 242.593 276.439 242.513 276.363 242.453C275.933 242.095 275.39 241.9 274.831 241.901Z" fill="#FC9D9D"/>
<path d="M276.36 243.405L272.176 244.521C271.96 244.558 271.763 244.668 271.617 244.83C271.521 244.937 271.451 245.064 271.411 245.202C271.37 245.34 271.361 245.484 271.383 245.626C271.405 245.768 271.459 245.903 271.54 246.021C271.621 246.14 271.727 246.239 271.851 246.311C272.096 246.453 272.369 246.541 272.651 246.57C272.933 246.598 273.218 246.565 273.486 246.474L277.876 244.624C277.973 244.592 278.059 244.531 278.121 244.45C278.183 244.368 278.22 244.27 278.225 244.167C278.231 244.071 278.21 243.976 278.165 243.89C278.12 243.805 278.053 243.734 277.971 243.683C277.484 243.403 276.913 243.305 276.36 243.405Z" fill="#FC9D9D"/>
<path d="M278.066 244.707L274.034 246.295C273.824 246.358 273.641 246.489 273.514 246.668C273.431 246.785 273.375 246.919 273.35 247.06C273.325 247.201 273.332 247.346 273.37 247.484C273.408 247.623 273.477 247.751 273.57 247.86C273.664 247.968 273.78 248.055 273.911 248.113C274.169 248.23 274.449 248.291 274.732 248.291C275.016 248.291 275.296 248.23 275.554 248.113L279.706 245.779C279.798 245.735 279.875 245.665 279.928 245.577C279.981 245.49 280.007 245.389 280.003 245.287C279.999 245.19 279.968 245.097 279.913 245.016C279.859 244.937 279.782 244.873 279.694 244.834C279.184 244.6 278.607 244.554 278.066 244.707Z" fill="#FC9D9D"/>
<path d="M279.134 246.08L276.526 248.176C276.385 248.271 276.28 248.411 276.228 248.573C276.194 248.679 276.184 248.79 276.198 248.9C276.212 249.01 276.25 249.115 276.309 249.209C276.369 249.302 276.449 249.381 276.542 249.44C276.636 249.499 276.742 249.536 276.852 249.55C277.067 249.573 277.285 249.549 277.49 249.48C277.695 249.412 277.884 249.3 278.042 249.153L280.575 246.485C280.633 246.432 280.674 246.362 280.692 246.285C280.711 246.208 280.706 246.127 280.678 246.053C280.653 245.983 280.609 245.921 280.55 245.874C280.492 245.828 280.422 245.799 280.348 245.791C279.922 245.743 279.493 245.846 279.134 246.08Z" fill="#FC9D9D"/>
<path opacity="0.15" d="M308.172 253.295L339.925 248.116C341.052 247.884 342.043 247.217 342.681 246.259C343.318 245.301 343.552 244.13 343.331 243L342.608 239.404C342.608 239.404 343.271 244.885 337.79 246.35L307.835 252.271L308.172 253.295Z" fill="black"/>
<path opacity="0.2" d="M326.617 273.949L329.828 393.3H332.574V273.036L326.617 273.949Z" fill="black"/>
<path opacity="0.2" d="M299.217 199.011L306.27 210.235C306.383 210.412 306.536 210.561 306.717 210.668C306.898 210.774 307.102 210.837 307.312 210.849C307.522 210.861 307.732 210.822 307.924 210.737C308.117 210.652 308.286 210.522 308.418 210.358L317.495 199.011" stroke="black" stroke-width="0.92" stroke-miterlimit="10"/>
<path d="M281.138 172.77C282.975 170.731 284.001 168.089 284.02 165.344C284.02 158.661 277.887 153.24 270.326 153.24C262.765 153.24 256.633 158.661 256.633 165.344C256.633 172.028 262.765 177.449 270.326 177.449C272.942 177.46 275.515 176.785 277.788 175.492L282.829 177.846L281.138 172.77Z" fill="white" stroke="#DADDDF" stroke-miterlimit="10"/>
<path d="M277.153 163.047C276.788 161.424 275.244 160.027 273.581 160.189C273.092 160.257 272.622 160.423 272.199 160.677C271.776 160.932 271.409 161.269 271.12 161.67C270.908 161.936 270.715 162.217 270.545 162.511C270.375 162.216 270.183 161.935 269.969 161.67C269.681 161.269 269.315 160.931 268.893 160.676C268.47 160.421 268.001 160.254 267.512 160.185C265.853 160.019 264.305 161.416 263.94 163.039C263.575 164.662 264.182 166.388 265.182 167.718C266.504 169.575 268.457 170.885 270.676 171.405C272.537 170.976 274.899 169.055 275.899 167.726C276.899 166.396 277.522 164.674 277.153 163.047Z" fill="#FFBB00"/>
<path d="M276.848 166.063H276.792H276.634H276.014H273.736L273.776 166.035C273.573 166.769 273.339 167.623 273.077 168.579L273.038 168.73L272.986 168.579L271.652 164.749C271.505 164.324 271.359 163.907 271.22 163.498H271.315C270.787 164.4 270.287 165.257 269.827 166.035V166.059H269.799L265.794 166.039H264.659H264.361H264.258C264.292 166.036 264.326 166.036 264.361 166.039H264.659H265.794L269.799 166.019L269.755 166.047L271.236 163.502L271.295 163.403L271.331 163.51C271.474 163.907 271.617 164.336 271.767 164.761L273.089 168.595H272.994C273.26 167.65 273.506 166.793 273.712 166.059V166.027H273.74L276.018 166.047H276.638H276.796L276.848 166.063Z" fill="#FAFAFA"/>
<path d="M501.418 412.429H27.8983C27.7403 412.429 27.5887 412.366 27.4771 412.255C27.3656 412.144 27.3029 411.993 27.3029 411.834C27.3029 411.675 27.3656 411.525 27.4771 411.414C27.5887 411.303 27.7403 411.239 27.8983 411.239H501.418C501.577 411.239 501.728 411.303 501.839 411.414C501.95 411.525 502.013 411.675 502.013 411.834C502.013 411.993 501.95 412.144 501.839 412.255C501.728 412.366 501.577 412.429 501.418 412.429Z" fill="#B2B6BB"/>
</svg>
