<svg width="32" height="32" viewBox="0 0 32 32" fill="none" xmlns="http://www.w3.org/2000/svg">
<path d="M23.64 16L28.9467 10.72C29.4667 10.2 29.4667 9.33333 28.9467 8.84L23.16 3.05333C22.6667 2.53333 21.8 2.53333 21.28 3.05333L16 8.36L10.6667 3.05333C10.4167 2.80532 10.0788 2.66615 9.72665 2.66615C9.37451 2.66615 9.03664 2.80532 8.78665 3.05333L2.99999 8.84C2.47999 9.33333 2.47999 10.2 2.99999 10.72L8.30665 16L2.99999 21.3333C2.47999 21.8533 2.47999 22.6667 2.99999 23.2133L8.78665 29C9.33332 29.52 10.1467 29.52 10.6667 29L16 23.6933L21.28 29C21.5467 29.2667 21.88 29.3867 22.2267 29.3867C22.5733 29.3867 22.9067 29.2533 23.1733 29L28.96 23.2133C29.48 22.6667 29.48 21.8533 28.96 21.3333L23.64 16M16 12C16.3536 12 16.6927 12.1405 16.9428 12.3905C17.1928 12.6406 17.3333 12.9797 17.3333 13.3333C17.3333 13.687 17.1928 14.0261 16.9428 14.2761C16.6927 14.5262 16.3536 14.6667 16 14.6667C15.6464 14.6667 15.3072 14.5262 15.0572 14.2761C14.8071 14.0261 14.6667 13.687 14.6667 13.3333C14.6667 12.9797 14.8071 12.6406 15.0572 12.3905C15.3072 12.1405 15.6464 12 16 12M9.71999 14.6133L4.87999 9.78666L9.71999 4.94666L14.5467 9.77333L9.71999 14.6133ZM13.3333 17.3333C12.9797 17.3333 12.6406 17.1929 12.3905 16.9428C12.1405 16.6928 12 16.3536 12 16C12 15.6464 12.1405 15.3072 12.3905 15.0572C12.6406 14.8071 12.9797 14.6667 13.3333 14.6667C13.6869 14.6667 14.0261 14.8071 14.2761 15.0572C14.5262 15.3072 14.6667 15.6464 14.6667 16C14.6667 16.3536 14.5262 16.6928 14.2761 16.9428C14.0261 17.1929 13.6869 17.3333 13.3333 17.3333ZM16 20C15.6464 20 15.3072 19.8595 15.0572 19.6095C14.8071 19.3594 14.6667 19.0203 14.6667 18.6667C14.6667 18.313 14.8071 17.9739 15.0572 17.7239C15.3072 17.4738 15.6464 17.3333 16 17.3333C16.3536 17.3333 16.6927 17.4738 16.9428 17.7239C17.1928 17.9739 17.3333 18.313 17.3333 18.6667C17.3333 19.0203 17.1928 19.3594 16.9428 19.6095C16.6927 19.8595 16.3536 20 16 20ZM18.6667 14.6667C19.0203 14.6667 19.3594 14.8071 19.6095 15.0572C19.8595 15.3072 20 15.6464 20 16C20 16.3536 19.8595 16.6928 19.6095 16.9428C19.3594 17.1929 19.0203 17.3333 18.6667 17.3333C18.313 17.3333 17.9739 17.1929 17.7238 16.9428C17.4738 16.6928 17.3333 16.3536 17.3333 16C17.3333 15.6464 17.4738 15.3072 17.7238 15.0572C17.9739 14.8071 18.313 14.6667 18.6667 14.6667M22.2133 27.12L17.3733 22.2933L22.2133 17.4533L27.04 22.28L22.2133 27.12Z" fill="#FFBB00"/>
</svg>
